<svg width="475" height="389" viewBox="0 0 475 389" fill="none" xmlns="http://www.w3.org/2000/svg">
<path d="M145.036 258.634C168.624 240.469 215.094 235.538 239.052 255.022C240.103 255.934 239.853 257.346 238.939 258.397C228.64 267.257 217.152 273.241 204.752 276.155C220.222 276.448 235.085 274.694 249.065 266.965C249.618 266.578 250.199 267.407 249.645 267.795C232.398 280.284 209.814 280.439 188.671 277.938C188.201 277.855 187.453 277.966 186.706 278.078C171.899 278.144 152.694 274.285 142.958 262.148C141.99 260.766 143.458 259.326 144.869 259.574C144.675 259.298 144.759 258.827 145.036 258.634ZM198.415 273.587C207.299 272.723 215.936 269.148 223.715 264.937C231.217 260.921 237.224 257.126 227.29 252.956C203.909 242.545 167.542 246.583 146.197 260.293C146.197 260.293 146.197 260.293 145.92 260.486C157.372 273.895 182.335 275.37 198.415 273.587Z" fill="white"/>
<path d="M183.417 269.255C186.212 268.534 188.925 268.283 191.72 267.562C194.239 267.034 196.841 266.036 199.36 265.509C200.107 265.398 200.605 266.697 199.581 267.003C194.653 268.804 188.536 271.852 183.361 270.943C182.697 270.584 182.67 269.367 183.417 269.255Z" fill="white"/>
<path d="M188.319 262.115C189.62 261.616 190.227 263.662 188.926 264.161C183.335 265.604 177.744 267.047 172.043 267.742C171.018 268.047 170.604 266.277 171.628 265.972C177.219 264.53 182.727 263.557 188.319 262.115Z" fill="white"/>
<path d="M172.073 260.716C173.374 260.217 173.982 262.264 172.681 262.762C167.837 264.094 163.658 265.785 159.007 267.393C157.983 267.698 157.015 266.315 158.123 265.54C161.998 262.826 167.23 262.047 172.073 260.716Z" fill="white"/>
<path d="M158.015 260.671C159.316 260.172 159.924 262.219 158.623 262.718C156.768 263.604 155.19 264.297 153.225 264.437C152.007 264.465 151.98 263.248 152.811 262.667C154.859 262.057 156.631 261.64 158.015 260.671Z" fill="white"/>
<path d="M197.637 221.802C221.225 203.637 267.695 198.706 291.653 218.191C292.704 219.103 292.455 220.514 291.541 221.566C281.241 230.426 269.753 236.41 257.353 239.324C272.547 239.81 287.409 238.056 301.666 230.134C302.22 229.746 302.801 230.576 302.247 230.963C284.999 243.452 262.416 243.608 241.273 241.106C240.525 241.217 240.055 241.135 239.308 241.246C224.501 241.312 205.296 237.454 195.56 225.317C194.592 223.934 196.059 222.495 197.471 222.743C197.277 222.466 197.083 222.19 197.637 221.802ZM250.74 236.949C259.624 236.085 268.26 232.51 276.039 228.3C283.541 224.283 289.549 220.488 279.615 216.319C256.234 205.907 219.866 209.945 198.522 223.655C198.522 223.655 198.522 223.655 198.245 223.849C209.696 237.257 234.659 238.732 250.74 236.949Z" fill="white"/>
<path d="M236.018 232.424C238.814 231.702 241.526 231.451 244.322 230.73C246.841 230.203 249.443 229.205 251.961 228.677C252.709 228.566 253.206 229.866 252.182 230.171C247.255 231.973 241.137 235.02 235.962 234.111C235.298 233.752 234.994 232.729 236.018 232.424Z" fill="white"/>
<path d="M240.644 225.477C241.945 224.978 242.553 227.024 241.252 227.523C235.66 228.966 230.069 230.409 224.368 231.105C223.344 231.41 222.929 229.639 223.953 229.334C229.545 227.892 235.053 226.919 240.644 225.477Z" fill="white"/>
<path d="M224.398 224.078C225.699 223.579 226.307 225.626 225.006 226.125C220.162 227.456 215.982 229.147 211.332 230.755C210.307 231.06 209.339 229.677 210.447 228.902C214.323 226.188 219.831 225.216 224.398 224.078Z" fill="white"/>
<path d="M210.616 223.839C211.917 223.34 212.525 225.387 211.224 225.886C209.37 226.773 207.792 227.465 205.827 227.605C204.609 227.634 204.582 226.417 205.412 225.835C207.184 225.419 209.232 224.809 210.616 223.839Z" fill="white"/>
<path d="M249.684 185.358C271.335 168.55 314.068 164.175 336.117 182.112C337.168 183.024 336.919 184.435 336.088 185.017C326.619 193.295 316.238 198.504 304.862 201.112C318.838 201.628 332.483 199.902 345.633 192.755C346.186 192.367 346.767 193.197 346.213 193.585C330.073 205.298 309.455 205.314 289.723 203.06C289.252 202.978 288.505 203.089 288.035 203.006C274.446 203.044 256.652 199.433 247.69 188.402C246.722 187.02 247.913 185.774 249.324 186.022C249.324 186.022 249.408 185.552 249.684 185.358ZM298.913 199.097C307.05 198.344 315.133 195.157 322.164 191.058C329.113 187.428 334.567 184.022 325.574 180.017C303.991 170.407 270.613 174 251.123 186.823C251.123 186.823 251.123 186.823 250.846 187.017C261.246 199.513 284.05 200.851 298.913 199.097Z" fill="white"/>
<path d="M284.855 194.931C287.374 194.403 290.086 194.152 292.412 193.348C294.737 192.544 297.062 191.74 299.304 191.407C300.051 191.295 300.355 192.319 299.524 192.9C295.151 194.314 289.504 197.445 284.606 196.342C284.329 196.536 284.108 195.042 284.855 194.931Z" fill="white"/>
<path d="M289.592 188.731C290.616 188.426 291.501 190.278 290.283 190.307C284.969 191.556 279.848 193.081 274.423 193.583C273.676 193.694 273.178 192.394 274.202 192.089C279.046 190.758 284.277 189.979 289.592 188.731Z" fill="white"/>
<path d="M274.564 187.303C275.588 186.998 276.473 188.851 275.172 189.35C271.076 190.57 266.896 192.261 262.522 193.675C261.498 193.98 261.001 192.68 261.831 192.099C265.237 189.302 270.274 188.247 274.564 187.303Z" fill="white"/>
<path d="M261.723 187.23C263.024 186.731 263.438 188.501 262.331 189.277C260.753 189.969 259.175 190.662 257.404 191.078C256.186 191.107 256.159 189.89 256.99 189.308C258.844 188.422 260.145 187.923 261.723 187.23Z" fill="white"/>
<path d="M297.855 151.628C319.506 134.82 362.239 130.445 384.288 148.382C385.339 149.294 385.09 150.705 384.259 151.287C375.067 159.371 364.409 164.773 353.033 167.382C367.009 167.897 380.848 166.449 393.804 159.025C394.357 158.637 394.938 159.467 394.384 159.855C378.244 171.568 357.626 171.584 338.171 169.136C337.423 169.247 336.953 169.165 336.206 169.276C322.617 169.314 304.823 165.703 295.861 154.672C294.893 153.29 296.084 152.044 297.495 152.292C297.772 152.098 297.578 151.822 297.855 151.628ZM347.084 165.367C355.221 164.614 363.304 161.427 370.335 157.328C377.284 153.698 382.737 150.292 373.745 146.287C352.162 136.677 318.784 140.27 299.294 153.093C299.294 153.093 299.294 153.093 299.017 153.287C309.417 165.783 332.221 167.121 347.084 165.367Z" fill="white"/>
<path d="M333.026 161.201C335.545 160.673 338.257 160.422 340.582 159.618C342.908 158.814 345.233 158.01 347.475 157.677C348.222 157.565 348.526 158.589 347.695 159.17C343.322 160.584 337.675 163.715 332.777 162.612C332.777 162.612 332.279 161.312 333.026 161.201Z" fill="white"/>
<path d="M337.763 155.001C338.787 154.695 339.672 156.548 338.454 156.577C333.139 157.826 328.019 159.351 322.594 159.853C321.847 159.964 321.349 158.664 322.373 158.359C327.217 157.028 332.725 156.056 337.763 155.001Z" fill="white"/>
<path d="M322.735 153.573C323.759 153.268 324.644 155.121 323.343 155.62C319.246 156.84 315.067 158.531 310.693 159.945C309.669 160.25 309.172 158.95 310.002 158.369C313.408 155.572 318.445 154.517 322.735 153.573Z" fill="white"/>
<path d="M309.894 153.5C311.195 153.001 311.609 154.771 310.502 155.547C308.924 156.239 307.346 156.932 305.575 157.348C304.357 157.377 304.33 156.16 305.16 155.578C307.015 154.692 308.316 154.193 309.894 153.5Z" fill="white"/>
<path d="M346.027 117.898C364.549 103.692 400.64 99.8479 419.535 115.049C420.393 115.684 420.143 117.095 419.313 117.677C411.311 124.516 402.231 129.225 392.627 131.418C404.444 131.796 416.318 130.487 427.335 124.421C427.612 124.227 428.276 124.586 427.722 124.974C414.074 134.943 396.638 134.79 380.006 132.838C379.535 132.756 378.788 132.867 378.318 132.784C366.694 132.682 351.916 129.844 344.116 120.472C343.342 119.366 344.256 118.314 345.473 118.285C345.944 118.368 345.75 118.091 346.027 117.898ZM387.812 129.845C394.731 129.12 401.513 126.432 407.437 123.108C413.361 119.784 418.178 117.235 410.32 113.672C392.141 105.387 363.439 108.59 346.995 119.28C355.763 130.035 374.997 130.988 387.812 129.845Z" fill="white"/>
<path d="M376.107 126.091C378.349 125.758 380.591 125.424 382.639 124.814C384.687 124.204 386.736 123.593 388.507 123.177C389.254 123.066 389.558 124.089 388.811 124.201C385.185 125.503 380.368 128.052 376.134 127.308C375.664 127.226 375.36 126.202 376.107 126.091Z" fill="white"/>
<path d="M379.735 120.666C380.759 120.361 381.45 121.938 380.426 122.243C375.859 123.38 371.762 124.601 367.085 124.991C366.337 125.103 365.84 123.803 366.864 123.498C371.154 122.554 375.444 121.61 379.735 120.666Z" fill="white"/>
<path d="M367.06 119.652C368.084 119.347 368.775 120.924 367.751 121.229C363.931 122.255 360.775 123.641 357.149 124.943C356.402 125.055 355.821 124.225 356.652 123.644C359.504 121.235 363.517 120.485 367.06 119.652Z" fill="white"/>
<path d="M356.183 119.439C357.013 118.858 357.705 120.434 356.874 121.015C355.573 121.514 354.189 122.484 352.501 122.43C351.753 122.541 351.449 121.517 352.28 120.936C353.581 120.437 355.075 120.215 356.183 119.439Z" fill="white"/>
<path d="M120.867 275.969C120.617 277.38 118.763 278.267 117.795 276.884C109.72 263.584 112.662 244.218 117.789 230.327C118.149 229.662 118.232 229.192 118.592 228.528C123.473 207.804 131.343 186.636 148.978 174.7C149.531 174.312 150.112 175.142 149.559 175.529C137.238 186.217 130.783 199.389 125.767 214.027C132.746 203.371 142.105 194.346 154.147 187.974C155.254 187.199 156.859 187.723 157.357 189.023C167.666 218.477 146.945 260.181 121.808 276.134C121.531 276.328 121.061 276.246 120.867 275.969ZM120.646 274.475C141.106 258.913 157.063 226.314 155.276 200.782C154.284 189.938 149.135 194.368 142.794 200.044C136.177 205.914 129.864 212.807 126.013 220.86C118.838 235.361 111.493 259.046 120.646 274.475Z" fill="white"/>
<path d="M124.954 236.435C126.588 234.055 127.751 231.592 129.385 229.211C130.742 227.025 132.57 224.921 133.927 222.735C134.287 222.071 133.236 221.159 132.599 222.017C129.221 226.03 124.264 230.737 123.349 235.911C123.459 236.657 124.593 237.099 124.954 236.435Z" fill="white"/>
<path d="M133.148 233.994C134.061 232.943 132.346 231.671 131.432 232.723C128.164 237.484 124.896 242.244 122.292 247.364C121.655 248.222 123.177 249.217 123.814 248.359C127.276 243.875 130.073 239.031 133.148 233.994Z" fill="white"/>
<path d="M129.099 250.015C130.012 248.963 128.297 247.691 127.383 248.743C124.475 252.84 121.457 256.189 118.356 260.009C117.719 260.867 118.687 262.25 119.794 261.474C123.476 258.484 126.468 253.917 129.099 250.015Z" fill="white"/>
<path d="M124.139 262.965C125.052 261.913 123.337 260.642 122.423 261.694C120.956 263.133 119.765 264.379 118.962 266.178C118.518 267.312 119.653 267.754 120.483 267.172C121.951 265.733 122.948 264.211 124.139 262.965Z" fill="white"/>
<path d="M173.192 239.331C172.942 240.742 171.087 241.629 170.119 240.246C162.044 226.946 164.987 207.58 170.113 193.689C170.474 193.025 170.557 192.554 170.917 191.89C175.798 171.166 183.667 149.998 201.302 138.062C201.856 137.674 202.437 138.504 201.883 138.891C189.563 149.579 183.108 162.751 178.092 177.389C185.071 166.733 194.43 157.708 206.472 151.336C207.579 150.561 209.184 151.085 209.681 152.385C220.074 181.369 199.546 223.35 174.409 239.303C173.856 239.69 173.662 239.414 173.192 239.331ZM172.971 237.837C193.431 222.275 209.387 189.676 207.6 164.144C206.609 153.3 201.459 157.731 195.119 163.406C188.502 169.276 182.188 176.169 178.338 184.222C171.163 198.723 163.818 222.408 172.971 237.837Z" fill="white"/>
<path d="M177.555 199.603C179.189 197.223 180.353 194.76 181.987 192.38C183.344 190.193 185.171 188.089 186.529 185.903C186.889 185.239 185.837 184.327 185.2 185.185C181.822 189.199 176.866 193.905 175.95 199.079C176.061 199.826 176.918 200.461 177.555 199.603Z" fill="white"/>
<path d="M185.472 197.357C186.386 196.305 184.67 195.033 183.757 196.085C180.489 200.846 177.221 205.606 174.617 210.726C173.98 211.584 175.501 212.579 176.138 211.721C179.6 207.237 182.674 202.2 185.472 197.357Z" fill="white"/>
<path d="M181.423 213.377C182.337 212.325 180.621 211.054 179.707 212.105C176.8 216.202 173.781 219.551 170.68 223.371C170.043 224.229 171.011 225.612 172.118 224.836C175.801 221.846 178.792 217.279 181.423 213.377Z" fill="white"/>
<path d="M176.74 226.133C177.654 225.081 175.939 223.81 175.025 224.862C173.557 226.301 172.367 227.547 171.563 229.346C171.12 230.48 172.254 230.922 173.085 230.341C174.276 229.095 175.549 227.379 176.74 226.133Z" fill="white"/>
<path d="M225.515 202.693C225.265 204.104 223.687 204.797 222.719 203.415C215.418 191.221 218.305 173.541 222.794 160.509C223.155 159.844 223.238 159.374 223.598 158.71C228.146 139.868 235.295 120.028 251.546 109.061C252.1 108.673 252.681 109.502 252.127 109.89C240.914 119.802 234.902 131.84 230.329 145.343C236.672 135.546 245.393 127.379 256.411 121.312C257.242 120.73 258.653 120.978 259.151 122.278C268.381 149.603 249.738 187.792 226.455 202.859C226.179 203.052 225.985 202.776 225.515 202.693ZM225.294 201.2C244.092 186.801 258.885 156.664 256.959 133.29C256.272 123.47 251.205 127.429 245.419 132.718C239.355 138.199 233.679 144.234 229.911 151.817C223.65 165.266 217.108 187.153 225.294 201.2Z" fill="white"/>
<path d="M229.296 166.258C230.653 164.071 231.816 161.608 233.367 159.698C234.918 157.788 236.469 155.879 237.549 153.886C237.909 153.222 237.051 152.586 236.221 153.168C233.396 156.794 228.523 161.03 227.884 166.01C227.801 166.48 228.936 166.922 229.296 166.258Z" fill="white"/>
<path d="M236.935 164.205C237.572 163.347 236.134 161.882 235.69 163.016C232.699 167.583 229.514 171.873 227.187 176.799C226.827 177.463 227.878 178.375 228.515 177.517C231.423 173.421 233.944 168.772 236.935 164.205Z" fill="white"/>
<path d="M233.137 178.814C233.774 177.956 232.335 176.491 231.421 177.543C228.874 180.975 225.855 184.325 223.031 187.951C222.394 188.809 223.445 189.721 224.276 189.139C228.068 186.896 230.589 182.246 233.137 178.814Z" fill="white"/>
<path d="M228.814 190.906C229.727 189.854 228.206 188.86 227.098 189.635C225.908 190.881 224.717 192.126 223.72 193.649C223.277 194.783 224.411 195.225 225.242 194.643C226.709 193.204 227.429 191.875 228.814 190.906Z" fill="white"/>
<path d="M273.686 168.963C273.437 170.374 271.859 171.067 270.891 169.685C263.59 157.49 266.477 139.811 270.966 126.778C271.326 126.114 271.41 125.644 271.77 124.98C276.317 106.137 283.467 86.2975 299.718 75.3306C300.272 74.9429 300.852 75.7723 300.299 76.16C289.085 86.0719 283.074 98.11 278.501 111.613C284.844 101.816 293.565 93.6484 304.583 87.5818C305.414 87.0003 306.825 87.2482 307.322 88.548C316.637 115.402 297.91 154.062 274.711 168.658C274.35 169.322 274.157 169.046 273.686 168.963ZM273.466 167.47C292.264 153.07 307.057 122.934 305.131 99.5597C304.444 89.7397 299.377 93.6994 293.59 98.9874C287.527 104.469 281.851 110.504 278.083 118.087C271.822 131.536 265.28 153.423 273.466 167.47Z" fill="white"/>
<path d="M277.468 132.528C278.825 130.341 279.988 127.878 281.539 125.968C283.09 124.058 284.641 122.148 285.721 120.156C286.081 119.492 285.223 118.856 284.393 119.438C281.568 123.064 276.695 127.3 276.056 132.28C276.25 132.556 277.108 133.192 277.468 132.528Z" fill="white"/>
<path d="M285.107 130.475C285.744 129.617 284.305 128.152 283.862 129.286C280.871 133.853 277.686 138.143 275.359 143.069C274.999 143.733 276.05 144.645 276.687 143.787C279.872 139.497 282.393 134.848 285.107 130.475Z" fill="white"/>
<path d="M281.308 145.084C281.945 144.226 280.507 142.761 279.593 143.813C277.045 147.245 274.027 150.594 271.203 154.22C270.566 155.078 271.617 155.991 272.447 155.409C276.24 153.165 278.761 148.516 281.308 145.084Z" fill="white"/>
<path d="M276.985 157.176C277.899 156.124 276.378 155.129 275.27 155.905C274.08 157.151 272.889 158.396 271.892 159.919C271.449 161.053 272.583 161.495 273.414 160.913C274.881 159.474 275.601 158.145 276.985 157.176Z" fill="white"/>
<path d="M322.135 135.039C321.968 135.98 320.391 136.673 319.616 135.567C313.2 125.225 315.864 110.174 319.744 99.2168C319.827 98.7465 320.187 98.0823 320.271 97.612C324.125 81.3153 330.222 64.685 343.981 55.4628C344.534 55.0751 344.645 55.8219 344.368 56.0158C334.899 64.2942 329.608 75.0039 325.922 86.238C331.267 77.9627 338.798 71.0412 347.961 65.8613C348.792 65.2797 349.926 65.7215 350.507 66.5509C358.328 89.5057 342.566 122.382 322.689 134.652C322.522 135.592 322.328 135.316 322.135 135.039ZM321.831 134.016C337.778 122.026 350.327 96.3446 349.036 76.2342C348.375 67.6314 344.333 71.286 339.183 75.716C333.757 80.3399 329.188 85.5993 326.14 91.8536C320.212 103.421 314.724 122.098 321.831 134.016Z" fill="white"/>
<path d="M325.388 104.33C326.468 102.338 327.548 100.345 328.822 98.6291C330.096 96.913 331.37 95.1969 332.367 93.6747C332.727 93.0105 331.869 92.3748 331.509 93.039C329.045 96.0009 325.002 99.6555 324.253 103.889C324.17 104.359 325.027 104.995 325.388 104.33Z" fill="white"/>
<path d="M331.532 102.5C332.169 101.642 330.924 100.453 330.287 101.311C327.656 105.214 325.108 108.646 323.141 112.908C322.781 113.572 323.639 114.207 324.469 113.626C327.017 110.194 329.178 106.209 331.532 102.5Z" fill="white"/>
<path d="M328.344 115.034C328.981 114.176 327.736 112.987 327.099 113.845C324.828 117.084 322.447 119.575 319.982 122.537C319.622 123.201 320.203 124.031 321.033 123.449C324.272 121.593 326.35 118.078 328.344 115.034Z" fill="white"/>
<path d="M324.632 125.051C325.462 124.469 324.217 123.281 323.387 123.862C322.473 124.914 321.089 125.883 320.562 127.488C320.202 128.152 321.06 128.788 321.89 128.207C322.804 127.155 323.718 126.103 324.632 125.051Z" fill="white"/>
<path d="M423.382 56.3162C426.151 54.3777 429.002 51.9689 431.771 50.0304C432.878 49.255 434.04 50.9139 432.933 51.6893C430.358 53.9043 427.7 56.5896 424.737 58.2517C422.323 71.8916 414.624 83.8756 403.273 91.8235C395.798 97.0575 384.78 103.124 375.011 102.135C374.734 102.329 374.458 102.523 374.181 102.717C371.939 103.051 369.697 103.384 367.455 103.718C366.431 104.023 365.463 102.641 365.436 101.423C370.678 75.9137 396.567 51.6059 423.382 56.3162ZM372.886 90.8503C370.642 95.3058 368.731 97.88 371.664 99.1226C382.041 102.158 393.308 94.6803 401.807 89.1412C405.683 86.4273 427.117 59.882 420.254 58.9189C406.804 56.7989 393.516 66.1038 384.434 74.9352C379.201 79.8356 375.573 85.2603 372.886 90.8503Z" fill="white"/>
<path d="M393.068 75.482C392.486 78.7744 390.492 81.8189 388.581 84.393C388.221 85.0572 386.893 84.339 387.253 83.6748C388.499 80.7415 390.217 77.8909 391.463 74.9576C391.824 74.2934 393.428 74.8179 393.068 75.482Z" fill="white"/>
<path d="M383.767 82.8198C383.351 85.1715 382.27 87.1641 380.72 89.074C380.083 89.932 379.031 89.0199 379.668 88.1619C380.942 86.4458 381.829 84.1767 382.632 82.378C382.716 81.9077 384.127 82.1556 383.767 82.8198Z" fill="white"/>
<path d="M376.15 94.3335C375.706 95.468 375.54 96.4087 375.373 97.3494C375.124 98.7604 373.242 98.4298 373.491 97.0188C373.741 95.6078 373.908 94.6671 374.821 93.6152C375.265 92.4807 376.593 93.1989 376.15 94.3335Z" fill="white"/>
<path d="M69.1038 295.732C70.0176 294.68 71.5393 295.675 71.0959 296.809C69.2122 300.601 67.4388 305.139 65.0846 308.847C67.5763 307.103 70.3447 305.164 73.03 303.696C85.2113 295.166 97.2823 285.89 110.625 279.02C111.456 278.438 112.424 279.821 111.787 280.679C103.702 287.988 94.8429 294.191 85.7069 300.588C93.8168 298.618 102.258 298.888 109.369 302.562C109.839 302.645 109.479 303.309 109.009 303.226C93.8439 299.835 82.439 305.349 69.9266 311.638C59.8768 319.087 49.827 326.536 39.3629 332.214C36.9545 333.489 35.0185 330.724 37.0397 328.897C42.1895 324.467 47.8097 320.119 53.3467 316.242C55.6447 314.221 57.9427 312.2 60.0472 309.902C64.1728 305.777 65.6422 300.216 69.1038 295.732Z" fill="white"/>
</svg>
