<!-- Generated by IcoMoon.io -->
<svg version="1.1" xmlns="http://www.w3.org/2000/svg" fill="currentColor" width="1024"
    height="1024"
    viewBox="0 0 1024 1024">
    <path
        d="M512 96c-82.278 0-162.706 24.398-231.117 70.109s-121.731 110.681-153.216 186.695c-31.486 76.013-39.724 159.657-23.673 240.352s55.671 154.82 113.85 213.001c58.179 58.18 132.303 97.801 213 113.852 80.695 16.051 164.339 7.812 240.354-23.676 76.011-31.484 140.983-84.804 186.692-153.216 45.713-68.412 70.11-148.838 70.11-231.117-0.115-110.294-43.981-216.038-121.971-294.028s-183.735-121.856-294.029-121.972zM544 862.519v-254.519h96c8.486 0 16.627-3.371 22.626-9.374 6.003-5.999 9.374-14.14 9.374-22.626s-3.371-16.627-9.374-22.626c-5.999-6.003-14.14-9.374-22.626-9.374h-96v-96c0-16.973 6.741-33.253 18.743-45.255s28.284-18.745 45.257-18.745h64c8.486 0 16.627-3.372 22.626-9.373 6.003-6.001 9.374-14.141 9.374-22.627s-3.371-16.626-9.374-22.627c-5.999-6.001-14.14-9.373-22.626-9.373h-64c-33.946 0-66.505 13.486-90.509 37.49s-37.491 56.562-37.491 90.51v96h-96c-8.487 0-16.626 3.371-22.627 9.374-6.001 5.999-9.373 14.14-9.373 22.626s3.372 16.627 9.373 22.626c6.001 6.003 14.141 9.374 22.627 9.374h96v254.519c-90.208-8.235-173.769-50.927-233.302-119.202-59.533-68.271-90.455-156.868-86.333-247.356 4.122-90.49 42.969-175.907 108.463-238.485s152.59-97.499 243.173-97.499c90.586 0 177.681 34.921 243.174 97.499s104.341 147.995 108.463 238.485c4.122 90.487-26.803 179.085-86.336 247.356-59.533 68.275-143.091 110.967-233.301 119.202z"></path>
</svg>