<!-- Generated by IcoMoon.io -->
<svg version="1.1" xmlns="http://www.w3.org/2000/svg" width="1024" height="1024" fill="white" viewBox="0 0 1024 1024">
<path d="M512 320c-37.973 0-75.093 11.261-106.67 32.358-31.574 21.097-56.183 51.084-70.715 86.166-14.532 35.085-18.334 73.69-10.926 110.933s25.694 71.454 52.546 98.308c26.852 26.85 61.064 45.137 98.307 52.544 37.244 7.411 75.849 3.61 110.933-10.923 35.081-14.532 65.067-39.142 86.165-70.716 21.099-31.578 32.358-68.698 32.358-106.671-0.051-50.906-20.297-99.711-56.294-135.706-35.994-35.995-84.8-56.241-135.706-56.294zM512 640c-25.314 0-50.065-7.505-71.113-21.572-21.050-14.063-37.456-34.057-47.144-57.442-9.688-23.39-12.223-49.126-7.284-73.958 4.939-24.828 17.13-47.637 35.031-65.537 17.9-17.901 40.709-30.092 65.537-35.031 24.832-4.939 50.569-2.404 73.958 7.284 23.386 9.688 43.379 26.094 57.442 47.144 14.067 21.047 21.572 45.798 21.572 71.113 0 33.946-13.487 66.505-37.491 90.509s-56.563 37.491-90.509 37.491zM704 96h-384c-59.389 0.064-116.327 23.684-158.322 65.678s-65.615 98.933-65.678 158.322v384c0.064 59.388 23.684 116.326 65.678 158.323 41.995 41.993 98.933 65.613 158.322 65.677h384c59.388-0.064 116.326-23.684 158.323-65.677 41.993-41.997 65.613-98.935 65.677-158.323v-384c-0.064-59.389-23.684-116.327-65.677-158.322-41.997-41.994-98.935-65.615-158.323-65.678zM864 704c0 42.436-16.858 83.132-46.865 113.135-30.003 30.007-70.699 46.865-113.135 46.865h-384c-42.435 0-83.131-16.858-113.137-46.865-30.006-30.003-46.863-70.699-46.863-113.135v-384c0-42.435 16.857-83.131 46.863-113.137s70.703-46.863 113.137-46.863h384c42.436 0 83.132 16.857 113.135 46.863 30.007 30.006 46.865 70.703 46.865 113.137v384zM768 304c0 9.493-2.816 18.774-8.090 26.668s-12.77 14.046-21.542 17.679c-8.768 3.633-18.419 4.584-27.733 2.732-9.31-1.852-17.865-6.423-24.576-13.136s-11.285-15.266-13.137-24.577c-1.852-9.311-0.9-18.962 2.731-27.733 3.635-8.771 9.788-16.268 17.681-21.542s17.173-8.090 26.667-8.090c12.732 0 24.939 5.057 33.941 14.059s14.059 21.211 14.059 33.941z"></path>
</svg>
