<!-- Generated by IcoMoon.io -->
<svg fill="white" version="1.1" xmlns="http://www.w3.org/2000/svg" width="1024" height="1024" viewBox="0 0 1024 1024">
<path d="M947.503 104.753c-4.958-4.281-10.991-7.129-17.446-8.235s-13.090-0.431-19.191 1.955l-810.641 317.24c-11.488 4.467-21.215 12.545-27.715 23.020s-9.422 22.775-8.325 35.051c1.097 12.279 6.152 23.868 14.405 33.024s19.257 15.386 31.355 17.745l210.040 41.242v234.197c-0.041 12.757 3.75 25.233 10.882 35.81s17.276 18.769 29.118 23.509c11.823 4.83 24.826 5.99 37.318 3.328s23.893-9.020 32.723-18.244l101.278-105.041 160.683 140.638c11.593 10.283 26.543 15.974 42.039 16 6.788-0.004 13.538-1.071 19.998-3.157 10.56-3.354 20.058-9.408 27.546-17.57s12.706-18.146 15.138-28.949l162.359-706.322c1.451-6.37 1.143-13.015-0.896-19.223-2.035-6.208-5.722-11.744-10.667-16.017zM702.946 248.753l-358.362 256.638-198.4-38.916 556.762-217.722zM383.984 799.991v-189.918l99.16 86.959-99.16 102.959zM734.106 831.991l-330.722-289.997 476.002-341.162-145.28 631.159z"></path>
</svg>
