<!-- Generated by IcoMoon.io -->
<svg version="1.1" xmlns="http://www.w3.org/2000/svg" width="1560" height="1024"
    viewBox="0 0 1560 1024" fill="white" stroke="white" stroke-width="0.5">    
    <path fill="white" stroke="white" stroke-width="0.5"
        d="M494.555 528.397c1.699 14.271 14.112 21.448 22.704 25.661 0.463 0.251 0.912 0.495 1.35 0.732 4.455 2.405 7.688 4.152 11.021 7.413 1.246 1.221 2.232 2.345 3.371 3.64 0.862 0.98 1.81 2.061 3.022 3.356 2.462 2.627 5.505 5.507 9.436 7.604 8.505 4.54 16.755 2.205 23.196-1.933l0.132 0.156 0.201 0.199c0.839 0.819 1.627 1.923 2.637 3.504 0.146 0.229 0.302 0.478 0.468 0.742 0.8 1.272 1.823 2.899 2.95 4.304 4.908 6.774 12.037 10.948 20.477 11.634l0.245 0.020h0.25c0.359 0 0.696-0.020 0.941-0.038 0.114-0.010 0.228-0.018 0.337-0.028 0.146 0.641 0.292 1.267 0.431 1.875 0.924 3.999 1.693 7.338 2.117 11.071l0.006 0.042c0.512 4.269 0.649 8.471 0.718 12.833 0.012 0.828 0.022 1.67 0.034 2.519 0.042 3.464 0.089 7.084 0.312 10.679 0.047 7.982 2.878 15.834 10.090 21.521 2.608 2.167 5.645 3.683 8.344 4.869 1.293 0.571 2.615 1.109 3.844 1.606l0.263 0.108c1.335 0.543 2.563 1.048 3.732 1.574 5.003 2.247 6.682 3.985 7.115 6.108l0.042 0.186c0.21 0.898 0.408 1.813 0.612 2.745 1.226 5.674 2.586 11.954 7.895 18.303l0.035 0.042c1.753 2.059 3.78 4.196 5.61 6.129 1.062 1.122 2.063 2.173 2.903 3.1 2.541 2.807 4.621 5.454 6.199 8.547l0.040 0.077c5.904 11.166 9.387 23.58 12.933 36.223 1.223 4.361 2.454 8.749 3.796 13.124l0.060 0.188 0.129 0.369-0.228-0.098c-4.203-1.762-8.399-3.19-14.006-3.19-3.215 0-5.711 0.94-7.712 1.964-0.825 0.425-1.625 0.899-2.261 1.275-0.077 0.042-0.151 0.084-0.221 0.125-0.218 0.125-0.424 0.251-0.619 0.362-0.084-0.077-0.171-0.153-0.255-0.23-0.755-0.662-1.81-1.505-3.215-2.222-4.547-2.584-9.706-2.48-13.834-0.913-1.239 0.418-2.388 0.975-3.291 1.435-0.506 0.258-0.894 0.46-1.246 0.648-0.453 0.237-0.846 0.439-1.354 0.69-1.221 0.599-1.716 0.697-1.776 0.717l-0.061-0.007c-0.305-0.035-0.434-0.111-0.461-0.125s-0.045-0.028-0.072-0.070c-0.057-0.091-0.282-0.522-0.164-1.435l0.010-0.091c0.302-2.661-0.307-5.204-1.719-7.307-1.349-2.013-3.207-3.302-4.973-4.068-3.287-1.435-7.46-1.574-10.887 0.049-1.269 0.564-2.514 1.17-3.735 1.825l0.402-0.216-2.168 1.198c-9.805 5.726-17.71 14.468-21.569 25.642-2.628 6.527-3.208 13.493-2.596 20.139 0.173 2.166 0.592 4.256 0.924 5.928l0.007 0.035c0.367 1.832 0.629 3.17 0.731 4.396 0.171 2.041-0.129 2.898-1.199 3.866-1.466 1.247-2.945 2.327-4.621 3.553-0.589 0.425-1.201 0.871-1.847 1.351-2.368 1.755-5.001 3.824-7.378 6.478l-0.18 0.209c-5.218 6.388-7.732 13.34-9.956 19.867l-0.059 0.188c-0.52 1.693-1.006 3.469-1.501 5.266-1.333 4.862-2.722 9.927-4.988 14.273-1.479 2.835-2.99 4.605-4.444 5.524-1.216 0.773-2.816 1.24-5.451 0.55l-0.092-0.021c-8.299-2.034-15.885 4.166-15.957 12.504-0.069 2.32 0.169 4.479 0.686 6.471l1.204 3.365c0.627 1.344 1.395 2.598 2.293 3.769 2.702 3.497 6.304 5.831 9.659 7.572 2.499 1.289 5.283 2.445 7.759 3.476 0.778 0.327 1.523 0.641 2.221 0.933 3.121 1.337 5.558 2.529 7.385 3.901 6.407 5.294 13.511 8.22 21.064 8.31 7.527 0.084 14.842-2.661 21.708-7.53 2.972-1.999 5.674-4.319 8.094-6.444 0.329-0.293 0.653-0.578 0.973-0.857 2.13-1.874 4.040-3.56 6.028-5.050 4.413-3.316 8.406-5.071 13.443-4.5l0.119 0.007c9.607 0.899 18.226 8.032 19.38 16.321l0.017 0.111c1.161 7.398 7.553 10.56 12.784 10.010 2.613-0.279 5.459-1.498 7.45-4.033 2.061-2.633 2.645-5.956 1.939-9.251-4.076-25.043-31.702-41.566-55.975-34.691-8.054 2.299-14.117 7.495-19.016 11.696l-0.154 0.132c-5.273 4.528-9.272 7.892-14.169 9.348l-0.151 0.049c-2.013 0.662-3.188 0.341-4.924-0.731-0.978-0.606-1.939-1.351-3.255-2.368-0.143-0.111-0.295-0.223-0.448-0.341-1.38-1.066-3.071-2.348-5.022-3.49-0.285-0.195-0.582-0.383-0.887-0.557 3.822-3.427 6.957-7.53 9.126-11.752 3.007-5.468 4.896-11.926 6.536-17.54 0.525-1.79 1.023-3.497 1.526-5.057 2.256-7.022 4.815-12.372 9.614-16.050 0.54-0.411 1.112-0.836 1.709-1.282 4.228-3.135 9.619-7.133 12.772-13.242 4.706-8.631 2.591-17.004 1.062-23.057-0.163-0.655-0.322-1.282-0.465-1.881-1.28-6.68 0.245-13.319 4.035-18.481 1.288 1.282 2.704 2.41 4.215 3.372 6.981 4.472 16.306 5.74 24.683 2.18l0.295-0.139c0.527-0.258 1.030-0.536 1.432-0.766 0.267 0.258 0.58 0.55 0.897 0.829 0.384 0.341 1.094 0.94 2.001 1.428 3.073 1.776 8.272 3.95 13.537 2.159 2.41-0.585 4.21-1.769 5.318-2.515 0.161-0.104 0.307-0.202 0.443-0.3 1.040-0.697 1.439-0.968 1.966-1.177l0.357-0.139 0.339-0.181c0.377-0.209 0.743-0.369 2.14 0.153 0.795 0.293 1.677 0.731 2.88 1.351 0.134 0.070 0.272 0.146 0.416 0.216 1.035 0.543 2.309 1.205 3.613 1.769l0.211 0.091c6.57 2.57 15.89 3.574 23.622-0.968l0.059-0.035c5.514-3.323 7.959-8.352 8.475-13.521 0.474-4.751-0.669-9.536-1.839-13.284-1.066-3.525-2.118-7.161-3.183-10.86-4.393-15.186-9.102-31.465-16.002-45.878-3.64-7.715-8.47-14.215-14.387-20.045-0.726-0.839-1.461-1.629-2.108-2.322l-0.040-0.043c-0.743-0.796-1.374-1.473-1.959-2.162-1.115-1.305-1.86-2.421-2.338-3.622-0.495-1.496-0.708-2.984-1.008-5.075-0.042-0.297-0.087-0.606-0.134-0.93-0.355-2.416-0.874-5.641-2.499-8.821l-0.134-0.244c-3.443-6.069-8.851-10.701-14.879-13.384-2.14-1.128-4.763-2.102-6.878-2.883-0.745-0.277-1.429-0.531-2.003-0.759-2.793-1.106-4.384-2.033-5.29-3.047l-0.139-0.155-0.148-0.146c-0.245-0.241-0.31-0.382-0.337-0.447-0.037-0.091-0.107-0.304-0.141-0.782-0.037-0.52-0.024-1.162 0.025-2.159 0.008-0.148 0.017-0.309 0.027-0.478 0.045-0.844 0.104-1.921 0.104-3.002v-15.382l-0.012-0.192c-0.563-9.371-1.707-20.266-4.694-30.203l-0.032-0.103c-1.788-5.601-4.906-9.726-9.417-12.248-4.257-2.38-9.097-2.951-13.659-2.951-1.473 0-2.511-0.523-4.148-2.63-0.743-0.953-1.416-1.98-2.258-3.266-0.191-0.294-0.394-0.603-0.607-0.927-1.038-1.574-2.321-3.464-3.898-5.196-6.363-7.416-17.974-14.004-29.805-8.087-0.961 0.385-1.746 0.88-2.313 1.282-0.173 0.123-0.342 0.247-0.501 0.372-2.868-2.722-6.444-5.599-10.276-7.484-3.586-1.825-7.415-3.222-11.016-4.46-0.924-0.319-1.828-0.623-2.712-0.922-2.705-0.913-5.248-1.772-7.75-2.765-6.576-2.614-11.339-5.606-14.157-10.528l-0.609-1.069-0.963-0.752c-2.259-1.769-5.1-2.918-7.947-2.717-1.358 0.093-3.507 0.573-5.202 2.421-1.746 1.908-2.145 4.309-1.731 6.37z"></path>
    <path fill="white" stroke="white" stroke-width="0.5"
        d="M811.607 735.873l-0.509 6.262 0.46-6.269c0.021 0 0.035 0.007 0.049 0.007v0c-20.536-1.728-40.458 2.299-58.549 10.867-7.363 3.455-15.869 8.819-21.804 15.959-2.821 3.392-5.141 7.321-6.416 11.661l-0.794 3.608c-0.592 4.047-0.244 8.401 1.414 12.992l0.098 0.237c0.878 2.146 2.18 4.117 4.173 5.622 1.93 1.456 4.040 2.118 5.914 2.48l0.397 0.077 0.404 0.028c5.956 0.362 9.766 5.308 9.195 9.731l-0.007 0.091c-0.32 2.8-1.63 4.646-3.734 6.074-2.306 1.567-5.559 2.584-9.195 3.058l-0.056 0.014c-3.030 0.418-6.144 0.571-9.599 0.738h-0.035c-0.571 0.028-1.156 0.056-1.748 0.091-3.992 0.202-8.387 0.481-12.734 1.379-3.922 0.655-7.774 1.937-11.543 3.783l-0.3 0.153c-0.879 0.488-1.883 1.149-2.699 1.686l-0.125 0.084c-0.256 0.167-0.488 0.32-0.691 0.453-0.924 0.599-1.618 1.003-2.172 1.261-5.776-7.272-16.562-5.642-20.66 2.382l-0.161 0.32-0.127 0.327c-0.037 0.104-0.074 0.202-0.114 0.3l-2.844 7.050 0.664-1.567c-1.342 3.218-2.788 6.437-4.322 9.627-0.825-0.85-1.645-1.7-2.462-2.557l1.721 1.79-4.698-4.953-0.040-0.035c-3.771-3.692-9.086-3.894-12.906-2.445-4.072 1.539-8.136 5.67-7.534 11.891 0 0.021 0.002 0.042 0.004 0.063l0.001 0.007 0.414 4.625c1.793 18.725 4.941 36.948 8.532 55.031 1.097 6.081 6.779 7.628 10.184 7.154 3.725-0.522 8.19-3.622 8.19-9.411 0-9.94-0.285-19.874-0.852-29.814 1.060 0.174 2.113 0.216 3.103 0.139 3.183-0.251 7.15-1.846 9.248-5.949l0.064-0.125c0.768-1.505 1.538-3.016 2.309-4.528l2.475-4.89c1.783-3.553 3.543-7.126 5.237-10.714 1.231 0.209 2.504 0.32 3.822 0.32 5.243 0 9.301-2.020 12.387-3.831 1.024-0.599 1.888-1.135 2.661-1.616l0.042-0.021c1.783-1.108 3.065-1.895 4.66-2.473 4.897-1.658 10.038-1.804 16.307-1.985l1.546-0.049c6.653-0.202 14.454-0.592 22.089-4.166l0.209-0.104c12.845-6.618 20.355-21.142 18.286-35.276l-0.028-0.195c-2.034-11.452-9.836-19.679-19.386-23.859 0.892-1.393 2.348-2.926 4.528-4.632 5.12-4.005 12.128-7.119 16.962-8.965 13.117-4.611 26.659-6.625 40.124-5.615 3.448 0.258 6.666-0.864 8.972-3.295 2.187-2.306 3.086-5.287 3.086-7.99 0-5.427-3.762-11.515-11.090-12.093z"></path>
    <path fill="white" stroke="white" stroke-width="0.5"
        d="M811.099 742.135l0.509-6.262c-0.014 0-0.028-0.007-0.049-0.007l-0.46 6.269z"></path>
    <path fill="white" stroke="white" stroke-width="0.5"
         d="M681.192 862.431l-0.885 1.755c0.296-0.585 0.591-1.17 0.885-1.755z"></path>
    <path fill="white" stroke="white" stroke-width="0.5"
        d="M801.799 754.597c1.588 1.7 3.636 2.71 5.879 2.988 0.014 0.139 0.028 0.279 0.042 0.425 0.181 1.853 0.564 3.601 1.156 5.245l2.118 4.228c0.279 0.411 0.571 0.815 0.878 1.212 2.341 2.988 5.413 5.134 8.742 6.764l0.383 0.188 0.411 0.132c0.362 0.118 1.623 0.564 3.128 1.177-1.86 2.55-2.598 5.726-2.076 8.868 0.627 3.776 3.009 7.133 6.541 8.937l3.455 1.184c0.425 0.077 0.864 0.139 1.317 0.181 8.255 0.968 16.001 4.319 24.325 8.526 1.644 0.829 3.33 1.707 5.043 2.591 6.701 3.483 13.904 7.231 21.406 9.752l0.056 0.014c11.912 3.887 23.817 3.824 34.823 3.553 0.885-0.021 1.762-0.042 2.633-0.063 10.254-0.272 19.693-0.515 29.097 1.553 3.713 0.808 7.6 1.902 10.93 3.232-0.195 0.125-0.383 0.251-0.571 0.383-3.197 1.588-6.471 3.469-9.341 5.12-1.156 0.669-2.257 1.303-3.246 1.86l-0.244 0.139c-16.983 10.526-33.437 23.287-47.675 37.777-0.606 0.585-1.275 1.226-1.992 1.909-2.257 2.152-4.946 4.723-7.307 7.412-3.176 3.622-6.381 8.143-7.858 13.556l-0.021 0.098c-1.17 4.563-0.836 9.655 1.275 13.988 2.187 4.507 6.311 8.122 12.128 8.993l0.063 0.014c5.427 0.759 10.665-0.794 14.754-2.152 0.913-0.3 1.769-0.599 2.598-0.878 3.288-1.122 5.956-2.034 8.673-2.389l0.056-0.007c3.128-0.439 5.19 0.272 5.942 1.010 0.871 0.85 1.637 1.944 2.807 3.664l0.118 0.167c1.038 1.519 2.445 3.594 4.284 5.392l0.244 0.237 0.272 0.216c3.044 2.382 7.203 5.106 12.65 5.106 1.93 0 3.72-0.286 5.016-0.495l0.223-0.035c1.219-0.202 1.902-0.32 2.473-0.348l0.111 0.237 0.132 0.237c1.881 3.26 2.981 7.565 3.49 12.532 0.502 4.925 0.383 10.087 0.111 14.845-0.216 3.462-0.697 7.015-1.212 10.867-0.104 0.808-0.216 1.623-0.327 2.459-0.62 4.681-1.212 9.745-1.17 14.768 0.077 10.324 2.856 20.995 13.396 29.313 17.812 14.197 41.914 9.836 58.124-0.724 8.178-5.183 14.907-11.968 21.051-18.167 1.47-1.484 2.912-2.933 4.326-4.319l0.153-0.153c4.611-4.834 9.16-9.035 13.827-13.347 3.163-2.912 6.374-5.879 9.697-9.125 4.451-3.859 3.922-9.62 1.853-13.089-2.173-3.643-6.938-6.541-12.413-4.605-10.456 3.441-18.467 10.052-25.363 16.941-2.759 2.759-5.44 5.663-8.018 8.464-0.634 0.683-1.261 1.365-1.881 2.034-3.197 3.448-6.29 6.687-9.523 9.606-5.273 4.66-12.964 9.327-20.445 11.069-7.3 1.7-13.41 0.509-17.805-4.918l-0.021-0.021c-2.020-2.473-2.87-5.789-2.87-10.296 0-3.379 0.439-6.687 0.92-10.282 0.181-1.4 0.376-2.842 0.55-4.354 1.707-10.108 2.327-20.013 0.536-30.609-1.073-7.885-2.87-19.637-10.498-27.78l-0.188-0.195c-3.218-3.142-7.732-5.294-12.184-6.019l-0.327-0.049c-1.978-0.209-3.796-0.035-5.218 0.16-0.599 0.084-1.198 0.181-1.707 0.265-0.091 0.014-0.174 0.028-0.258 0.042-0.599 0.098-1.080 0.167-1.519 0.223-0.864 0.098-1.247 0.063-1.4 0.035-0.822-1.038-1.588-2.111-2.459-3.316l-0.042-0.063c-0.94-1.317-2.013-2.814-3.246-4.326l-0.223-0.272-0.244-0.244c-3.88-3.796-8.951-5.775-13.187-6.959l-0.195-0.056-0.202-0.042c-4.228-0.885-8.401-0.954-12.427-0.55 4.758-4.813 9.704-9.543 14.649-14.009 14.503-12.079 30.692-22.124 48.135-31.194l0.056-0.035c3.246-1.728 7.76-4.577 10.637-8.554 1.505-2.083 2.8-4.8 2.884-8.046 0.091-3.33-1.108-6.423-3.218-9.125-3.497-4.535-8.986-7.621-13.946-9.759-5.106-2.201-10.547-3.783-14.789-4.89-11.64-3.406-23.831-5.106-36-5.106-3.211 0-6.395 0.146-9.439 0.286-0.195 0.014-0.39 0.021-0.585 0.028-2.87 0.139-5.608 0.265-8.338 0.3-5.803 0.063-11.18-0.334-16.412-1.964l-0.104-0.035c-7.941-2.306-15.109-5.984-22.835-9.947-1.574-0.808-3.176-1.63-4.813-2.452-4.173-2.104-8.526-4.2-13.131-5.977 0.077-0.85 0.098-1.707 0.056-2.57 5.071 0.662 10.129 1.275 15.116 1.776 6.36 0.627 13.765-0.334 19.177-4.256 2.835-2.055 5.176-4.974 6.255-8.805 1.073-3.796 0.745-7.892-0.676-12.058-5.183-15.214-21.497-20.508-34.119-20.508-12.964 0-26.074 1.923-38.647 3.776-4.075 0.599-8.094 1.184-12.037 1.7l-1.163 0.153-1.031 0.578c-4.827 2.696-6.221 8.359-5.886 12.232 0.188 2.152 0.954 4.737 2.891 6.82z"></path>
    <path fill="white" stroke="white" stroke-width="0.5"
        d="M1077.659 968.725l-0.509 0.3c-3.852 2.264-8.617 1.539-11.626-1.602-3.253-3.392-3.434-8.255-1.533-12.434l0.23-0.495 0.3-0.453c5.928-8.701 14.064-10.867 21.295-11.626 1.937-0.202 4.2-0.327 6.297-0.446l0.223-0.014c1.296-0.070 2.522-0.139 3.553-0.216 3.121-0.237 5.831-0.627 8.276-1.449 4.932-1.832 8.819-5.858 13.681-11.452 0.334-0.376 0.669-0.766 1.010-1.163l0.007-0.007c4.326-4.995 9.606-11.097 16.711-14.726l0.070-0.028c-3.525-1.337-6.764-3.183-9.711-5.28-6.506-4.625-11.912-10.7-16.168-15.973-10.498-12.567-18-26.742-23.712-41.26-3.497-8.568-5.858-17.206-7.043-26.422-0.098-0.627-0.209-1.289-0.32-1.978l-0.028-0.167-0.007-0.014c-1.038-6.276-2.438-14.747-0.669-22.354 2.111-10.129 9.613-14.886 15.36-18.53l0.007-0.007c0.599-0.383 1.184-0.752 1.741-1.115l0.188-0.118c3.518-2.125 7.050-4.375 10.665-6.694l0.035-0.021 0.167-0.104c3.497-2.236 7.070-4.521 10.658-6.687 7.481-4.876 14.97-9.627 22.41-14.343 7.475-4.744 14.921-9.467 22.354-14.315 1.101-0.745 2.243-1.546 3.406-2.375l0.286-0.195c5.74-4.047 12.309-8.673 19.978-11.18l0.251-0.077c0.139-0.035 0.272-0.070 0.411-0.111h0.014c3.504-0.982 8.276-2.32 13.277-1.735 2.71 0.049 5.162 0.543 7.029 0.92l0.056 0.007c2.166 0.439 3.49 0.697 4.695 0.697 2.152 0 4.563-0.815 7.934-2.396 0.606-0.293 1.275-0.613 1.971-0.954l0.091-0.049c2.71-1.324 6.026-2.947 9.307-3.936l0.258-0.077 0.251-0.049c8.248-1.735 14.225-0.32 20.187 1.094l0.014 0.007c0.711 0.167 1.421 0.334 2.139 0.495 0.954 0.125 1.839-0.125 3.197-1.261 1.226-1.010 2.187-2.139 3.434-3.608l0.014-0.021c0.599-0.704 1.261-1.484 2.055-2.368l0.139-0.16 0.146-0.146 0.3-0.286c3.685-3.608 8.269-8.101 14.308-10.728l0.209-0.091 0.216-0.077c4.040-1.414 8.213-1.95 11.675-2.403l0.028-0.003c0.488-0.063 0.961-0.126 1.414-0.186 3.922-0.531 7.057-1.109 9.954-2.506 2.731-1.466 5.392-3.195 8.303-5.096l0.104-0.065 0.007-0.005c2.842-1.854 5.935-3.875 9.223-5.631l0.028-0.015c8.143-4.289 16.475-6.202 25.454-5.573l0.118 0.008c1.156 0.104 2.508 0.284 3.803 0.456l0.16 0.022c0.529 0.070 1.038 0.138 1.519 0.201 1.874 0.237 3.671 0.423 5.371 0.453 3.636 0.061 5.531-0.636 6.478-1.564 0.23-0.226 0.62-0.772 0.885-2.526 0.125-0.862 0.202-1.81 0.279-2.987 0.007-0.108 0.014-0.218 0.021-0.334 0.070-1.026 0.153-2.268 0.3-3.457l0.014-0.114 1.665-11.392 0.028-0.179 0.035-0.178c1.714-8.376 4.040-16.973 7.6-25.115l0.014-0.031v0.001c3.016-7.075 7.69-14.642 16.273-18.842l0.265-0.128 0.272-0.103c2.013-0.759 3.957-1.352 5.691-1.872l0.564-0.169c1.546-0.463 2.884-0.864 4.18-1.322 2.793-0.991 4.932-2.1 6.82-3.947l0.251-0.244c1.491-1.307 2.786-2.506 4.166-3.794l0.258-0.241c1.087-1.015 2.229-2.088 3.587-3.303 2.856-2.569 6.067-5.243 9.599-7.351 3.567-2.124 7.656-3.796 12.267-4.13 4.681-0.341 9.474 0.731 14.301 3.434l0.209 0.118c2.334 1.426 4.068 3.59 4.765 6.275 0.676 2.591 0.237 5.105-0.711 7.114-1.818 3.844-6.109 7.011-11.32 6.375l-0.244-0.030c-2.577-0.423-5.155 0.488-8.331 2.971-2.278 1.783-4.138 3.738-6.186 5.885-1.080 1.134-2.215 2.32-3.483 3.562l-0.195 0.191c-7.544 6.767-14.538 9.812-23.273 12.662-2.94 0.958-4.89 2.986-6.478 6.194-1.539 3.11-2.452 6.719-3.483 10.794-0.111 0.458-0.23 0.92-0.355 1.39l-0.042 0.164c-2.041 7.202-2.772 13.961-3.567 21.246l-0.035 0.359c-0.202 1.836-0.404 3.705-0.634 5.624l-0.028 0.216c-1.748 11.293-8.171 18.055-16.482 21.462-7.774 3.197-16.955 3.379-24.938 2.821-4.423-0.237-7.739 0.139-10.769 0.996-3.065 0.878-6.123 2.327-10.024 4.611-0.042 0.021-0.077 0.049-0.118 0.070l-0.014-0.021-53.269 20.097c-1.108 1.163-2.278 2.271-3.594 3.239-4.988 3.796-10.533 5.963-16.628 4.883-0.293-0.049-0.578-0.104-0.878-0.167l-17.269 6.52c-0.676 0.3-1.379 0.62-2.111 0.961-5.183 2.389-11.891 5.475-19.101 5.475-2.584 0-4.918-0.237-6.952-0.481-0.578-0.070-1.108-0.139-1.616-0.202-1.386-0.174-11.278 1.205-12.511 1.115l0.084-0.042h-12.539c-9.585 5.022-8.84 5.496-17.805 11.571-5.559 3.755-4.577 3.553-10.296 7.084l-3.288 9.314-0.028 0.014c-3.713 2.334-7.321 4.688-10.951 7.050l-0.32 0.216-0.132 0.084c-3.678 2.396-7.391 4.827-11.257 7.252-2.417 1.574-5.218 3.156-7.844 4.625-1.163 0.655-2.292 1.289-3.337 1.895-3.671 2.125-6.694 4.11-8.875 6.242-0.021 0.028-0.286 0.383-0.46 1.512-0.202 1.303-0.202 3.051 0.021 5.204 0.3 2.995 0.864 5.754 1.407 8.422 0.279 1.365 0.55 2.703 0.78 4.033 1.665 7.043 3.232 13.598 5.789 20.104l0.028 0.070c5.238 13.855 13.646 27.223 24.123 37.986l0.146 0.16c1.992 2.187 4.681 4.66 7.44 6.248 2.877 1.658 4.723 1.748 5.817 1.337l0.258-0.091c1.254-0.411 2.424-1.505 4.667-4.479 0.167-0.23 0.348-0.474 0.543-0.731 1.825-2.459 4.611-6.214 8.652-8.408 7.286-4.228 17.805-4.556 25.126 1.651 1.149 0.871 2.104 1.832 2.891 2.8 1.414-1.045 2.863-1.923 4.18-2.647 3.755-2.069 7.711-3.553 10.407-4.437 7.043-2.494 14.643-3.1 22.166-1.902 3.399 0.355 7.21 1.386 10.519 3.476 3.476 2.201 6.576 5.733 7.523 10.818 0.892 4.786-0.307 8.728-2.083 11.919-1.205 2.159-2.919 4.312-4.221 5.949l-0.021 0.021c-0.362 0.46-0.697 0.878-0.975 1.24l-0.16 0.209c-1.317 1.567-1.818 3.323-2.271 6.416-0.049 0.348-0.104 0.738-0.16 1.156-0.369 2.793-0.906 6.827-2.828 10.651-2.961 6.416-8.554 10.985-13.019 14.266l-0.167 0.111c-6.402 4.389-13.291 6.785-20.306 8.499l-0.188 0.049-0.195 0.035c-0.773 0.139-1.707 0.32-2.731 0.529-2.236 0.453-4.904 0.989-7.293 1.282-3.727 0.453-8.15 0.557-12.49-0.989l-0.111-0.035c-4.368-1.651-7.802-4.639-10.275-6.792-0.237-0.202-0.46-0.397-0.676-0.585l-0.111-0.098c-2.828-2.431-4.688-3.741-6.882-4.2l-0.195-0.042c-4.375-1.073-9.202 0.23-13.807 3.351-3.344 2.557-6.186 5.51-9.362 8.812l-0.167 0.167c-1.024 1.066-2.083 2.166-3.211 3.302-4.472 4.521-9.738 9.314-16.697 12.246-7.565 3.344-15.506 3.211-22.326 2.654-0.759-0.063-1.539-0.146-2.299-0.23l-12.999 1.275z"></path>
    <path
        d="M1345.306 704.031c0.014 0 0.028 0 0.049 0v0l0.327-6.269-0.425 6.269c0.014 0 0.035 0 0.049 0z"></path>   
    <path fill="white" stroke="white" stroke-width="0.5"
        d="M1518.919 489.089c4.611-0.287 10.4-1.021 15.423-3.436 2.334-1.122 4.549-2.635 6.395-4.613l1.776-2.217c1.498-2.192 2.605-4.832 3.114-7.979 0.432-2.554 0.307-5.588-1.031-8.356-1.442-2.976-4.131-5.256-7.781-5.912-2.306-0.5-4.535-0.986-6.715-1.514l-1.721-3.356c2.382-1.242 4.737-2.765 6.896-4.827 6.945-5.636 12.044-13.155 14.615-21.923 1.741-5.822 1.505-11.033 0.899-15.664-0.258-1.961-0.543-3.622-0.801-5.179-0.425-2.478-0.794-4.686-0.954-7.391l-0.007-0.025c-0.070-1.103 0.125-2.38 0.641-4.077 0.355-1.161 0.704-2.097 1.108-3.185 0.286-0.767 0.599-1.606 0.968-2.655 1.505-4.346 3.211-10.757-0.864-17.408l-0.091-0.141c-5.921-9.113-17.025-10.091-24.757-7.421-2.591 0.757-4.751 1.988-6.276 2.863l-0.174 0.1c-1.748 0.998-2.779 1.551-3.88 1.861l-0.23 0.065-0.23 0.083c-0.258 0.095-0.439 0.141-0.55 0.161-0.098-0.070-0.265-0.201-0.509-0.435-0.411-0.389-0.878-0.91-1.533-1.677-0.411-0.5-0.829-1.025-1.261-1.563-3.803-4.744-8.568-10.687-16.119-13.768-4.124-1.679-8.122-2.297-11.668-2.66-1.393-0.141-2.626-0.241-3.783-0.334-2.013-0.161-3.796-0.304-5.747-0.621-0.613-0.116-1.247-0.217-1.741-0.297-0.153-0.023-0.286-0.045-0.411-0.063-0.641-0.106-1.038-0.184-1.337-0.267-0.028-0.065-0.084-0.148-0.118-0.244-0.181-0.45-0.369-1.036-0.592-1.813-0.077-0.258-0.16-0.575-0.258-0.927-0.355-1.31-0.85-3.135-1.428-4.543l-0.132-0.337-0.181-0.319c-2.661-4.844-6.646-8.105-11.724-8.851-4.667-0.684-9.125 0.935-12.797 3.182-0.543 0.272-1.031 0.317-2.048-0.045-1.254-0.444-2.473-1.199-4.333-2.35-0.39-0.239-0.801-0.492-1.24-0.764-4.807-2.936-10.122-5.249-14.977-7.363l-0.070-0.027c-9.063-4.427-18.739-8.331-28.484-11.144-0.16-0.050-0.32-0.103-0.481-0.156-3.107-1.021-7.607-2.493-12.037-2.81-4.841-0.345-10.811 0.623-15.060 5.99-0.662 0.767-1.052 1.531-1.247 1.918-0.279 0.578-0.509 1.169-0.69 1.659-0.104 0.302-0.216 0.618-0.32 0.94-0.961-0.538-1.937-1.121-2.87-1.682-0.077-0.045-0.153-0.091-0.237-0.138-0.766-0.463-1.672-1.006-2.41-1.393-7.057-4.474-13.208-9.975-18.982-16.126-2.807-3.228-5.002-6.996-7.509-11.426-0.111-0.196-0.223-0.392-0.334-0.588-2.334-4.133-4.988-8.821-8.499-13.148-8.074-10.668-19.742-11.609-29.592-11.040l-0.272 0.022c-11.153 1.147-22.298 4.017-32.859 8.613-5.343 2.325-10.059 5.198-14.378 7.843-0.146 0.070-0.293 0.146-0.446 0.221-0.78 0.39-1.714 0.853-2.668 1.272-0.453-1.34-1.149-2.582-2.069-3.677-1.93-2.29-4.507-3.525-6.945-4.012-3.88-0.779-8.659 0.134-12.065 3.351l-2.863-0.8-0.021 0.274c-1.435-0.749-2.752-1.629-3.441-2.132-0.104-0.078-0.202-0.155-0.307-0.236-4.758-3.62-10.581-8.057-17.861-10l-0.23-0.058c-4.89-1.104-9.007-0.508-12.553 0.483-1.588 0.444-3.121 0.988-4.444 1.455-0.091 0.033-0.174 0.063-0.265 0.093-1.449 0.513-2.696 0.945-3.957 1.282-4.354 1.164-9.174 0.405-13.256-2.386l-0.111-0.078c-3.392-2.217-5.844-6.043-6.68-10.478-0.341-2.051-0.111-4.087 0.446-6.707 0.118-0.553 0.265-1.189 0.432-1.883 0.515-2.191 1.17-4.965 1.414-7.606v-0.026c0.711-7.984-2.006-14.849-4.451-20.47-0.355-0.809-0.704-1.591-1.038-2.353-2.166-4.889-3.929-8.875-4.521-13.304-0.529-3.913-2.654-7.074-5.865-8.789-2.974-1.586-6.262-1.634-8.986-0.939-5.259 1.343-11.278 6.51-10.163 14.686l0.007 0.060c0.69 4.712 2.382 8.897 4.047 12.524 0.648 1.4 1.254 2.658 1.832 3.847 1.038 2.139 1.971 4.054 2.807 6.193l0.098 0.224c1.010 2.31 1.094 4.494 0.648 7.307-0.223 1.438-0.564 2.901-0.975 4.673l-0.042 0.203c-0.418 1.785-0.892 3.851-1.212 6.043l-0.028 0.219-0.021 0.222c-1.324 17.471 9.209 34.097 25.53 40.505 7.823 3.182 16.147 3.753 24.214 2.544 2.724-0.387 5.294-1.468 7.057-2.21 0.084-0.036 0.167-0.068 0.244-0.101 1.825-0.764 2.961-1.209 3.88-1.407 1.644 0.125 2.981 1.008 5.768 2.85 0.439 0.289 0.913 0.603 1.428 0.94 5.545 3.982 12.824 8.122 20.424 9.279 2.403 0.367 4.897 0.445 7.412 0.093 2.772 2.227 5.977 3.783 9.105 4.549 6.102 1.491 11.633 0.295 16.293-1.659 4.103-1.722 7.899-4.211 10.923-6.194 0.286-0.186 0.564-0.367 0.829-0.543 8.631-5.457 18.307-8.959 28.554-10.473 0.627-0.075 1.212-0.153 1.783-0.228 1.707-0.226 3.183-0.422 4.702-0.465 2.006-0.055 3.051 0.224 3.567 0.513l0.3 0.155c0.613 0.3 1.358 0.965 2.327 2.66 0.481 0.835 0.94 1.78 1.47 2.909 0.098 0.206 0.195 0.422 0.3 0.649 0.425 0.92 0.913 1.968 1.407 2.951l0.125 0.226c9.404 16.679 22.911 30.475 39.337 40.246 3.1 1.931 7.384 4.45 12.121 5.91 4.8 1.486 10.693 2.072 16.475-0.759 4.674-2.286 6.813-6.519 7.913-9.18 0.209 0.080 0.432 0.168 0.676 0.264 0.697 0.286 1.414 0.605 2.208 0.96l0.063 0.030c0.773 0.345 1.665 0.745 2.515 1.076l0.16 0.060c10.289 3.708 20.055 7.957 29.87 12.758 1.637 0.799 3.358 1.81 5.406 3.007l0.209 0.125c2.055 1.202 4.389 2.561 6.827 3.736 4.827 2.322 10.951 4.371 17.673 2.823l0.265-0.061 0.195-0.063c0.829 1.654 1.769 3.14 2.71 4.364l0.118 0.153c6.102 7.461 14.942 9.271 22.013 9.846l0.035 0.003c0.502 0.038 0.982 0.073 1.456 0.108 7.182 0.528 11.306 0.832 14.663 4.118 0.933 0.917 1.832 2.003 2.863 3.326 0.251 0.324 0.522 0.676 0.808 1.048 0.787 1.026 1.679 2.187 2.563 3.243 2.508 2.993 5.907 6.322 11.090 7.934 6.228 2.232 11.389 1.156 15.701-0.498 1.122-0.433 2.292-0.945 3.379-1.438-0.829 3.879-1.038 7.722-0.564 11.875l0.035 0.247c0.202 1.335 0.411 2.594 0.599 3.788 1.539 9.482 2.403 14.804-2.626 21.136l-0.070 0.088c-2.403 3.135-5.677 5.226-9.759 6.556l-0.209 0.073c-1.261 0.463-2.201 0.731-3.281 1.043-0.85 0.244-1.776 0.513-3.023 0.917-2.285 0.747-5.029 1.82-7.537 3.831-4.535 3.376-7.663 8.462-8.471 13.979-0.836 5.739 0.892 11.848 5.907 16.345l0.223 0.191c0.697 0.568 1.421 1.081 2.166 1.546-1.853 1.413-3.518 3.075-4.904 4.972-6.088 8.145-6.778 17.665-5.684 26.061l1.317 6.956-0.362-1.571c0 0 0.223 0.998 0.334 1.483l0.028 0.088c1.219 4.784 4.925 7.61 8.701 8.535 2.18 0.533 4.549 0.49 6.806-0.192 0.084 0.862 0.091 1.914 0.091 3.372v0.196c0 1.581 0 3.728 0.341 5.835 0.014 0.194 0.042 0.392 0.063 0.598 0.474 4.316 1.233 11.206 5.545 16.42 0.265 0.382 0.522 0.681 0.69 0.875l-0.035 0.032-0.272 0.274-0.244 0.304c-4.772 6.001-6.186 13.703-7.189 19.201-0.063 0.322-0.118 0.636-0.174 0.942l-0.056 0.284-0.028 0.289c-0.557 6.033-1.073 11.272-2.466 15.917-0.968 2.569-1.999 3.446-2.891 3.919-1.205 0.636-3.156 1.050-6.771 1.050-2.71 0-5.433-0.015-8.157-0.030-13.73-0.078-27.676-0.156-41.97 1.709l-0.564 0.073-0.543 0.178c-4.026 1.312-7.488 4.386-8.673 8.366-0.613 2.066-0.704 4.876 0.933 7.443 1.644 2.582 4.263 3.693 6.59 3.997 11.438 1.674 22.263 2.224 33.534 2.224 2.152 0 4.479 0.126 7.057 0.279 0.279 0.015 0.564 0.033 0.857 0.050 2.278 0.139 4.723 0.284 7.175 0.347 5.475 0.141 11.626-0.103 17.401-2.097l0.167-0.060c11.118-4.211 15.715-12.723 17.896-21.264 1.052-4.113 1.595-8.401 2.062-12.223l0.056-0.43c0.453-3.688 0.85-6.918 1.519-9.851 0.286-0.8 0.808-1.747 1.7-2.984 0.648-0.9 1.261-1.661 1.971-2.544 0.46-0.568 0.961-1.189 1.539-1.93 2.487-3.205 5.991-8.135 5.538-14.771l-0.007-0.186-0.028-0.188c-0.418-3.258-1.539-5.85-3.26-8.019-1.4-1.765-3.135-3.114-4.34-4.050-0.084-0.065-0.167-0.13-0.244-0.194-0.724-0.598-0.982-1.076-1.149-1.588-0.237-0.714-0.376-1.792-0.376-3.786 0-0.256 0-0.518 0-0.789 0.014-7.474 0.035-19.739-10.31-27.076-1.902-1.466-4.026-2.584-6.248-3.326 0.021-0.055 0.035-0.111 0.063-0.163l0.021-0.061c0.355-0.961 0.669-1.42 0.857-1.634 0.16-0.186 0.327-0.316 0.606-0.447 0.836-0.397 2.18-0.633 5.399-0.922zM1518.919 489.089c-0.028 0.002-0.063 0.005-0.091 0.005l-0.369-6.272zM1518.919 489.089c0.028-0.003 0.056-0.006 0.077-0.008l-0.536-6.26zM1518.46 482.822c-6.102 0.543-9.982 1.084-12.197 7.052l26.896-10.689c-4.166 2.509-9.697 3.331-14.698 3.638z"></path>
    <path fill="white" stroke="white" stroke-width="0.5"
        d="M1137.88 206.75l0.132-0.209 0.111-0.218c2.626-5.146 4.298-11.048 2.752-17.867l-0.042-0.166c-0.808-3.165-2.361-6.095-4.43-8.792-1.498-1.955-3.351-3.241-4.514-4.024-0.341-0.228-0.62-0.417-0.864-0.575-0.3-0.201-0.522-0.352-0.704-0.476-0.028-0.301-0.049-0.533-0.070-0.839-0.014-0.233-0.035-0.51-0.063-0.893-0.063-0.699-0.16-1.756-0.439-2.846-0.787-3.087-2.403-6.347-5.022-8.914-5.601-5.478-13.173-6.725-19.317-6.071-3.762 0.342-7.070 1.342-9.968 2.335-0.892 0.305-1.721 0.6-2.515 0.882-1.93 0.686-3.65 1.299-5.594 1.822-0.885 0.201-1.985 0.046-4.444-1.422-0.808-0.483-1.407-0.876-2.097-1.325-0.571-0.373-1.198-0.785-2.055-1.318-1.553-0.967-3.448-2.056-5.601-2.821-7.725-2.749-15.889-3.020-23.663-2.267 0.641-11.984-1.045-23.94-4.904-35.207 3.441-1.61 6.792-3.523 9.808-5.826 7.168-5.484 12.727-13.499 12.365-24.753l-0.014-0.296c-0.773-9.837-7.036-16.19-13.242-20.442l-0.021-0.018c-6.785-4.598-11.306-8.718-14.496-15.413l-0.028-0.063c-1.449-2.952-2.772-6.145-4.207-9.63-0.104-0.253-0.209-0.508-0.313-0.763-1.533-3.702-3.197-7.685-5.162-11.534-3.943-7.715-9.383-15.477-18.411-20.396-7.168-3.997-15.736-5.125-23.489-3.477-2.856 0.609-5.677 1.615-8.296 3.039-3.211-1.645-6.701-2.614-10.17-3.056-8.206-1.043-16.934 0.708-23.865 3.785-2.41 1.035-4.786 2.266-6.938 3.385l-0.111 0.058c-2.264 1.179-4.319 2.242-6.367 3.122-4.075 1.754-7.377 2.435-10.56 1.744l-0.125-0.026c-2.856-0.559-5.496-1.551-8.645-2.732-0.745-0.281-1.526-0.573-2.341-0.873-3.971-1.457-8.714-3.019-14.023-3.019-6.186 0-11.118 1.866-15.081 5.034-3.783 3.024-6.36 6.978-8.366 10.523-0.933 1.637-1.686 3.069-2.396 4.41-1.024 1.938-1.95 3.686-3.149 5.586-1.79 2.847-3.581 4.89-5.726 6.225-5.252 2.973-11.048 3.665-16.245 1.745-1.762-0.742-3.476-1.55-5.315-2.414l-0.042-0.019c-1.818-0.858-3.769-1.775-5.768-2.611-4.089-1.704-8.673-3.183-14.043-3.511l-0.181-0.011h-0.188c-8.638 0-17.178 3.036-24.137 5.507-0.78 0.277-1.533 0.546-2.271 0.803l-0.132 0.050c-1.017 0.381-1.985 0.76-2.926 1.127-2.8 1.099-5.343 2.091-7.969 2.713-3.309 0.782-5.587 0.642-7.3-0.225-2.459-1.401-5.183-1.98-7.983-1.569-2.745 0.403-5.106 1.687-7.050 3.21-27.446 21.6-36.62 56.147-38.947 87.538-0.293-0.476-0.599-0.949-0.906-1.418l-0.091-0.136c-10.512-15.129-28.941-24.861-48.522-15.72-1.436 0.585-3.069 1.466-4.324 2.145-0.295 0.16-0.57 0.307-0.815 0.437-0.919 0.487-1.6 0.818-2.093 1.033-0.178-0.107-0.417-0.256-0.726-0.467-0.119-0.082-0.26-0.184-0.426-0.302-1.058-0.752-3.025-2.151-5.283-2.949-8.183-3.413-15.66 0.573-20.346 5.156-0.434 0.425-0.813 0.887-1.108 1.276-0.27-1.037-0.58-2.088-0.938-3.145l-0.082-0.225c-6.585-17.188-26.894-21.801-41.28-16.055-7.688 3.016-13.251 8.262-17.545 13.896-4.537-4.779-10.629-7.702-16.799-8.688-8.354-1.335-17.671 0.76-24.313 7.58-2.782 2.757-4.035 6.289-3.757 9.84 0.265 3.39 1.877 6.336 3.967 8.441 4.178 4.204 11.908 6.327 18.231 0.653l0.199-0.185c0.166-0.162 0.699-0.477 1.647-0.421 0.882 0.052 1.382 0.382 1.528 0.511 0.639 0.869 0.86 1.882 1.432 4.525 0.072 0.321 0.146 0.667 0.228 1.039 0.674 3.085 1.919 7.957 6.806 11.304 9.295 6.368 19.404 1.174 24.361-5.061l0.215-0.271 0.183-0.293c1.296-2.058 2.35-4.136 3.267-6.020 0.272-0.557 0.527-1.085 0.77-1.594 0.624-1.297 1.186-2.462 1.808-3.638 1.662-3.129 3.289-5.356 5.679-6.975l0.191-0.134c1.122-0.824 3.069-1.547 5.094-1.59 1.861-0.039 3.076 0.485 3.775 1.162 0.758 1.052 1.246 2.661 1.778 5.718 0.054 0.325 0.114 0.678 0.176 1.055 0.443 2.696 1.080 6.572 2.779 9.9l0.104 0.199 0.114 0.192c2.343 3.877 5.365 6.733 9.015 8.329 3.643 1.592 7.392 1.703 10.823 0.984 6.545-1.373 12.43-5.842 16.524-10.418 0.178-0.182 0.349-0.366 0.51-0.546 9.226 5.231 18.83 1.31 24.745-1.104 0.099-0.041 0.199-0.082 0.297-0.122l0.057-0.023c3.989-1.674 6.585-2.616 8.861-2.798 1.855-0.148 3.707 0.198 6.15 2.038l0.178 0.128c5.877 4.109 9.269 11.472 11.373 19.729l0.049 0.162c0.55 1.948 0.933 4.287 1.421 7.233l0.049 0.302c0.481 2.913 1.052 6.329 2.006 9.601 1.937 6.624 5.907 14.087 15.353 16.51 4.96 1.3 9.599 0.757 13.43-1.882 3.594-2.478 5.622-6.23 6.82-9.614 2.355-6.659 2.438-14.76 2.438-19.006 0-17.712 0.16-36.971 4.082-54.634 3.469-15.666 9.787-29.569 21.177-39.813 8.094 1.641 15.52 0.048 22.235-2.18 2.55-0.844 5.357-1.916 8.011-2.93 1.686-0.645 3.316-1.266 4.772-1.79 4.089-1.469 7.934-2.609 11.814-3.075 3.337-0.331 6.618 0.902 11.334 3.21 0.46 0.227 0.947 0.468 1.449 0.718 4.089 2.041 9.383 4.68 15.262 5.295 11.013 1.258 21.804-1.923 30.532-7.417l0.16-0.104c9.355-6.295 13.166-14.449 16.788-22.229 0.481-1.021 0.954-2.035 1.435-3.038l0.035-0.077c0.78-1.681 1.407-1.879 1.595-1.938 0.488-0.155 1.546-0.241 3.629 0.316 2.027 0.544 4.242 1.465 6.924 2.581l0.091 0.040c2.508 1.042 5.559 2.313 8.499 2.991 14.050 3.27 25.886-2.742 35.701-8.072 3.636-1.64 8.081-3.52 12.037-4.111 0.404-0.061 0.787-0.106 1.135-0.136h2.041c1.63 0.189 2.285 0.88 2.689 1.623l0.104 0.179c2.417 4.138 6.834 6.011 10.679 6.129 3.971 0.121 8.763-1.615 11.229-6.44 0.411-0.81 0.836-1.241 1.219-1.491h2.173l-0.237-0.482c0.46-0.003 0.996 0.044 1.609 0.165 3.058 0.599 6.478 2.683 8.478 4.812 3.1 3.482 5.252 7.9 7.405 13.235 0.495 1.216 0.996 2.508 1.512 3.847 1.609 4.157 3.392 8.766 5.615 12.939 2.612 5.674 6.423 10.569 10.665 14.718l0.167 0.166 0.181 0.153c2.111 1.772 4.472 3.255 6.388 4.459 0.202 0.127 0.404 0.252 0.592 0.373 2.194 1.386 3.741 2.424 4.862 3.528l0.153 0.145 0.153 0.134c0.327 0.278 0.39 0.456 0.404 0.504 0.028 0.070 0.070 0.24 0.028 0.577-0.111 0.77-0.669 2-1.846 3.154-1.324 1.298-3.316 2.417-6.067 3.434-0.307 0.114-0.62 0.224-0.926 0.331l2.647-1.024-5.531 1.918c-1.163 0.332-2.361 0.649-3.601 0.976-0.488 0.128-0.982 0.258-1.484 0.392-4.361 1.092-7.266 4.185-8.533 7.766-1.198 3.386-0.954 7.22 0.655 10.399 1.177 2.39 2.215 4.803 3.107 7.238l1.679 5.181-0.634-2.125c3.302 10.448 4.040 21.251 2.487 32.18l-1.066 5.929 0.307-1.482c-0.098 0.494-0.202 0.988-0.307 1.482-1.978 8.855 5.949 18.139 15.451 15.033 0.404-0.086 0.794-0.172 1.184-0.258 0.077-0.017 0.153-0.033 0.23-0.050l7.112-1.482-2.396 0.472c7.642-1.569 14.301-2.444 20.578-0.472 1.379 0.603 2.752 1.418 4.521 2.483l0.139 0.084c1.714 1.032 3.845 2.315 6.2 3.303l0.258 0.102c5.726 2.1 11.257 2.013 16.154 1.414l0.355-0.043 0.355-0.086c2.612-0.64 5.016-1.581 7.015-2.362l0.132-0.054c2.111-0.824 3.789-1.475 5.524-1.905 0.132-0.029 0.258-0.054 0.376-0.077 0.864 5.39 3.232 9.874 7.677 13.495l0.174 0.146 0.188 0.132c0.954 0.667 2.090 1.327 2.919 1.813 0.23 0.132 0.432 0.251 0.599 0.353 0.481 0.286 0.836 0.513 1.108 0.697-3.218 6.106-1.526 12.567 3.176 15.896 2.201 1.561 5.036 2.371 7.955 1.891 3.044-0.5 5.698-2.331 7.426-5.146z"></path>
    <path fill="white" stroke="white" stroke-width="0.5"
        d="M558.382 120.378c-0.614-6.597-6.060-9.846-10.278-10.758-0.119-0.265-0.243-0.522-0.369-0.768-1.223-2.396-2.89-5.142-5.798-7.122-4.364-3.318-9.436-3.984-13.986-3.242l-0.297 0.049-0.295 0.078c-2.638 0.704-5.236 2.373-7.056 3.583-0.694 0.462-1.335 0.897-1.939 1.31-1.31 0.891-2.462 1.676-3.673 2.383-0.072 0.042-0.143 0.083-0.213 0.123l-1.847 0.516c-2.959-4.32-8.237-5.351-11.848-4.969-3.45 0.365-8.255 2.403-10.060 7.231-7.462-4.058-15.471-3.647-22.446-2.738l-0.057 0.008c-3.789 0.529-5.315 0.085-5.904-0.378-0.552-0.432-1.204-1.203-2.187-2.681-0.176-0.264-0.379-0.578-0.605-0.926-0.752-1.163-1.744-2.699-2.766-3.971-6.462-8.757-15.455-11.646-22.958-14.055-0.557-0.179-1.105-0.355-1.645-0.531l-0.166-0.052c-40.932-12.072-82.959-19.197-125.51-21.937l-0.069-0.004c-20.616-1.090-41.851-1.639-62.572-1.092l-0.059 0.002c-15.368 0.557-32.728 3.34-46.84 12.335-6.963 4.344-12.634 10.496-16.449 17.281-0.947 1.521-1.744 3.293-2.391 4.787-0.232 0.536-0.45 1.048-0.661 1.544-0.468 1.1-0.903 2.123-1.393 3.17-0.695 1.483-1.319 2.607-1.907 3.401-0.42 0.568-0.685 0.781-0.766 0.839l-0.049 0.024c-0.255-0.095-0.638-0.278-1.219-0.614-0.284-0.165-0.58-0.344-0.93-0.558l-0.082-0.050c-0.314-0.192-0.678-0.414-1.046-0.63l-0.202-0.118-0.21-0.103c-4.003-1.958-8.799-3.335-13.776-3.335h-0.248l-0.248 0.020c-9.026 0.736-16.332 6.564-19.968 13.679-4.685 9.171-5.157 19.7-4.049 29.387 1.114 9.743 3.911 19.324 6.444 27.032l0.040 0.118c5.586 15.944 14.152 30.795 25.4 43.68-1.246 2.848-1.921 5.93-1.921 9.007 0 6.566 2.635 11.979 4.802 16.154 0.267 0.513 0.525 1.008 0.775 1.486 1.971 3.765 3.399 6.495 3.947 9.532l0.057 0.279c0.832 3.666 0.185 6.73-1.345 8.497-0.868 0.963-1.471 1.174-2.334 1.314-0.62 0.103-1.344 0.146-2.487 0.189-0.104 0.005-0.212 0.008-0.323 0.013-0.927 0.033-2.093 0.075-3.333 0.196-7.336 0.095-12.796 3.273-17.086 7.149-2.823 2.552-5.556 5.86-7.899 8.696-0.931 1.126-1.801 2.18-2.59 3.082l-0.021 0.023c-7.775 8.967-15.547 18.066-23.301 27.146-7.764 9.090-15.521 18.172-23.264 27.104l-0.065 0.075c-2.201 2.622-4.709 5.445-7.325 8.391-4.392 4.944-9.088 10.231-13.138 15.472-6.674 8.641-12.709 18.444-15.225 29.784-4.12 17.401-0.396 34.575 5.488 50.322-0.969 0.003-1.998 0.061-3.074 0.211l-0.264 0.038-0.261 0.061c-7.142 1.644-11.372 6.785-14.056 11.559-1.346 2.396-2.42 4.902-3.323 7.142-0.344 0.855-0.652 1.636-0.94 2.371-0.523 1.333-0.984 2.506-1.49 3.663-2.451 5.596-5.044 11.073-7.684 16.647l-0.018 0.040c-2.606 5.502-5.258 11.103-7.778 16.852-0.75 1.564-1.66 3.248-2.705 5.181-0.177 0.327-0.357 0.661-0.542 1.003-1.252 2.322-2.631 4.924-3.843 7.629-2.354 5.254-4.533 11.855-3.375 18.658 1.223 7.184 6.32 12.627 10.808 16.523 2.348 2.036 4.842 3.909 7.082 5.565 0.313 0.231 0.62 0.458 0.92 0.679 1.924 1.42 3.584 2.647 4.997 3.816l0.064 0.052c4.663 3.758 9.334 7.658 14.053 11.596l0.025 0.020c4.692 3.917 9.432 7.874 14.179 11.699 0.283 0.231 0.571 0.467 0.867 0.709 6.215 5.090 15.237 12.476 26.463 13.132 10.129 0.653 20.243-3.341 26.102-12.657l0.098-0.156 0.088-0.161c1.865-3.388 2.033-7.051 0.838-10.266-1.131-3.044-3.344-5.354-5.776-6.782-2.428-1.425-5.521-2.233-8.708-1.667-3.381 0.603-6.384 2.683-8.252 6.076l-0.091 0.171c-0.198 0.387-0.358 0.575-0.434 0.653-0.067 0.068-0.109 0.088-0.109 0.088s-0.304 0.146-1.173 0.022c-1.968-0.279-4.924-1.631-8.63-4.125-3.55-2.388-7.161-5.387-10.356-8.19-1.14-0.998-2.299-2.041-3.387-3.019-1.697-1.526-3.223-2.899-4.233-3.71-3.6-2.981-7.061-5.827-10.513-8.666-3.466-2.848-6.922-5.688-10.515-8.665l-0.036-0.030c-1.31-1.069-2.959-2.2-4.292-3.114-0.542-0.372-1.032-0.706-1.425-0.988-1.714-1.227-2.599-2.054-3.047-2.71-0.047-0.040-0.312-0.266 0.24-1.799 0.307-0.858 0.752-1.785 1.358-2.997 0.051-0.1 0.105-0.209 0.16-0.317 0.481-0.958 1.091-2.174 1.576-3.383 5.022-10.188 9.838-20.427 14.695-30.751 2.616-5.561 5.244-11.146 7.922-16.762 0.41-0.817 0.806-1.817 1.099-2.554l0.038-0.096 0.019-0.050c0.192-0.483 0.372-0.938 0.551-1.37l0.783 0.46c0.222 0.131 0.569 0.329 0.92 0.5l0.226 0.111 0.234 0.093c2.325 0.91 4.736 1.669 7.274 2.031l9.525-0.77-3.539 0.8c2.395-0.332 4.766-1.083 7.179-2.265 7.596-3.716 7.621-12.576 5.076-17.675-5.235-11.061-10.139-22.556-12.056-33.936-1.891-11.224-0.82-21.986 5.594-31.989 5.364-8.308 12.243-15.869 19.432-23.768 1.255-1.38 2.52-2.77 3.789-4.178l0.095-0.108 0.034-0.040c8.824-10.254 17.725-20.598 26.085-30.958 8.836-10.269 17.749-20.628 26.118-31l0.097-0.123c0.356-0.465 0.763-1.033 1.109-1.516 0.124-0.171 0.24-0.334 0.343-0.475 0.458-0.633 0.854-1.159 1.234-1.599 0.299-0.347 0.52-0.563 0.666-0.689l0.126-0.025 0.514-0.201c-0.011 0.006 0.432-0.133 2.077-0.005 0.508 0.040 0.967 0.088 1.498 0.143 0.307 0.030 0.637 0.065 1.015 0.1 0.922 0.091 2.026 0.181 3.161 0.181h0.371l0.369-0.045c5.506-0.671 10.47-2.722 14.73-6.182 10.4-8.172 13.571-20.314 12.308-32.159-0.669-7.107-3.278-13.364-6.278-18.667-0.17-0.327-0.378-0.701-0.557-1.023l-0.067-0.121c-0.246-0.442-0.505-0.913-0.769-1.415-0.291-0.553-0.563-1.099-0.798-1.616 3.112-1.858 5.045-4.957 5.854-7.949 1.059-3.911 0.571-9.077-3.128-12.698-1.225-1.2-2.428-2.424-3.603-3.674l0.877 0.922-3.358-3.642c-7.87-8.898-14.362-18.95-18.488-29.853l-0.042-0.109c-2.444-6.111-4.935-13.072-6.49-20.046-1.567-7.032-2.079-13.63-0.946-19.172l0.022-0.112c0.164-0.884 0.334-1.561 0.497-2.070 0.109 0.043 0.228 0.093 0.357 0.151 0.201 0.089 0.405 0.18 0.614 0.274 5.647 2.522 13.919 6.219 23.009 2.522 8.040-3.225 12.399-9.326 15.501-14.879 0.889-1.591 1.831-3.443 2.691-5.135 0.513-1.008 0.996-1.958 1.422-2.763 1.294-2.442 2.51-4.467 3.897-6.139l0.084-0.104c2.917-3.67 7.318-6.396 12.808-8.411 5.445-1.998 11.543-3.146 17.444-3.936 16.219-1.581 32.516-1.587 48.431-1.049l0.027 0.001c36.727 1.073 73.486 5.902 109.724 13.962l0.027 0.006c10.018 2.178 19.794 4.307 28.99 6.953l0.045 0.013c1.144 0.32 2.328 0.589 3.39 0.825 0.148 0.033 0.295 0.065 0.438 0.098 0.936 0.208 1.786 0.396 2.625 0.609 2.003 0.506 3.261 0.988 4.037 1.494 1.514 0.987 2.281 2.156 3.819 4.501 0.465 0.706 0.998 1.519 1.642 2.466l0.151 0.21c5.048 6.793 12.014 12.565 22.102 13.324 2.843 0.329 5.548 0.139 7.789-0.067 0.535-0.049 1.038-0.098 1.516-0.145 1.729-0.168 3.131-0.304 4.579-0.304-0.052 0-0.077 0.001-0.077 0.001s0.248 0.022 0.75 0.095c-0.024 3.585 1.56 6.874 4.067 9.151 3.443 3.129 8.694 4.444 13.622 2.488l4.738-2.488-1.803 1.065c4.344-2.382 7.804-5.545 10.491-9.188 1.737 0.335 3.53 0.503 5.355 0.503 5.1 0 9.672-2.425 12.525-4.099 0.975-0.573 1.849-1.243 2.57-1.843l0.181 0.35 0.346 0.454c2.42 3.157 5.595 5.433 9.313 6.887l0.25 0.098 0.257 0.075c4.339 1.274 8.887 0.729 12.562-1.753 3.703-2.497 5.974-6.589 6.41-11.288l0.054-0.59-0.054-0.59z"></path>
    <path fill="white" stroke="white" stroke-width="0.5"
        d="M112.515 582.56l0.114 0.095c0.18 0.146 0.367 0.299 0.561 0.458 2.99 2.453 7.63 6.257 13.171 7.72 6.143 2.149 12.151 1.264 17.62-1.37 0.813-0.347 1.614-0.724 2.258-1.028 0.195-0.093 0.376-0.178 0.538-0.254 0.832-0.387 1.376-0.614 1.836-0.759 0.653-0.203 1.057-0.239 1.821 0.040l0.319 0.108c2.708 0.83 4.901 1.913 7.479 3.19 1.141 0.566 2.357 1.167 3.727 1.8 4.135 1.913 9.054 3.73 15.166 3.414 1.79-0.028 3.446-0.437 4.416-0.676 0.059-0.013 0.114-0.028 0.167-0.040 1.248-0.304 1.63-0.367 1.875-0.367 0.597 0 0.942 0.106 1.624 0.49 0.351 0.199 0.662 0.397 1.12 0.692 0.178 0.113 0.377 0.238 0.61 0.387 0.748 0.473 1.696 1.051 2.827 1.606l0.16 0.078 0.164 0.068c4.82 2.021 9.805 2.749 14.851 2.046 2.178-0.307 4.349-0.852 6.14-1.302 0.127-0.033 0.252-0.065 0.375-0.095 2.009-0.506 3.553-0.87 4.941-1.021 1.345-0.148 2.146-0.038 2.659 0.143 0.411 0.146 0.978 0.447 1.685 1.418l0.031 0.043c1.429 1.923 2.527 3.799 3.789 5.955 0.486 0.83 0.995 1.699 1.557 2.632 1.9 3.145 4.229 6.641 7.713 9.716 8.726 7.812 20.653 8.283 30.050 4.432 5.459-1.833 10.26-5.214 13.777-7.688 0.312-0.221 0.614-0.432 0.906-0.636 0.355-0.249 0.745-0.513 1.167-0.794 3.317-2.222 8.393-5.624 10.597-12.094 1.345-3.95 0.283-7.818-2.1-10.48-2.164-2.423-5.265-3.733-8.408-3.821-4.138-0.352-7.668 0.89-10.553 2.511-2.63 1.475-5.050 3.466-7.002 5.071-0.134 0.108-0.262 0.216-0.391 0.321-4.618 3.791-7.142 5.415-10.094 5.139l-0.141-0.010c-1.135-0.080-2.3-0.683-3.925-3.069-0.809-1.189-1.562-2.574-2.403-4.196-0.12-0.228-0.243-0.47-0.37-0.716-0.695-1.348-1.497-2.903-2.329-4.261l-0.089-0.141c-4.359-6.702-10.688-13.263-20.954-14.698-2.746-0.385-5.461-0.169-7.732 0.128-1.156 0.15-2.289 0.336-3.31 0.505l-0.274 0.045c-0.941 0.156-1.771 0.294-2.569 0.405l-0.327 0.056c-0.758 0.148-1.345 0.271-1.867 0.379-0.625 0.131-1.155 0.239-1.77 0.352-0.968 0.176-1.578 0.241-2.051 0.241-0.633 0-1.428-0.086-3.096-1.174l-0.153-0.095c-2.477-1.516-4.998-2.798-7.89-3.552-2.931-0.764-5.895-0.9-9.204-0.576l-0.065 0.008c-1.517 0.164-2.738 0.332-3.769 0.472-2.991 0.412-4.377 0.601-6.751-0.133-1.564-0.671-3.135-1.493-4.903-2.438-0.174-0.095-0.351-0.189-0.531-0.287-1.65-0.882-3.5-1.875-5.394-2.732-4.275-1.939-9.454-3.522-15.563-2.436-3.172 0.478-5.854 1.983-7.571 2.954-0.116 0.065-0.229 0.128-0.339 0.191-1.707 0.965-2.672 1.511-3.582 1.808-0.827 0.1-1.963-0.106-3.823-1.016-1-0.488-2.013-1.081-3.215-1.79-0.057-0.033-0.115-0.068-0.173-0.101-1.084-0.641-2.381-1.408-3.679-2.044-3.525-1.724-8.35-3.687-13.27-3.873-5.369-0.201-11.093 1.777-14.703 7.959l-0.089 0.153-0.081 0.158c-1.204 2.355-1.204 5.194 0 7.549 1.359 2.66 4.054 4.341 7.16 4.341 4.447 0 8.058 1.514 11.529 4.487z"></path>
    <path
        d="M281.475 606.104l0.426-0.103 0.406-0.166c9.162-3.691 16.879-6.182 26.614-7.182l0.072-0.010c3.596-0.412 7.080-0.661 10.699-0.917 0.961-0.068 1.929-0.138 2.912-0.211 4.611-0.342 9.424-0.764 14.434-1.629 16.39-2.768 35.235-9.165 43.871-26.719l0.119-0.254c0.471-1.076 0.894-2.167 1.261-3.114l0.022-0.053c0.389-1.005 0.72-1.86 1.072-2.664 0.718-1.642 1.301-2.529 1.828-3.047l0.171-0.169 0.159-0.18c0.114-0.136 0.336-0.395 1.704-0.478 0.694-0.042 1.404-0.033 2.395-0.015 0.171 0.003 0.349 0.006 0.538 0.008 1.060 0.017 2.422 0.028 3.849-0.121 4.884-0.065 9.8-1.463 14.072-4.249l0.164-0.113c2.687-1.878 4.589-4.407 5.825-6.053 0.099-0.131 0.196-0.259 0.285-0.38 1.471-1.941 2.142-2.639 2.791-3.002 0.993-0.555 2.365-0.958 4.352-1.254 1.317-0.194 2.313-0.284 3.432-0.385 0.907-0.084 1.895-0.171 3.2-0.329 5.949-0.589 11.277-1.755 17.030-3.439 2.293-0.591 4.465-1.197 6.548-1.777 8.245-2.295 15.127-4.213 22.835-3.459l0.188 0.017c10.785 0.72 20.472 5.043 30.253 10.877 4.188 2.499 8.274 5.199 12.475 7.974 0.721 0.475 1.444 0.953 2.172 1.433 4.909 3.233 9.986 6.516 15.224 9.364l0.235 0.121c5.104 2.499 10.305 0.575 13.037-3.097 2.683-3.61 3.163-9.319-0.916-13.451-14.538-15.895-35.456-29.596-57.26-34.812-10.772-2.913-21.599-3.502-32.427-1.735l-0.086 0.013c-5.082 0.906-9.966 2.273-14.491 3.539-1.216 0.34-2.407 0.674-3.569 0.988-5.637 1.528-10.927 2.738-16.608 2.979l-0.055 0.003c-5.854 0.302-10.79 1.385-15.32 3.73-4.476 2.32-8.108 5.646-11.68 9.716-1.355 1.483-2.116 1.702-2.856 1.843-0.594 0.113-1.33 0.171-2.553 0.221-0.194 0.008-0.401 0.015-0.622 0.025-0.986 0.036-2.201 0.083-3.516 0.192-5.362 0.045-10.581 1.418-15.15 5.105-4.834 3.677-7.438 8.675-9.374 12.604-0.218 0.44-0.426 0.864-0.63 1.28-1.787 3.65-3.086 6.297-5.114 8.462l-0.166 0.186c-4.648 5.374-11.64 7.762-20.494 9.934-4.433 0.858-9.394 1.308-14.872 1.762-0.355 0.030-0.711 0.060-1.068 0.091-5.121 0.425-10.632 0.88-16.009 1.747-11.378 1.833-23.456 5.674-31.832 16.309-1.464 1.614-2.558 3.994-2.070 6.81 0.46 2.66 2.12 4.364 3.277 5.254 1.243 0.955 2.66 1.576 4.002 1.913 1.31 0.329 3.014 0.503 4.793 0.068z"></path>
    <path
        d="M727.040 661.937l-108.564-353.264h35.16c3.683 0 6.435 0.926 8.516 2.538l-0.001 0.001 0.075 0.055c2.361 1.731 3.757 3.818 4.375 6.322l0.018 0.072 0.021 0.071 73.294 250.317c1.128 4.432 2.18 9.204 3.156 14.313l0.007 0.052 0.014 0.051c1.142 5.133 2.201 10.604 3.183 16.416l6.855 0.093c1.149-5.825 2.292-11.315 3.441-16.469 1.296-5.266 2.668-10.014 4.117-14.251l0.007-0.022 83.446-250.333c0.007-0.006 0.007-0.013 0.007-0.020 0.745-2.131 2.215-4.222 4.639-6.245l0.014-0.013c2.299-1.948 5.043-2.947 8.401-2.947h13.869c3.692 0 6.311 0.928 8.185 2.472 2.139 1.767 3.769 4.010 4.883 6.802l83.195 250.307c1.442 4.234 2.731 8.808 3.866 13.734l0.028 0.104c1.303 4.966 2.529 10.188 3.671 15.666l6.855-0.199c0.815-5.482 1.721-10.707 2.696-15.678 0.975-4.947 2.027-9.549 3.156-13.814l73.568-250.394c0.599-2.208 1.944-4.296 4.284-6.258 2.292-1.797 5.050-2.741 8.45-2.741h32.684l-108.565 353.264h-37.999l-89.102-272.332c-0.808-2.605-1.609-5.382-2.417-8.326-0.662-3.023-1.407-6.205-2.229-9.551l-6.764-0.002c-0.822 3.328-1.637 6.481-2.452 9.465-0.815 2.976-1.63 5.78-2.438 8.412l-89.603 272.333h-37.999z"></path>
</svg>