<!-- Generated by IcoMoon.io -->
<svg version="1.1" xmlns="http://www.w3.org/2000/svg" width="1770" height="1024"
    viewBox="0 0 1770 1024" fill="white" opacity="0.05">
    <path
        d="M563.122 528.295c1.277 11.011 12.13 17.066 22.345 21.472 5.745 2.751 10.853 4.954 15.96 9.358s9.576 10.461 16.598 13.764c7.024 3.304 14.046 1.651 20.43-2.203 3.829-2.203 5.106-1.651 8.299 1.651 3.191 2.753 5.108 6.607 7.661 9.36 4.468 5.505 10.853 8.808 18.512 9.358 1.277 0 4.47-0.55 5.747 0 1.914 1.102 1.914 2.203 2.554 4.406 1.275 4.954 2.552 9.358 3.191 14.313 1.277 9.36 0.638 18.168 1.277 26.977 0 6.607 2.554 12.664 8.938 17.068 8.936 6.607 26.813 7.157 29.365 18.168 1.916 7.157 2.554 12.662 8.301 18.719 6.383 6.605 13.406 11.561 17.875 19.269 9.576 15.965 14.046 34.684 19.791 51.2 0.638 1.653 1.277 3.304 1.914 4.954 0.639 2.203 3.193 4.956 0 6.057-3.191 1.101-8.936-1.651-11.49-2.753-4.47-1.651-8.301-2.751-13.406-2.751-4.47 0-7.024 2.201-10.853 3.854-4.47 1.651-5.108-1.653-8.938-3.304-3.193-1.653-7.022-1.653-10.215-0.55-3.831 1.101-8.299 4.404-12.13 3.854-5.108-0.552-7.661-4.406-7.022-8.81 0.638-4.954-6.384-6.605-10.215-4.954-12.767 4.954-22.982 13.764-27.45 25.326-2.554 5.505-3.193 11.561-2.554 17.616 0.638 7.157 5.108 14.315-1.916 19.821-5.106 3.854-10.853 6.605-15.321 11.009-5.108 5.506-7.661 11.561-10.215 18.168-3.829 11.011-8.299 34.684-27.45 30.28-5.108-1.101-9.576 2.203-9.576 6.607-0.639 16.516 21.705 17.066 33.197 24.774 12.767 9.36 26.813 9.36 40.857 0.552 12.13-7.157 21.068-19.821 37.665-18.168 13.406 1.101 26.813 9.909 28.729 22.022 1.277 7.156 13.406 6.055 11.49-1.102-3.831-21.47-31.281-36.335-55.54-30.28-15.323 3.854-23.621 17.618-38.305 21.472-9.576 2.753-14.044-3.854-21.705-7.708-5.108-3.304-21.705-4.954-21.705-11.561-3.193 2.201-6.384 4.404-9.576 6.607 15.321 5.505 31.281-3.854 38.303-15.967 8.299-13.212 7.661-31.381 22.345-41.289 5.745-3.854 11.49-7.157 14.683-12.664 4.468-7.157 1.914-13.763 0-20.92-3.193-14.315 5.108-28.629 21.068-34.134-3.193-1.653-7.024-3.304-10.215-4.956-1.916 14.865 16.598 24.225 31.281 18.719 2.554-1.101 4.47-2.751 7.024-1.651 1.275 0.55 3.191 2.753 4.468 3.304 3.191 1.651 7.022 2.751 10.215 1.651 3.191-0.55 5.106-2.753 8.299-3.854 5.745-2.753 10.853 1.102 16.598 3.304 6.384 2.203 14.683 2.753 21.068-0.55 8.299-4.404 7.022-12.662 4.468-19.819-6.384-18.719-12.13-39.090-21.705-56.706-3.831-7.157-8.938-13.214-15.321-18.719-3.193-3.304-7.024-6.057-8.938-10.461-1.916-4.954-1.277-9.909-3.831-14.315-3.191-4.954-8.299-8.808-14.046-11.011-5.745-2.751-14.044-3.854-18.512-8.258-3.831-3.304-2.554-7.157-2.554-11.561 0-4.954 0-10.459 0-15.415-0.639-9.358-1.916-19.819-5.108-29.178-3.191-8.81-10.215-11.011-19.791-11.011s-12.13-8.81-17.875-14.315c-6.384-6.607-16.599-11.011-26.175-6.607-1.914 0.55-3.831 2.753-5.108 3.304-0.638 1.101-1.277 1.101-1.914 0.55-1.277-1.101-2.554-1.651-3.191-2.753-3.193-2.751-7.024-5.505-10.853-7.156-14.683-6.607-35.113-7.708-44.050-21.472-3.193-2.203-6.384-1.653-5.747 0z"></path>
    <path
        d="M646.753 572.338c-3.193-3.302-4.47-3.854-8.299-1.651-6.384 3.854-13.406 5.506-20.43 2.203-4.905-2.308-8.562-5.957-12.064-9.449-1.512-1.508-2.994-2.987-4.534-4.315-4.591-3.959-9.182-6.139-14.238-8.539-0.568-0.269-1.142-0.541-1.722-0.819-10.215-4.406-21.068-10.461-22.345-21.472-0.638-1.653 2.554-2.203 5.747 0 6.169 9.501 17.814 12.968 29.265 16.377 5.138 1.53 10.236 3.049 14.785 5.095 3.829 1.651 7.66 4.404 10.853 7.156 0.411 0.712 1.090 1.193 1.863 1.742 0.424 0.301 0.876 0.622 1.329 1.012 0.638 0.55 1.277 0.55 1.914-0.55 0.524-0.224 1.152-0.727 1.843-1.279 1.001-0.796 2.133-1.699 3.264-2.025 9.576-4.404 19.791 0 26.175 6.607 1.688 1.617 3.1 3.521 4.497 5.401 3.355 4.52 6.616 8.913 13.378 8.913 9.576 0 16.599 2.201 19.791 11.011 3.191 9.358 4.468 19.819 5.108 29.178v15.415c0 0.905-0.053 1.786-0.107 2.643-0.203 3.321-0.385 6.294 2.661 8.919 2.89 2.849 7.385 4.317 11.754 5.743 2.385 0.778 4.73 1.544 6.76 2.515 5.745 2.203 10.853 6.057 14.044 11.011 1.435 2.477 1.863 5.127 2.301 7.855 0.342 2.123 0.691 4.29 1.53 6.459 1.435 3.304 3.95 5.677 6.463 8.051 0.839 0.792 1.676 1.583 2.475 2.41 6.383 5.505 11.49 11.561 15.321 18.719 7.665 14.101 12.876 29.965 17.923 45.334 1.259 3.832 2.509 7.635 3.783 11.373 2.554 7.157 3.831 15.415-4.468 19.819-6.384 3.304-14.683 2.753-21.068 0.55-1.263-0.484-2.495-1.047-3.71-1.605-4.311-1.973-8.406-3.847-12.888-1.699-1.391 0.481-2.54 1.168-3.658 1.84-1.446 0.867-2.84 1.704-4.641 2.014-3.193 1.102-7.024 0-10.215-1.651-0.639-0.276-1.437-0.963-2.235-1.653-0.798-0.687-1.596-1.375-2.233-1.651-1.989-0.858-3.59-0.046-5.409 0.876-0.516 0.262-1.049 0.532-1.615 0.775-10.993 4.123-24.134-0.089-29.24-8.705-0.153-0.256-0.297-0.516-0.435-0.78-0.249 0.169-0.493 0.34-0.735 0.515-9.7 6.983-14.217 18.161-11.723 29.342 0.191 0.711 0.386 1.416 0.582 2.117 1.77 6.358 3.442 12.357-0.582 18.802-2.796 4.823-7.551 7.955-12.548 11.248-0.709 0.467-1.423 0.937-2.135 1.416-9.259 6.247-12.425 15.78-15.583 25.283-1.85 5.569-3.695 11.125-6.762 16.006-3.987 6.879-10.86 12.87-18.859 15.755-0.459 0.166-0.921 0.321-1.387 0.465 0.461 0.162 0.928 0.322 1.4 0.477 1.239 0.41 2.507 0.794 3.742 1.17 3.287 1.001 6.349 1.932 8.083 3.054 2.125 1.069 4.003 2.349 5.815 3.583 4.718 3.214 8.97 6.114 15.891 4.124 7.223-1.897 12.902-6.19 18.631-10.523 5.918-4.474 11.889-8.99 19.673-10.949 24.259-6.055 51.709 8.81 55.54 30.28 1.916 7.157-10.213 8.258-11.49 1.102-1.916-12.113-15.323-20.922-28.729-22.022-11.907-1.186-19.871 4.995-27.899 11.227-3.165 2.456-6.338 4.919-9.766 6.942-14.044 8.808-28.090 8.808-40.857-0.552-3.603-2.415-8.27-4.128-12.963-5.85-10.279-3.77-20.672-7.585-20.234-18.924 0-4.404 4.468-7.708 9.576-6.607 16.786 3.861 22.293-13.85 25.976-25.698 0.52-1.669 1.003-3.222 1.475-4.582 2.554-6.607 5.108-12.662 10.215-18.168 2.773-2.732 6.039-4.83 9.337-6.949 2.018-1.295 4.046-2.598 5.984-4.060 5.223-4.096 4.091-9.104 2.903-14.347-0.408-1.806-0.823-3.64-0.987-5.474-0.639-6.055 0-12.112 2.554-17.616 4.468-11.561 14.683-20.371 27.45-25.326 3.831-1.651 10.853 0 10.215 4.954-0.638 4.404 1.914 8.258 7.022 8.81 2.495 0.358 5.259-0.917 7.941-2.155 1.439-0.662 2.853-1.316 4.189-1.699 3.193-1.102 7.024-1.102 10.215 0.55 1.321 0.57 2.262 1.336 3.111 2.027 1.615 1.314 2.899 2.358 5.827 1.277 1.052-0.456 2.011-0.951 2.937-1.432 2.443-1.266 4.677-2.422 7.916-2.422 5.108 0 8.936 1.101 13.406 2.751 0.214 0.093 0.449 0.196 0.703 0.308 2.792 1.227 7.863 3.455 10.787 2.445 2.395-0.826 1.556-2.58 0.719-4.335-0.28-0.586-0.559-1.17-0.719-1.722l-1.914-4.954c-1.428-4.103-2.776-8.342-4.144-12.641-4.137-13.006-8.448-26.56-15.647-38.559-3.108-5.36-7.449-9.389-11.953-13.567-1.973-1.831-3.977-3.69-5.921-5.702-4.896-5.159-6.083-9.919-7.512-15.64-0.249-0.996-0.504-2.020-0.787-3.079-1.617-6.967-9.366-9.747-17.105-12.521-4.491-1.612-8.979-3.222-12.261-5.647-6.384-4.404-8.938-10.461-8.938-17.068-0.256-3.531-0.306-7.063-0.358-10.632-0.077-5.328-0.155-10.739-0.919-16.345-0.54-4.183-1.533-7.973-2.598-12.035-0.196-0.748-0.395-1.507-0.593-2.278-0.098-0.337-0.182-0.648-0.258-0.937-0.426-1.603-0.673-2.536-2.296-3.469-0.906-0.39-2.775-0.226-4.24-0.098-0.6 0.052-1.134 0.098-1.507 0.098-7.66-0.55-14.044-3.854-18.512-9.358-1.044-1.126-1.98-2.433-2.942-3.775-1.391-1.943-2.832-3.955-4.719-5.585zM766.917 706.25c-3.884-7.257-9.054-13.387-15.494-18.945-0.803-0.83-1.644-1.624-2.467-2.401l-0.007-0.007c-0.841-0.794-1.663-1.571-2.445-2.381-1.556-1.61-2.91-3.305-3.807-5.362-0.796-2.069-1.129-4.135-1.471-6.258-0.050-0.303-0.098-0.607-0.15-0.912-0.401-2.418-0.898-4.899-2.262-7.252l-0.011-0.020-0.012-0.016c-3.302-5.127-8.559-9.086-14.441-11.348-2.076-0.992-4.502-1.783-6.897-2.566-0.979-0.319-1.954-0.636-2.896-0.965-3.343-1.166-6.367-2.491-8.447-4.543l-0.021-0.020-0.023-0.020c-1.708-1.473-2.263-3.029-2.408-4.767-0.073-0.896-0.037-1.84 0.023-2.869 0.009-0.178 0.021-0.362 0.032-0.545 0.052-0.858 0.109-1.772 0.109-2.707v-15.445l-0.002-0.030c-0.641-9.383-1.923-19.935-5.154-29.406l-0.005-0.016c-1.667-4.602-4.37-7.542-7.944-9.303-3.533-1.742-7.847-2.294-12.683-2.294-4.443 0-7.252-2.014-9.706-4.792-1.026-1.161-1.97-2.433-2.949-3.751-0.21-0.283-0.422-0.568-0.638-0.857-1.197-1.599-2.467-3.229-3.954-4.655-6.518-6.739-17.089-11.387-27.117-6.812-1.12 0.34-2.176 1.118-3.029 1.786-0.173 0.137-0.337 0.265-0.492 0.39-0.26 0.208-0.502 0.401-0.741 0.581-0.381 0.285-0.668 0.472-0.885 0.565l-0.269 0.116-0.148 0.255c-0.13 0.224-0.237 0.351-0.31 0.419-0.023 0.021-0.041 0.034-0.053 0.043-0.032-0.014-0.098-0.050-0.199-0.137-0.488-0.42-0.997-0.782-1.432-1.090-0.164-0.118-0.319-0.228-0.456-0.329-0.54-0.397-0.892-0.721-1.117-1.106l-0.075-0.13-0.114-0.098c-3.223-2.78-7.131-5.595-11.075-7.298-3.726-1.676-7.798-2.995-11.921-4.244-0.994-0.301-1.987-0.597-2.981-0.892-3.152-0.939-6.295-1.875-9.342-2.942-8.014-2.805-15.116-6.44-19.417-13.063l-0.096-0.148-0.144-0.102c-1.724-1.188-3.514-1.685-4.871-1.601-0.662 0.041-1.345 0.23-1.818 0.686-0.249 0.24-0.435 0.55-0.506 0.917-0.061 0.319-0.027 0.638 0.069 0.935 0.698 5.752 3.886 10.179 8.126 13.695 4.246 3.523 9.602 6.176 14.722 8.384 0.575 0.276 1.143 0.545 1.704 0.812 5.063 2.404 9.547 4.534 14.042 8.411 1.526 1.316 2.96 2.746 4.445 4.23 0.997 0.994 2.018 2.014 3.108 3.038 2.662 2.506 5.615 4.917 9.25 6.627 7.385 3.474 14.731 1.697 21.258-2.24 1.891-1.086 2.901-1.33 3.738-1.138 0.901 0.207 1.845 0.96 3.469 2.641l0.028 0.028 0.030 0.027c1.514 1.305 2.739 2.885 3.93 4.529 0.212 0.29 0.422 0.586 0.634 0.882 0.956 1.336 1.929 2.693 3.006 3.859zM653.741 582.282c4.63 5.692 11.239 9.097 19.123 9.663l0.030 0.002h0.032c0.365 0 0.844-0.037 1.334-0.080 0.084-0.007 0.169-0.014 0.255-0.021 0.431-0.037 0.885-0.078 1.339-0.105 0.545-0.034 1.065-0.050 1.516-0.027 0.433 0.023 0.732 0.078 0.91 0.144 0.784 0.461 1.115 0.874 1.341 1.364 0.128 0.276 0.232 0.597 0.349 1.015 0.041 0.146 0.085 0.313 0.134 0.493 0.078 0.297 0.167 0.63 0.264 0.965 0.199 0.775 0.399 1.533 0.595 2.281 1.065 4.062 2.043 7.791 2.573 11.912l0.002 0.007c0.63 4.625 0.789 9.125 0.869 13.59 0.016 0.88 0.028 1.758 0.041 2.636 0.052 3.56 0.102 7.113 0.358 10.664 0.009 6.851 2.68 13.178 9.31 17.759 2.331 1.72 5.209 3.026 8.196 4.183 1.405 0.545 2.849 1.061 4.279 1.576l0.289 0.102c1.53 0.55 3.042 1.095 4.504 1.674 5.92 2.347 10.585 5.095 11.748 10.11l0.004 0.014 0.005 0.014c0.278 1.038 0.529 2.048 0.775 3.036 1.428 5.733 2.673 10.726 7.738 16.065l0.005 0.005c1.954 2.023 4 3.92 5.991 5.768 1.263 1.172 2.502 2.322 3.685 3.473 3.090 3.006 5.895 6.105 8.069 9.855l0.007 0.012c7.14 11.902 11.406 25.313 15.536 38.296 1.375 4.317 2.734 8.587 4.178 12.739l0.004 0.014 1.907 4.935c0.182 0.609 0.481 1.236 0.743 1.783l0.016 0.036c0.289 0.602 0.532 1.118 0.668 1.585s0.116 0.737 0.041 0.903c-0.062 0.142-0.251 0.394-0.914 0.622-0.622 0.215-1.43 0.26-2.388 0.148-0.951-0.112-1.989-0.37-3.035-0.703-1.745-0.557-3.434-1.3-4.703-1.857-0.26-0.114-0.5-0.219-0.721-0.315l-0.021-0.009-0.023-0.009c-4.513-1.667-8.457-2.807-13.714-2.807-2.399 0-4.281 0.595-6.034 1.386-0.776 0.351-1.537 0.744-2.292 1.136-0.084 0.045-0.169 0.089-0.253 0.132-0.841 0.435-1.688 0.866-2.605 1.263-1.008 0.37-1.729 0.436-2.29 0.358-0.563-0.077-1.051-0.31-1.581-0.677-0.349-0.24-0.662-0.495-1.017-0.785-0.237-0.192-0.493-0.401-0.791-0.63-0.693-0.536-1.508-1.095-2.547-1.546-3.432-1.765-7.497-1.751-10.863-0.595-1.4 0.404-2.91 1.101-4.368 1.774-0.605 0.28-1.204 0.554-1.781 0.803-2.071 0.892-3.939 1.482-5.587 1.245l-0.014-0.004-0.016-0.002c-2.342-0.251-4.021-1.247-5.051-2.611-1.036-1.368-1.476-3.186-1.186-5.184l0.002-0.014c0.189-1.471-0.192-2.739-0.963-3.749-0.755-0.994-1.847-1.697-3.033-2.151-2.34-0.898-5.287-0.914-7.439 0.007-12.922 5.018-23.349 13.967-27.935 25.801-2.625 5.676-3.268 11.887-2.62 18.053 0.167 1.856 0.579 3.699 0.976 5.451l0.023 0.105c0.394 1.74 0.766 3.384 0.917 4.97 0.151 1.608 0.068 3.1-0.431 4.493-0.495 1.38-1.423 2.725-3.056 4.007-1.907 1.439-3.895 2.716-5.904 4.005-0.645 0.415-1.293 0.832-1.941 1.254-2.645 1.727-5.259 3.556-7.56 5.823l-0.028 0.028c-5.232 5.642-7.836 11.839-10.391 18.453l-0.011 0.028c-0.49 1.41-0.985 2.999-1.512 4.693-1.576 5.074-3.448 11.088-6.393 16.067-1.95 3.296-4.324 6.042-7.309 7.711-2.962 1.654-6.603 2.29-11.196 1.234l-0.012-0.004c-5.533-1.191-10.642 2.379-10.653 7.46-0.164 4.351 1.191 7.697 3.523 10.359 2.306 2.636 5.533 4.557 9.049 6.158 2.623 1.197 5.471 2.242 8.272 3.27 0.944 0.347 1.882 0.691 2.805 1.038 3.69 1.389 7.15 2.837 9.927 4.696 6.511 4.767 13.387 7.179 20.453 7.25 7.063 0.069 14.247-2.198 21.379-6.668 3.081-1.82 5.95-3.98 8.749-6.148 0.369-0.285 0.735-0.57 1.102-0.853 2.434-1.89 4.831-3.751 7.334-5.405 5.729-3.79 11.907-6.436 19.93-5.638l0.014 0.002c6.545 0.538 13.089 2.958 18.22 6.714 5.132 3.754 8.79 8.796 9.702 14.56l0.002 0.016c0.748 4.183 4.657 5.85 7.903 5.547 1.64-0.153 3.248-0.809 4.322-2.014 1.099-1.234 1.546-2.949 1.013-4.983-1.986-11.054-10.023-20.323-20.555-26.052-10.55-5.738-23.705-7.985-36.072-4.899-7.861 1.977-13.901 6.497-19.714 10.89l-0.223 0.169c-5.772 4.363-11.326 8.564-18.379 10.415l-0.020 0.005c-4.511 1.298-7.781 0.404-10.897-1.302-1.418-0.775-2.789-1.708-4.247-2.703-0.178-0.121-0.358-0.242-0.538-0.365-1.637-1.111-3.38-2.269-5.335-3.255-1.391-0.889-3.48-1.633-5.718-2.345-0.839-0.265-1.701-0.529-2.573-0.794s-1.756-0.534-2.634-0.812c7.763-3.097 14.372-9.020 18.268-15.734 2.121-3.378 3.66-7.056 5.004-10.792 0.641-1.786 1.243-3.594 1.84-5.391l0.084-0.255c0.627-1.886 1.252-3.758 1.925-5.603 2.693-7.375 6.121-14.176 13.225-18.972 0.703-0.472 1.412-0.939 2.119-1.403 4.976-3.275 9.921-6.529 12.831-11.54 4.235-6.792 2.449-13.178 0.68-19.495-0.196-0.7-0.39-1.398-0.577-2.096-2.392-10.755 1.918-21.557 11.298-28.35 1.786 2.983 4.479 5.448 7.668 7.246 6.44 3.631 15.013 4.628 22.615 1.779l0.020-0.009 0.020-0.007c0.593-0.256 1.152-0.54 1.665-0.8 0.068-0.036 0.134-0.068 0.199-0.102 0.581-0.294 1.099-0.547 1.603-0.734 0.976-0.36 1.845-0.451 2.851-0.018 0.214 0.093 0.502 0.278 0.866 0.559 0.356 0.274 0.735 0.602 1.14 0.949l0.011 0.011c0.392 0.337 0.805 0.693 1.204 1.001 0.385 0.297 0.803 0.586 1.218 0.769 3.225 1.665 7.296 2.896 10.819 1.713 1.733-0.313 3.108-1.065 4.383-1.82 0.169-0.1 0.337-0.199 0.502-0.299 1.122-0.673 2.187-1.311 3.483-1.758l0.048-0.016 0.046-0.023c2.591-1.241 5.047-1.017 7.635-0.164 1.305 0.431 2.623 1.013 4 1.642 0.164 0.075 0.329 0.151 0.497 0.228 1.213 0.554 2.472 1.131 3.763 1.626l0.028 0.011c6.518 2.247 15.091 2.853 21.768-0.602l0.007-0.004c4.418-2.345 6.342-5.774 6.773-9.565 0.422-3.715-0.593-7.725-1.881-11.335z"></path>
    <path
        d="M745.062 914.231c0-19.819-1.277-39.64-3.831-59.46-3.829 1.653-7.66 2.753-11.49 4.404 6.384 5.506 12.767 11.011 19.151 17.068 2.554 2.201 8.299 2.201 10.215-1.102 6.384-11.009 12.767-22.020 17.875-33.032-3.831 0.55-7.661 1.101-12.13 1.101 3.831 4.954 9.576 8.258 16.599 8.258 8.299 0 13.406-5.505 20.428-7.708 14.683-4.404 30.643 0 45.327-6.055 12.13-5.506 19.151-17.618 17.235-29.18-2.552-12.662-15.321-20.922-29.365-22.022 1.914 1.653 4.468 2.753 6.383 4.404-5.745-13.763 18.514-23.673 30.006-27.527 15.96-4.954 32.558-7.157 49.156-6.055 8.301 0.55 8.301-10.461 0-11.011-22.343-1.653-44.048 2.201-63.839 10.459-15.96 6.607-35.112 19.821-28.090 36.887 1.277 2.753 3.191 3.854 6.384 4.404 10.213 0.55 18.512 8.258 17.235 17.068-1.275 9.909-11.49 13.763-21.066 14.865-8.938 1.101-18.514 0.55-27.452 2.201-3.831 0.55-7.661 1.653-11.49 3.304-4.47 2.203-10.854 7.708-15.323 2.203-3.191-3.854-9.576-3.304-12.13 1.101-4.468 10.461-10.215 20.92-16.598 30.83 3.191-0.55 7.022-0.55 10.213-1.101-6.383-6.057-12.767-11.561-19.151-17.618-3.831-3.304-12.13-1.101-11.492 4.404 1.916 20.371 5.747 40.191 10.215 60.010 0.639 3.304 7.022 2.753 7.022-1.101z"></path>
    <path
        d="M728.182 858.88c0.005 0.046 0.009 0.093 0.014 0.139 2.012 19.075 5.647 37.694 9.846 56.313 0.638 3.304 7.022 2.753 7.022-1.101 0-14.037-0.641-28.072-1.922-42.109-0.039-0.436-0.080-0.874-0.121-1.311 0.326 0.294 0.65 0.589 0.976 0.885 1.633 1.485 3.264 2.997 4.897 4.547 2.554 2.201 8.299 2.201 10.213-1.102 4.744-8.181 9.488-16.364 13.709-24.548 0.137-0.265 0.272-0.531 0.408-0.794 0.272 0.118 0.549 0.23 0.828 0.337 2.26 0.858 4.739 1.332 7.4 1.332 5.188 0 9.127-2.15 13.068-4.301 2.363-1.289 4.728-2.58 7.36-3.407 6.716-2.014 13.697-2.185 20.701-2.358 8.313-0.205 16.656-0.411 24.626-3.697 12.13-5.506 19.151-17.618 17.237-29.18-2.155-10.689-11.59-18.24-22.927-20.996-0.301-0.073-0.604-0.142-0.906-0.208-0.018-0.306-0.021-0.611-0.009-0.912 0.415-11.419 20.667-19.609 30.864-23.028 15.96-4.954 32.56-7.157 49.157-6.055 8.299 0.55 8.299-10.461 0-11.011-22.345-1.653-44.050 2.201-63.841 10.459-15.96 6.607-35.112 19.821-28.090 36.887 1.277 2.753 3.193 3.854 6.384 4.404 10.215 0.55 18.514 8.258 17.237 17.068-1.277 9.909-11.492 13.763-21.068 14.865-3.84 0.472-7.797 0.641-11.77 0.81-5.277 0.223-10.582 0.449-15.681 1.391-3.831 0.55-7.661 1.653-11.492 3.304-0.809 0.399-1.681 0.906-2.595 1.437-4.124 2.399-9.068 5.273-12.726 0.766-3.193-3.854-9.578-3.304-12.13 1.101-0.5 1.172-1.017 2.344-1.549 3.514-0.032 0.071-0.066 0.144-0.098 0.215-3.013 6.611-6.506 13.196-10.318 19.614-0.153 0.26-0.31 0.52-0.465 0.78-0.224-0.203-0.447-0.408-0.671-0.611-0.953-0.867-1.906-1.729-2.858-2.593-3.193-2.89-6.384-5.781-9.576-8.808-3.831-3.304-12.131-1.101-11.492 4.404 0.112 1.188 0.23 2.374 0.354 3.558zM737.17 915.515c-4.47-19.828-8.308-39.683-10.228-60.101-0.381-3.323 1.975-5.542 4.673-6.441 2.684-0.898 6.069-0.639 8.285 1.27l0.032 0.028c3.182 3.020 6.367 5.904 9.56 8.796l0.005 0.004c0.906 0.821 1.813 1.642 2.721 2.468 4.474-7.547 8.5-15.317 11.818-23.082l0.021-0.050 0.027-0.048c2.858-4.929 9.991-5.563 13.586-1.222l0.005 0.007c0.996 1.225 2.046 1.788 3.111 1.971 1.090 0.187 2.281-0.007 3.56-0.461s2.577-1.143 3.866-1.879c0.34-0.194 0.682-0.392 1.024-0.591 0.922-0.536 1.836-1.067 2.675-1.48l0.020-0.011 0.021-0.009c3.891-1.678 7.791-2.801 11.7-3.364 4.529-0.835 9.205-1.113 13.83-1.32 0.655-0.028 1.309-0.057 1.963-0.084 3.975-0.169 7.893-0.337 11.693-0.805h0.007c4.723-0.543 9.531-1.759 13.291-4.009 3.733-2.233 6.399-5.46 6.995-10.085l0.002-0.014c1.175-8.103-6.502-15.517-16.404-16.051l-0.052-0.002-0.052-0.009c-1.656-0.287-3.068-0.728-4.251-1.512-1.197-0.794-2.094-1.897-2.789-3.396l-0.009-0.018-0.007-0.018c-3.69-8.968-0.447-16.9 5.603-23.315 6.026-6.392 14.933-11.405 22.968-14.731 19.912-8.31 41.756-12.188 64.245-10.527 4.609 0.306 7.052 3.58 7.052 6.806 0 1.597-0.604 3.186-1.84 4.335-1.247 1.156-3.056 1.797-5.334 1.646-16.477-1.092-32.962 1.092-48.824 6.016-5.729 1.922-14.562 5.33-21.235 9.934-3.339 2.304-6.067 4.862-7.619 7.617-0.869 1.544-1.371 3.15-1.4 4.83 11.681 2.769 21.57 10.534 23.83 21.741l0.004 0.016 0.002 0.014c1.991 12.019-5.307 24.491-17.746 30.136l-0.014 0.007-0.014 0.005c-7.51 3.097-15.321 3.508-22.979 3.715-0.652 0.016-1.302 0.032-1.95 0.048-7.024 0.175-13.884 0.344-20.476 2.32-2.541 0.798-4.796 2.028-7.136 3.305-0.803 0.438-1.615 0.882-2.452 1.314-3.238 1.676-6.741 3.127-11.102 3.127-2.812 0-5.426-0.508-7.807-1.426-4.24 8.226-9.004 16.445-13.755 24.638l-0.011 0.018c-1.161 2.002-3.414 2.908-5.578 3.058-2.16 0.148-4.488-0.435-5.989-1.729l-0.016-0.012-0.014-0.014c-1.389-1.318-2.776-2.609-4.165-3.879 1.225 13.739 1.838 27.479 1.838 41.22 0 2.552-2.132 3.881-4.053 4.117-0.983 0.121-2.025-0.012-2.899-0.461-0.889-0.454-1.61-1.245-1.833-2.372z"></path>
    <path
        d="M918.719 755.673c12.767-1.101 26.173-2.201 38.942-3.854 10.853-1.101 24.898-2.753 33.835 4.404 3.831 2.753 6.384 7.157-0.638 6.607-5.745-0.55-11.492-1.651-17.237-2.203-13.406-1.651-27.452-3.302-40.858-4.954-4.468-0.55-9.576 1.653-8.936 6.057 0.638 6.055 4.468 9.909 10.853 12.662 1.914 0.55 21.068 6.607 10.853 8.808-7.661 2.203-5.745 11.011 1.914 11.561 21.707 2.203 39.582 15.415 60.010 21.472 24.898 7.157 50.434 0 75.97 4.954 5.745 1.102 12.13 2.753 17.237 4.956 3.191 1.101 5.745 2.201 8.938 3.302 0.638 0.552 2.552 1.653 3.829 1.653 1.277 1.101 1.916 1.101 0.639-0.55 0-1.101-0.639-1.102-1.277-0.55-1.916 0-5.108 2.201-7.022 2.751-2.554 1.102-5.747 2.203-8.301 3.854-5.106 2.203-10.213 4.956-14.681 7.157-19.153 10.461-37.667 23.123-53.627 37.437-6.383 5.506-15.321 12.112-17.875 20.37-1.914 6.607 1.277 14.315 9.576 15.417 8.938 1.101 18.514-4.406 28.090-5.506 4.47-0.55 9.576 0 12.769 2.753 3.191 2.753 5.108 6.607 8.299 9.358 3.191 2.203 6.384 3.854 10.215 3.854 6.383 0 12.13-3.304 15.321 2.753 5.745 8.808 5.745 21.472 5.108 31.381-1.277 18.168-10.215 39.090 9.576 52.853 17.237 12.112 41.496 8.808 58.733-1.101 10.853-6.057 19.151-14.315 28.090-22.022 8.938-8.258 18.514-15.415 27.45-23.123 3.831-2.753 0-8.808-5.106-7.157-21.068 6.057-33.197 23.673-49.157 36.337-13.406 10.459-39.582 21.47-54.265 5.505-7.66-8.258-4.468-20.37-3.191-30.28 1.914-9.909 2.554-19.269 0.638-29.18-1.277-8.258-3.191-18.167-10.213-24.774-2.554-2.203-6.384-3.854-10.215-4.404-5.745-0.55-11.49 2.753-15.96-1.101-2.554-2.753-4.468-5.506-7.022-8.26-3.191-2.751-7.661-4.404-12.13-5.505-8.938-1.653-17.875 0-26.813 2.201-2.554 0.552-5.108 1.102-7.661 2.203-1.914 1.101-2.554-0.55-1.277 1.651 1.916 2.203 0.639 0 1.277-0.55 1.277-1.101 2.554-3.304 3.193-4.404 1.914-2.201 3.829-3.854 6.383-6.055 7.661-7.157 15.96-14.315 24.259-20.922 17.237-12.662 36.39-23.123 56.819-32.481 7.022-3.304 15.96-9.36 9.576-16.518-5.745-6.607-19.791-10.461-29.367-12.662-12.767-3.304-26.173-4.954-39.582-4.954-14.044 0-28.088 2.201-42.134-1.653-23.621-6.055-42.134-20.92-67.032-23.123 0.638 3.854 1.277 7.708 1.914 11.561 10.215-2.753 16.599-13.212 10.854-22.022-2.554-3.854-7.024-6.055-10.854-7.157-1.914-0.55-10.853-3.302-10.853-3.854-2.554 2.203-5.108 4.406-7.022 6.057 18.514 2.203 37.665 4.954 56.179 6.607 12.769 1.101 26.175-3.854 21.068-17.068-4.47-11.561-19.153-16.516-32.56-16.516-19.151 0-38.303 3.304-57.456 5.505-4.468 2.203-4.468 11.011 1.916 10.461z"></path>
    <path
        d="M991.496 756.223c3.831 2.753 6.384 7.157-0.638 6.607-2.874-0.276-5.747-0.687-8.619-1.101s-5.745-0.826-8.618-1.102c-6.703-0.825-13.567-1.651-20.43-2.477s-13.725-1.651-20.428-2.477c-4.468-0.55-9.576 1.653-8.938 6.057 0.639 6.055 4.47 9.909 10.854 12.662 1.539 0.442 14.206 4.44 13.825 7.136-0.041 0.29-0.233 0.566-0.609 0.821-0.479-0.059-0.962-0.112-1.446-0.162-0.125-0.012-0.248-0.025-0.37-0.037-0.182-0.016-0.365-0.034-0.547-0.050l0.175 1.061c-0.057 0.014-0.116 0.027-0.175 0.039-0.237 0.069-0.465 0.142-0.684 0.223-6.621 2.433-4.953 10.252 1.865 11.259 0.082 0.012 0.162 0.023 0.244 0.034 0.16 0.020 0.324 0.036 0.49 0.046 13.137 1.334 24.87 6.7 36.616 12.071 7.661 3.505 15.328 7.011 23.394 9.401 13.479 3.875 27.146 3.555 40.899 3.23 11.649-0.272 23.36-0.549 35.071 1.724 5.745 1.102 12.13 2.753 17.237 4.956 1.596 0.55 3.031 1.101 4.468 1.651 1.435 0.55 2.873 1.101 4.468 1.651 0.123 0.107 0.292 0.232 0.495 0.367 0.276 0.183 0.614 0.381 0.979 0.566-0.34 0.126-0.693 0.276-1.051 0.438-0.516 0.235-1.042 0.495-1.555 0.75-0.994 0.493-1.945 0.967-2.7 1.182-0.62 0.267-1.277 0.534-1.952 0.81-2.112 0.858-4.413 1.793-6.347 3.044-3.619 1.56-7.236 3.398-10.628 5.118-1.394 0.709-2.751 1.398-4.055 2.039-19.151 10.461-37.665 23.123-53.626 37.437-0.828 0.714-1.699 1.448-2.595 2.199-6.002 5.049-13.057 10.984-15.28 18.17-1.916 6.607 1.277 14.315 9.576 15.417 5.298 0.652 10.822-1.017 16.436-2.714 3.856-1.166 7.756-2.344 11.654-2.792 4.468-0.55 9.576 0 12.767 2.753 1.597 1.377 2.874 3.027 4.151 4.68 1.277 1.651 2.554 3.302 4.149 4.678 3.191 2.203 6.383 3.854 10.213 3.854 1.752 0 3.455-0.248 5.070-0.484 4.274-0.623 7.936-1.158 10.252 3.238 5.745 8.808 5.745 21.472 5.108 31.381-0.265 3.772-0.862 7.663-1.46 11.583-2.29 14.963-4.646 30.364 11.036 41.27 17.237 12.112 41.496 8.808 58.733-1.101 8.682-4.846 15.729-11.098 22.777-17.353 1.761-1.564 3.524-3.127 5.312-4.669 5.382-4.974 10.997-9.547 16.564-14.083 3.676-2.995 7.332-5.975 10.886-9.040 3.831-2.753 0-8.808-5.108-7.157-14.747 4.24-25.114 14.144-35.482 24.049-4.443 4.244-8.887 8.489-13.674 12.288-13.406 10.459-39.582 21.47-54.265 5.505-6.637-7.154-5.127-17.201-3.775-26.204 0.208-1.389 0.413-2.751 0.584-4.076 1.914-9.909 2.554-19.269 0.638-29.18-1.277-8.258-3.191-18.167-10.215-24.774-2.552-2.203-6.383-3.854-10.213-4.404-2.044-0.196-4.091 0.096-6.078 0.379-3.596 0.515-7.004 1.001-9.882-1.48-1.277-1.377-2.393-2.753-3.512-4.13-1.117-1.377-2.233-2.753-3.51-4.13-3.193-2.751-7.661-4.404-12.13-5.505-8.938-1.653-17.876 0-26.815 2.203-1.601 0.344-3.202 0.689-4.803 1.17-0.463 0.139-0.926 0.29-1.387 0.454 0.289-0.399 0.563-0.814 0.814-1.209 0.365-0.581 0.679-1.12 0.908-1.517 1.916-2.201 3.831-3.854 6.384-6.055 7.661-7.157 15.96-14.315 24.259-20.922 17.237-12.662 36.389-23.123 56.819-32.481 7.022-3.304 15.96-9.36 9.576-16.518-5.747-6.607-19.791-10.461-29.367-12.662-12.769-3.304-26.175-4.954-39.582-4.954-3.745 0-7.49 0.157-11.236 0.312-10.299 0.431-20.599 0.862-30.898-1.964-9.848-2.525-18.81-6.58-27.714-10.612-8.146-3.686-16.243-7.353-24.934-9.807-0.29-0.082-0.581-0.164-0.873-0.242 0.134-0.271 0.26-0.545 0.376-0.821 1.596-3.793 1.48-8.115-1.12-12.101-0.116-0.175-0.235-0.345-0.358-0.513-0.255-0.347-0.525-0.679-0.809-0.997 0.431 0.053 0.862 0.107 1.291 0.16 9.163 1.134 18.32 2.199 27.327 3.003 12.767 1.101 26.173-3.854 21.066-17.068-4.468-11.561-19.151-16.516-32.558-16.516-14.364 0-28.727 1.857-43.092 3.717-4.789 0.618-9.576 1.238-14.364 1.788-4.468 2.203-4.468 11.011 1.916 10.461 1.060-0.091 2.125-0.183 3.193-0.274 11.796-1.013 24.042-2.066 35.749-3.58 0.287-0.028 0.575-0.059 0.866-0.087 10.726-1.095 24.268-2.475 32.969 4.491zM973.717 759.742c2.89 0.278 5.775 0.693 8.637 1.104l0.011 0.002c2.874 0.413 5.724 0.823 8.57 1.095 1.704 0.132 2.643-0.057 3.095-0.306 0.203-0.112 0.28-0.219 0.313-0.296 0.037-0.080 0.062-0.21 0.025-0.424-0.078-0.458-0.419-1.102-1.049-1.849-0.614-0.727-1.435-1.469-2.344-2.123l-0.018-0.012-0.020-0.014c-4.262-3.414-9.795-4.767-15.693-5.106-5.595-0.322-11.414 0.271-16.646 0.805-0.281 0.028-0.559 0.057-0.837 0.085-7.316 0.946-14.842 1.711-22.33 2.399 5.884 0.721 11.875 1.443 17.866 2.164 6.858 0.825 13.718 1.651 20.419 2.475zM926.198 755.924c-1.409 0.121-2.81 0.242-4.206 0.362-1.070 0.091-2.137 0.183-3.197 0.274-1.815 0.157-3.273-0.353-4.31-1.332-1.019-0.963-1.546-2.301-1.681-3.665-0.265-2.675 0.953-5.841 3.604-7.148l0.139-0.068 0.153-0.018c4.76-0.549 9.529-1.165 14.308-1.783 14.379-1.861 28.823-3.729 43.25-3.729 6.803 0 13.955 1.256 19.999 4.002 6.046 2.748 11.047 7.022 13.39 13.084 1.33 3.444 1.491 6.443 0.675 8.988-0.814 2.545-2.568 4.523-4.856 5.986-4.541 2.899-11.309 3.861-17.793 3.302h-0.004c-8.749-0.782-17.647-1.808-26.549-2.906 2.677 4.185 2.801 8.73 1.161 12.71 6.817 1.936 13.257 4.602 19.606 7.421 1.788 0.794 3.569 1.599 5.348 2.404 8.904 4.030 17.782 8.050 27.548 10.553l0.014 0.004c6.908 1.895 13.837 2.308 20.824 2.239 3.261-0.032 6.525-0.167 9.805-0.305 0.233-0.011 0.467-0.020 0.7-0.030 3.51-0.146 7.038-0.283 10.569-0.283 13.474 0 26.952 1.658 39.792 4.979 4.799 1.104 10.746 2.629 16.226 4.712 5.453 2.075 10.575 4.751 13.599 8.228 1.708 1.916 2.465 3.848 2.406 5.75-0.057 1.886-0.912 3.601-2.146 5.106-2.447 2.983-6.593 5.392-10.126 7.054l-0.007 0.004c-20.389 9.341-39.478 19.769-56.648 32.38-8.277 6.589-16.553 13.727-24.193 20.865l-0.012 0.012-0.012 0.011c-2.536 2.187-4.39 3.788-6.238 5.904-0.107 0.182-0.23 0.395-0.369 0.627 1.313-0.354 2.611-0.636 3.888-0.91l0.021-0.005c8.949-2.203 18.042-3.898 27.174-2.21l0.027 0.005 0.025 0.005c4.511 1.111 9.145 2.805 12.498 5.697l0.037 0.032 0.034 0.036c1.296 1.398 2.429 2.794 3.542 4.164l0.009 0.011c1.108 1.366 2.198 2.709 3.437 4.048 1.943 1.653 4.171 1.811 6.794 1.546 0.778-0.080 1.53-0.187 2.308-0.299 0.591-0.084 1.197-0.171 1.843-0.249 1.441-0.176 2.951-0.287 4.482-0.141l0.020 0.002 0.021 0.004c3.973 0.572 7.969 2.283 10.669 4.611l0.014 0.012 0.014 0.014c7.268 6.837 9.209 17.041 10.482 25.271 1.938 10.042 1.288 19.509-0.636 29.473-0.176 1.355-0.383 2.734-0.593 4.126-0.568 3.786-1.152 7.679-1.152 11.49 0 5.179 1.090 10.014 4.71 13.916l0.002 0.004c7.050 7.667 16.892 8.917 26.777 6.887 9.889-2.030 19.659-7.323 26.28-12.489 3.955-3.14 7.683-6.591 11.389-10.114 0.739-0.702 1.476-1.407 2.217-2.114 2.963-2.832 5.941-5.676 9.020-8.388 7.7-6.778 16.113-12.792 26.822-15.873 2.96-0.951 5.587 0.333 6.903 2.28 0.659 0.972 1.012 2.142 0.887 3.312-0.126 1.177-0.734 2.287-1.868 3.115-3.59 3.095-7.25 6.076-10.92 9.066-5.542 4.515-11.107 9.049-16.48 14.012l-0.011 0.011-0.012 0.011c-1.767 1.524-3.515 3.076-5.27 4.632-7.052 6.26-14.19 12.594-22.963 17.49-17.406 10.005-42.059 13.437-59.682 1.056-5.065-3.524-8.326-7.531-10.324-11.868-1.993-4.328-2.703-8.935-2.744-13.629-0.041-4.687 0.588-9.496 1.296-14.231 0.121-0.809 0.244-1.615 0.367-2.418 0.6-3.918 1.188-7.765 1.451-11.496 0.317-4.937 0.474-10.516-0.157-15.942-0.629-5.43-2.039-10.648-4.808-14.893l-0.023-0.034-0.020-0.037c-0.727-1.378-1.558-2.158-2.452-2.604-0.906-0.452-1.961-0.6-3.2-0.568-1.133 0.028-2.347 0.207-3.69 0.402-0.139 0.020-0.281 0.041-0.426 0.061-1.487 0.215-3.099 0.431-4.766 0.431-4.105 0-7.481-1.777-10.719-4.011l-0.039-0.027-0.037-0.032c-1.663-1.435-2.987-3.147-4.247-4.776l-0.025-0.034c-1.286-1.663-2.509-3.241-4.027-4.55-2.906-2.506-7.697-3.083-12.078-2.543l-0.007 0.002c-3.811 0.438-7.615 1.587-11.465 2.75-0.889 0.269-1.777 0.538-2.671 0.798-4.71 1.378-9.496 2.532-14.163 1.957l-0.009-0.002c-4.429-0.588-7.547-2.958-9.28-6.096-1.72-3.115-2.052-6.938-1.033-10.45l0.004-0.014c1.339-4.335 4.333-8.172 7.72-11.583 2.513-2.527 5.303-4.874 7.864-7.029 0.885-0.744 1.743-1.466 2.554-2.164 16.017-14.364 34.586-27.064 53.788-37.551l0.016-0.009 0.016-0.007c1.284-0.632 2.63-1.316 4.019-2.021 3.378-1.715 7.015-3.56 10.637-5.125 2-1.282 4.386-2.251 6.491-3.106 0.661-0.269 1.293-0.525 1.875-0.778l0.053-0.021 0.053-0.016c0.67-0.192 1.517-0.613 2.497-1.099 0.28-0.139 0.572-0.283 0.873-0.429 0.089-0.043 0.178-0.087 0.267-0.13 0 0 0 0.002 0 0-1.549-0.538-2.954-1.076-4.344-1.608l-0.004-0.002c-1.437-0.55-2.86-1.097-4.44-1.642l-0.032-0.011-0.030-0.012c-5.024-2.166-11.337-3.804-17.052-4.899h-0.004c-11.611-2.253-23.226-1.98-34.893-1.708-1.047 0.025-2.094 0.050-3.141 0.073-12.687 0.274-25.418 0.281-38.011-3.337l-0.007-0.004c-8.131-2.41-15.873-5.95-23.541-9.458-2.034-0.93-4.064-1.857-6.094-2.762-9.716-4.328-19.499-8.13-30.198-9.216-4.167-0.305-6.938-2.889-7.501-5.884-0.281-1.496 0-3.061 0.917-4.408 0.826-1.216 2.137-2.206 3.914-2.828l-0.235-1.419 1.145 0.102c0.671 0.059 1.339 0.128 2.002 0.205 0.005-0.007 0.009-0.012 0.011-0.016-0.002-0.011-0.007-0.034-0.023-0.071-0.094-0.212-0.395-0.563-1.028-1.017-0.602-0.431-1.398-0.885-2.313-1.339-3.677-1.822-8.885-3.455-9.827-3.726l-0.053-0.016-0.052-0.023c-6.548-2.823-10.694-6.887-11.385-13.369-0.374-2.637 1.006-4.6 2.987-5.765 0.089-0.052 0.178-0.103 0.271-0.151z"></path>
    <path
        d="M1223.871 970.392c6.384-4.956 14.683-2.753 22.345-2.203s15.321 0.55 22.345-2.203c13.406-4.954 21.066-16.516 32.558-24.223 6.384-3.854 14.044-6.057 21.705-4.404 8.938 1.651 13.406 9.358 21.705 12.112 7.024 2.203 15.323 0 22.345-1.101 7.661-1.653 14.683-3.854 21.068-7.708 5.108-3.304 10.213-7.157 12.767-12.113 3.831-6.605 1.277-13.763 7.024-19.819 3.829-4.404 8.299-8.258 7.022-14.313-1.277-6.057-8.299-8.81-14.683-9.36-7.661-1.101-15.323-0.55-22.345 1.653-5.745 1.651-16.598 5.505-19.791 11.009-0.638 0.552-1.277 1.102-1.277 1.102 1.916 1.651 1.916 1.651 0.639 0 0-0.55-1.277-2.203-1.277-2.753-1.277-2.203-2.554-4.404-5.108-6.057-5.745-4.404-14.683-4.404-21.068-1.101-7.022 3.304-9.576 12.112-17.235 14.315-8.301 2.753-17.876-4.404-22.984-9.36-12.767-11.561-22.982-25.874-29.367-40.739-3.191-7.157-5.106-14.315-7.022-21.472-1.277-6.607-5.745-20.37 0-25.326 6.384-5.505 16.599-9.358 24.259-13.763 8.938-4.956 17.237-9.911 26.175-14.865 17.237-9.36 33.197-20.371 51.072-28.629 10.215-4.404 17.237-1.101 27.45-1.101 7.661 0 14.683-3.304 21.707-6.057 3.191-1.101 7.022-2.751 10.853-2.751 4.468 0 8.938 1.651 12.767 2.201 7.024 1.102 13.406-1.101 19.153-4.954 5.108-3.304 8.299-8.258 13.406-11.561 7.022-5.506 15.96-4.404 24.897-6.607 8.938-2.201 15.96-6.607 23.621-11.011 9.576-4.954 16.598-7.157 28.090-6.605 17.875 1.101 37.028-1.102 40.219-19.271 1.277-9.358 1.914-18.717 5.108-28.627 2.554-8.808 5.108-19.819 16.598-23.123 9.576-2.753 16.599-5.506 24.259-11.561 7.024-6.057 15.323-15.965 26.813-14.315 5.108 0.55 8.938-5.505 3.831-8.258-17.875-8.808-30.643 5.505-42.773 14.865-6.383 5.505-14.044 6.055-22.343 8.808-7.661 3.304-12.131 9.36-15.323 15.965-3.831 7.708-6.384 15.967-8.299 24.225-0.639 3.854-1.277 7.708-1.914 11.561-0.639 4.404-0.002 9.909-3.831 13.212-6.384 5.506-18.514 2.753-25.536 2.203-8.938-0.55-17.237 1.101-25.538 4.954-7.022 3.304-13.406 7.708-20.428 11.011-8.936 3.854-18.514 2.753-27.45 5.505-5.747 2.203-10.215 6.057-14.683 9.911-4.47 4.404-8.938 10.461-16.599 9.36-8.299-1.653-14.044-3.304-22.982-1.653-8.299 2.203-15.96 7.708-24.259 7.708-4.468 0-8.938-1.651-14.044-1.651-4.47-0.55-8.938 0.55-13.406 1.651-9.578 2.753-17.237 8.258-25.538 13.214-17.235 9.909-34.472 19.269-51.709 29.178-8.299 4.404-16.599 9.36-24.898 13.764-7.661 4.404-14.683 7.708-16.598 15.965-1.916 7.157 0 15.415 1.277 22.573 1.277 8.808 3.831 17.066 7.66 25.326 6.384 14.313 14.683 28.077 26.175 40.189 9.576 10.461 22.982 22.573 40.219 21.472 8.299-0.55 14.683-4.404 19.791-9.36 1.914-2.201 5.108-6.605 8.938-7.156 3.829-0.552 4.468 3.302 6.383 6.055 3.193 4.404 8.938 7.708 15.323 5.506 3.191-1.102 5.745-3.304 8.299-4.956 3.831-3.304 7.661-5.505 12.13-7.157 3.831-1.101 7.661-1.651 11.492-2.201 1.914 0 3.829 0 5.745 0.55 1.277 0 3.191-1.651 0 0-6.384 3.854-8.938 11.561-9.576 18.168-0.639 8.258-5.108 12.662-14.046 15.415-6.384 2.201-21.066 7.157-27.45 3.854-3.831-2.203-7.024-5.506-10.853-7.708-3.831-1.653-8.301-3.304-12.769-3.854-8.938-1.653-17.875-0.55-26.173 2.751-14.683 6.607-21.707 23.125-37.028 28.079-14.683 4.404-31.92-1.653-42.135 11.561-2.554 4.954 1.916 7.708 5.108 6.057z"></path>
    <path
        d="M1224.353 971.146l-0.073 0.037c-1.916 0.99-4.238 0.677-5.72-0.687-1.553-1.428-2.007-3.815-0.588-6.568l0.037-0.073 0.050-0.064c5.334-6.899 12.505-8.73 20.013-9.426 2.228-0.207 4.543-0.317 6.851-0.426v0h0.004c1.535-0.073 3.067-0.146 4.57-0.248 3.815-0.256 7.563-0.696 11.136-1.767 7.426-2.404 12.872-7.615 18.386-13.196 0.344-0.347 0.687-0.696 1.033-1.047 5.141-5.225 10.457-10.625 17.51-13.798l0.036-0.014c8.434-3.357 17.533-4.484 26.64-2.807 4.588 0.57 9.139 2.26 12.984 3.918l0.046 0.020 0.045 0.025c1.971 1.133 3.768 2.543 5.508 3.905l0.025 0.020c1.758 1.38 3.458 2.71 5.302 3.774 1.407 0.721 3.344 1.026 5.647 0.992 2.296-0.034 4.869-0.401 7.471-0.944 5.205-1.088 10.425-2.862 13.618-3.962l0.012-0.005 0.014-0.004c4.393-1.353 7.581-3.081 9.747-5.4 2.15-2.301 3.366-5.262 3.674-9.234v-0.016c0.588-6.082 2.789-13.285 8.229-17.613-1.115-0.126-2.255-0.13-3.448-0.13-3.807 0.547-7.547 1.088-11.278 2.158-4.358 1.613-8.087 3.759-11.825 6.985l-0.046 0.039-0.052 0.034c-0.622 0.402-1.247 0.841-1.897 1.296l-0.096 0.069h-0.004c-0.614 0.433-1.252 0.882-1.907 1.314-1.384 0.912-2.892 1.783-4.589 2.369-6.872 2.372-12.993-1.216-16.332-5.823l-0.011-0.014c-0.513-0.739-0.937-1.544-1.32-2.274l-0.004-0.005c-0.395-0.753-0.748-1.419-1.145-1.982-0.394-0.556-0.794-0.949-1.25-1.186-0.443-0.23-1.010-0.351-1.808-0.237-1.635 0.235-3.222 1.316-4.7 2.723-1.088 1.038-2.034 2.167-2.858 3.152-0.294 0.351-0.572 0.682-0.833 0.987l-0.025 0.027-0.028 0.027c-5.211 5.056-11.782 9.041-20.35 9.61h-0.004c-17.689 1.129-31.354-11.298-40.926-21.753-11.574-12.199-19.921-26.051-26.334-40.428-3.861-8.324-6.44-16.658-7.731-25.552-0.134-0.75-0.274-1.516-0.419-2.294v-0.002c-0.536-2.899-1.104-5.973-1.423-9.041-0.404-3.9-0.413-7.871 0.581-11.593 1.015-4.36 3.385-7.405 6.445-9.902 2.509-2.046 5.526-3.756 8.639-5.519 0.641-0.363 1.288-0.73 1.934-1.102l0.014-0.007 0.012-0.007c4.139-2.196 8.277-4.531 12.429-6.871l0.005-0.004c4.142-2.335 8.295-4.677 12.45-6.881 8.619-4.956 17.237-9.772 25.849-14.585v-0.002l0.004-0.002c8.618-4.815 17.228-9.629 25.839-14.58 1.578-0.942 3.14-1.909 4.705-2.878l0.002-0.002c6.577-4.073 13.182-8.164 21.034-10.42l0.016-0.005 0.096-0.023c4.395-1.085 8.981-2.214 13.595-1.658 0.458 0 0.912 0.014 1.361 0.039l74.959-12.658c0.294-0.299 0.588-0.595 0.885-0.889l0.021-0.021 0.073-0.062c4.436-3.825 9.004-7.766 14.895-10.023l0.028-0.011 0.028-0.009c2.381-0.734 4.807-1.2 7.232-1.555l35.015-12.078c1.804-0.994 3.637-1.955 5.515-2.839l0.004-0.002c8.427-3.914 16.874-5.597 25.967-5.036h0.014c0.44 0.036 0.901 0.078 1.38 0.128l26.952-14.149c0.027-0.214 0.053-0.426 0.084-0.634l0.004-0.018 1.92-11.59 0.005-0.027c1.925-8.295 4.497-16.624 8.367-24.414 3.239-6.705 7.836-12.972 15.77-16.393l0.036-0.016 0.037-0.011c2.103-0.698 4.16-1.256 6.148-1.781l0.657-0.173c0.589-0.155 1.174-0.31 1.751-0.465l10.897-4.295c0.887-0.566 1.751-1.202 2.589-1.925l0.018-0.016 0.020-0.014c1.695-1.309 3.369-2.686 5.079-4.092l0.002-0.002c1.366-1.124 2.757-2.267 4.198-3.409 3.197-2.532 6.539-4.963 10.083-6.826 7.132-3.747 15.098-5.188 24.35-0.63l0.014 0.007 0.014 0.009c1.443 0.776 2.347 1.843 2.705 3.060 0.358 1.209 0.141 2.449-0.427 3.512-1.126 2.103-3.704 3.67-6.627 3.355l-0.016-0.002-0.014-0.002c-0.429-0.062-0.853-0.107-1.272-0.135l-22.124 11.811c-0.915 0.842-1.816 1.66-2.71 2.431l-0.028 0.025c-2.356 1.863-4.653 3.417-6.977 4.757l-33.206 28.189c-0.125 0.431-0.248 0.862-0.372 1.288l-0.007 0.025c-2.511 7.797-3.421 15.228-4.336 22.685v0c-0.235 1.927-0.472 3.856-0.735 5.791l-0.002 0.018-0.004 0.016c-1.662 9.456-7.517 14.772-15.178 17.543-7.597 2.748-17.002 3.013-25.967 2.461-11.289-0.54-18.152 1.605-27.614 6.498-0.762 0.438-1.519 0.878-2.274 1.316l-0.004 0.002c-6.787 3.936-13.387 7.763-21.557 9.777-2.953 0.727-5.961 1.108-8.838 1.471h-0.002c-1.51 0.191-2.985 0.378-4.397 0.607-4.174 0.679-7.987 1.749-11.323 4.363l-0.032 0.025-0.034 0.023c-2.463 1.592-4.475 3.59-6.559 5.663l-0.028 0.028v0.002c-2.055 2.044-4.185 4.162-6.814 5.864-5.864 3.932-12.47 6.235-19.773 5.092-1.441-0.208-2.981-0.57-4.532-0.933-0.559-0.13-1.118-0.262-1.676-0.386-2.141-0.479-4.295-0.873-6.429-0.873-3.036 0-6.071 1.093-8.906 2.116-0.554 0.199-1.101 0.395-1.638 0.582-0.919 0.36-1.845 0.732-2.775 1.108l-0.005 0.002c-6.080 2.449-12.413 5.001-19.233 5.001-2.602 0-4.992-0.21-7.257-0.452-0.572-0.061-1.133-0.125-1.686-0.185v0c-1.654-0.185-3.243-0.363-4.839-0.465-4.212-0.269-8.368 0-13.307 2.126-8.89 4.108-17.315 8.904-25.685 13.855-1.961 1.159-3.921 2.328-5.882 3.499-6.4 3.818-12.828 7.652-19.438 11.241-4.461 2.474-8.764 4.947-13.072 7.424v0l-0.004 0.002c-4.306 2.475-8.618 4.954-13.089 7.433-2.614 1.503-5.54 2.951-8.482 4.406h-0.002c-1.393 0.691-2.789 1.382-4.158 2.080-4.301 2.199-8.368 4.498-11.474 7.177-1.229 1.060-1.961 2.63-2.308 4.598-0.347 1.971-0.297 4.267-0.021 6.669 0.376 3.287 1.143 6.616 1.804 9.487 0.312 1.352 0.6 2.6 0.812 3.697 1.914 7.156 3.813 14.234 6.967 21.308l0.005 0.011c6.333 14.744 16.471 28.955 29.146 40.433l0.012 0.011 0.011 0.011c2.516 2.442 6.116 5.405 10.076 7.414 3.977 2.018 8.181 3.006 12.007 1.738l0.016-0.005 0.018-0.005c3.547-1.019 5.948-3.571 8.427-6.466 0.199-0.233 0.401-0.47 0.602-0.707v0c2.246-2.645 4.65-5.474 8.058-7.083 6.612-3.416 15.905-3.46 21.976 1.17 2.714 1.767 4.076 4.117 5.334 6.288l0.15 0.256v0.185l0.005 0.012c0.018 0.052 0.050 0.126 0.102 0.232 0.094 0.189 0.221 0.411 0.365 0.661 1.82-2.839 5.407-5.157 9.102-6.949 3.889-1.888 8.087-3.279 10.986-4.112 7.147-2.24 14.929-2.798 22.701-1.685 3.271 0.285 6.742 1.134 9.59 2.723 2.862 1.596 5.156 3.984 5.864 7.337 0.698 3.316-0.192 6.028-1.715 8.436-1.113 1.761-2.611 3.419-4.073 5.036l-0.002 0.004c-0.486 0.54-0.969 1.074-1.434 1.606l-0.012 0.016-0.012 0.012c-2.684 2.828-3.446 5.909-3.998 9.237-0.071 0.438-0.141 0.882-0.21 1.332v0c-0.454 2.921-0.939 6.055-2.68 9.066-2.675 5.175-7.964 9.132-13.064 12.432l-0.012 0.007-0.011 0.007c-6.504 3.925-13.634 6.155-21.34 7.814l-0.050 0.011c-1.177 0.183-2.411 0.404-3.679 0.63-2.436 0.435-5.002 0.89-7.535 1.165-3.882 0.417-7.854 0.429-11.535-0.725l-0.014-0.004c-3.918-1.3-7.015-3.665-9.966-5.916v0c-0.303-0.232-0.604-0.461-0.905-0.689-3.264-2.472-6.47-4.693-10.715-5.478l-0.014-0.002-0.012-0.002c-7.367-1.589-14.788 0.515-21.039 4.285-4.331 2.906-8.096 6.356-11.894 9.834-1.175 1.077-2.354 2.157-3.553 3.223-5.047 4.491-10.415 8.71-17.274 11.248-7.216 2.826-15.043 2.81-22.724 2.258-1.439-0.103-2.905-0.265-4.358-0.426l-0.014-0.002c-0.497-0.055-0.992-0.109-1.482-0.16-1.95-0.207-3.866-0.374-5.733-0.374-3.726 0-7.172 0.67-10.147 2.978l-0.064 0.052z"></path>
    <path
        d="M1645.219 602.625c12.767 1.653 24.897 2.203 37.665 2.203 10.853 0 24.259 2.201 35.112-1.102 19.791-6.605 16.598-25.874 20.428-40.189 2.554-7.157 12.769-12.112 12.13-20.371-0.638-4.404-3.191-6.055-6.383-8.258-3.831-2.751-4.47-6.055-4.47-10.459 0-8.26 0-17.618-8.936-23.125-6.384-4.404-15.323-4.404-21.068 0.552 3.831 1.101 7.661 1.651 11.49 2.751-1.275-4.404-1.914-9.909 0-14.313 2.554-6.057 7.024-6.607 14.046-7.157 10.215-0.55 22.345-2.753 24.259-13.214 0.639-3.304-0.638-6.607-4.468-7.157-5.747-1.101-11.492-2.201-17.237-3.854-3.191-0.55-15.323-1.651-12.769-6.055 1.916-2.753 10.215-3.854 13.406-4.956 4.47-1.651 8.301-3.302 11.492-6.055 7.022-4.954 12.13-11.561 14.683-19.269 3.191-9.36-0.639-17.068-1.277-26.426-0.639-8.808 8.938-16.518 3.191-24.775-4.468-6.055-13.406-7.157-20.428-4.954-4.468 1.101-7.661 3.854-12.13 4.954-5.108 1.653-7.661-0.55-10.853-3.854-5.108-5.505-9.576-11.011-17.237-13.763-7.661-2.753-15.321-2.203-22.982-3.304-3.193-0.55-6.384-0.55-8.299-2.753-1.916-2.201-2.554-6.607-3.831-9.358-4.47-7.157-11.492-7.157-18.514-3.304-5.745 2.751-10.853-0.55-15.96-3.304s-10.853-4.954-16.598-7.157c-10.215-4.404-21.068-8.258-31.92-11.011-7.661-2.201-18.514-5.505-24.259 1.101-1.277 1.102-2.554 7.708-3.831 8.26-2.554 1.101-11.492-4.406-14.046-5.506-8.936-4.954-16.598-11.011-23.62-17.618-7.661-7.708-11.492-17.616-19.153-25.874-7.022-8.258-17.237-9.36-28.090-8.81-12.13 1.102-24.259 3.854-35.749 8.26-5.747 2.201-10.854 4.954-15.96 7.708-2.554 1.101-14.046 6.605-13.406 0.55 0.638-7.157-10.215-8.258-14.046-3.304-3.191 3.854-12.767-1.653-15.321-3.304-5.747-3.854-11.492-7.708-18.514-9.358-8.299-1.653-14.046 1.651-21.068 3.302-7.022 1.653-14.683 0.552-21.068-3.302-5.745-3.304-9.576-8.81-10.853-14.865-1.277-6.607 1.916-12.113 2.554-18.168 1.277-12.662-9.576-22.573-11.49-35.235-1.277-8.26-15.96-4.956-14.683 3.302 1.277 7.708 6.383 14.315 9.576 21.472 3.831 7.708 0 14.315-1.277 22.022-1.277 14.865 8.938 29.18 24.897 34.684 7.661 2.753 15.96 3.304 24.261 2.203 4.468-0.552 8.936-3.304 13.406-3.854 5.106 0 8.936 2.751 12.767 4.954 12.13 7.708 29.367 14.315 40.219 1.101-4.468-1.101-9.576-2.201-14.044-3.304-0.639 7.708 6.383 13.764 14.044 15.415 10.215 2.203 19.151-3.304 26.813-7.708 10.853-6.055 22.982-9.909 35.751-11.561 5.108-0.55 11.492-1.651 15.96 0.55 5.108 2.203 7.022 7.708 9.576 12.113 10.215 15.965 24.898 29.178 42.773 38.538 7.022 3.854 17.237 8.808 26.175 4.954 3.829-1.651 5.106-4.954 6.383-7.708 1.277-2.203 0.639-2.753 3.831-2.753s7.661 2.203 10.853 3.304c12.13 3.854 23.621 8.258 35.113 13.214 8.936 3.854 19.151 11.561 30.004 9.358 1.914-0.55 5.108-1.651 6.384-2.753 0.638-0.55-0.639-2.751 0 0.552s2.554 6.605 4.468 8.808c5.108 5.505 12.769 7.157 20.428 7.708 8.301 0.55 16.599 0.55 22.982 6.055 5.747 4.956 8.938 12.113 17.237 14.315 10.215 3.304 16.599-2.751 26.175-4.954 7.022-2.203 3.831 2.753 1.914 6.057-1.914 4.954-2.554 9.358-1.914 14.313 1.914 11.011 5.108 20.371-3.831 30.28-3.831 4.404-8.938 7.157-14.683 8.81-5.108 1.651-10.215 2.201-14.044 4.954-7.661 4.954-10.215 14.865-2.554 20.92 3.831 2.753 8.936 3.854 13.406 4.956 7.66 1.651 15.321 3.304 22.982 4.954-1.277-2.203-3.193-4.954-4.468-7.157-1.277 6.057-14.683 3.854-19.791 4.954-5.747 1.102-10.853 3.854-14.046 7.708-7.022 8.26-6.383 18.719-3.831 28.079 1.277 4.404 7.661 5.505 11.492 2.753 3.831-3.304 6.384 3.854 6.384 5.505 0.638 3.304 0 7.157 0.638 10.461 0.639 4.954 1.277 10.459 5.108 14.313 0.638 1.102 5.745 4.406 5.745 4.406s-5.108 4.404-5.745 4.954c-4.468 4.954-5.745 11.561-7.022 17.618-0.639 6.055-1.277 12.112-3.193 17.616-3.191 7.708-8.936 9.36-17.875 9.36-19.151 0-37.665-0.55-56.817 1.651-5.747 1.653-7.661 7.157-2.554 7.708z"></path>
    <path
        d="M1717.996 603.725c15.088-5.036 16.819-17.433 18.485-29.383 0.52-3.724 1.033-7.405 1.943-10.806 1.051-2.94 3.393-5.51 5.743-8.089 3.373-3.697 6.764-7.417 6.388-12.283-0.622-4.287-3.060-5.966-6.133-8.083l-0.251-0.175c-3.831-2.751-4.47-6.055-4.47-10.459 0-8.26 0-17.618-8.936-23.125-2.931-2.021-6.4-3.115-9.854-3.227-0.297-0.011-0.595-0.012-0.892-0.007-0.016-0.297-0.028-0.593-0.036-0.89-0.048-2.386 0.283-4.764 1.206-6.885 2.554-6.057 7.022-6.607 14.044-7.157 10.215-0.55 22.345-2.753 24.259-13.214 0.639-3.304-0.638-6.607-4.468-7.157-5.745-1.101-11.492-2.201-17.237-3.854-0.383-0.066-0.896-0.141-1.498-0.226-4.399-0.636-13.517-1.954-11.269-5.829 1.384-1.989 6.099-3.117 9.814-4.003 1.426-0.34 2.705-0.646 3.59-0.953 4.47-1.651 8.301-3.302 11.492-6.055 7.022-4.956 12.13-11.561 14.683-19.269 2.16-6.335 1.104-11.91-0.002-17.755-0.529-2.792-1.069-5.645-1.275-8.671-0.26-3.587 1.174-6.99 2.575-10.322 2.044-4.853 4.025-9.556 0.618-14.454-4.47-6.055-13.408-7.157-20.43-4.954-2.233 0.55-4.149 1.514-6.064 2.477s-3.831 1.927-6.066 2.477c-5.108 1.653-7.661-0.55-10.853-3.854-0.513-0.554-1.020-1.106-1.524-1.656-4.513-4.928-8.821-9.631-15.713-12.106-5.108-1.836-10.213-2.203-15.321-2.57-2.554-0.183-5.108-0.367-7.661-0.734-0.6-0.103-1.199-0.187-1.79-0.271-2.556-0.358-4.954-0.695-6.509-2.483-1.207-1.387-1.907-3.649-2.579-5.822-0.395-1.275-0.78-2.52-1.252-3.537-4.468-7.157-11.492-7.157-18.514-3.304-5.291 2.534-10.041-0.066-14.747-2.643-0.404-0.223-0.809-0.443-1.213-0.661-5.108-2.753-10.853-4.954-16.598-7.157-10.215-4.404-21.068-8.258-31.92-11.011-0.162-0.046-0.324-0.093-0.49-0.141-7.627-2.196-18.145-5.225-23.769 1.241-0.609 0.525-1.216 2.297-1.824 4.071-0.67 1.95-1.337 3.9-2.007 4.189-1.936 0.833-7.546-2.13-11.255-4.092-1.182-0.625-2.173-1.149-2.791-1.414-8.936-4.954-16.598-11.011-23.62-17.618-3.964-3.987-6.903-8.566-9.877-13.198-2.775-4.322-5.579-8.692-9.277-12.676-7.022-8.26-17.235-9.36-28.090-8.81-12.13 1.102-24.259 3.854-35.749 8.26-5.747 2.201-10.853 4.954-15.96 7.708-0.173 0.073-0.383 0.167-0.63 0.276-2.921 1.295-10.639 4.712-12.429 2.126-0.178-0.258-0.297-0.575-0.347-0.96-0.034-0.265-0.036-0.561 0-0.892 0.638-7.157-10.215-8.258-14.046-3.304-0.232 0.28-0.497 0.509-0.791 0.696-0.215 0.137-0.445 0.249-0.689 0.34-4.009 1.492-11.609-2.896-13.841-4.34-5.745-3.854-11.492-7.708-18.514-9.36-6.119-1.216-10.849 0.258-15.727 1.779-1.738 0.543-3.496 1.092-5.341 1.524-7.022 1.653-14.683 0.55-21.066-3.304-5.747-3.302-9.578-8.808-10.854-14.863-0.814-4.217 0.191-7.984 1.191-11.732 0.566-2.126 1.133-4.246 1.362-6.436 0.725-7.179-2.45-13.474-5.685-19.885-2.472-4.899-4.976-9.866-5.806-15.349-1.277-8.26-15.96-4.956-14.683 3.302 0.851 5.14 3.405 9.788 5.959 14.438 1.277 2.324 2.554 4.648 3.617 7.034 2.821 5.677 1.487 10.758 0.077 16.12-0.504 1.918-1.017 3.872-1.353 5.902-1.277 14.865 8.938 29.18 24.898 34.684 7.66 2.753 15.96 3.304 24.259 2.203 2.233-0.276 4.468-1.102 6.703-1.927 2.233-0.826 4.468-1.653 6.703-1.927 4.415 0 7.875 2.057 11.207 4.037 0.522 0.31 1.042 0.618 1.56 0.917 8.532 5.421 19.591 10.297 29.178 8.115 0.333-0.075 0.664-0.16 0.992-0.253 0.242 0.242 0.492 0.477 0.748 0.707 2.547 2.271 5.861 3.902 9.301 4.643 9.793 2.112 18.411-2.86 25.856-7.156 0.321-0.185 0.639-0.369 0.956-0.552 10.853-6.055 22.984-9.909 35.751-11.561 0.589-0.062 1.195-0.134 1.813-0.207 4.741-0.554 10.194-1.191 14.147 0.757 4.096 1.767 6.139 5.658 8.105 9.401 0.484 0.924 0.965 1.84 1.471 2.712 10.215 15.965 24.898 29.178 42.773 38.538 7.022 3.854 17.237 8.808 26.175 4.954 3.558-1.535 4.913-4.497 6.112-7.116 0.091-0.199 0.182-0.397 0.271-0.591 0.28-0.483 0.468-0.885 0.625-1.22 0.557-1.197 0.712-1.533 3.206-1.533 2.361 0 5.421 1.206 8.146 2.278 0.958 0.378 1.877 0.739 2.707 1.026 12.131 3.854 23.621 8.258 35.113 13.214 2.125 0.915 4.322 2.050 6.584 3.218 7.248 3.74 15.148 7.82 23.42 6.14 1.558-0.447 3.961-1.259 5.49-2.139 0.31-0.18 0.584-0.36 0.809-0.541 0.023 0.144 0.052 0.303 0.085 0.477 0.030 0.164 0.066 0.326 0.103 0.49 0.723 3.138 2.545 6.226 4.365 8.32 5.108 5.505 12.769 7.157 20.43 7.708 0.739 0.048 1.48 0.094 2.219 0.139 7.546 0.456 14.949 0.903 20.763 5.916 1.849 1.596 3.434 3.417 5.008 5.23 3.321 3.818 6.6 7.592 12.229 9.084 6.942 2.246 12.115 0.167 17.723-2.087 2.643-1.061 5.384-2.162 8.45-2.867 6.678-2.094 4.119 2.283 2.205 5.558-0.098 0.169-0.196 0.335-0.29 0.497-1.914 4.956-2.552 9.36-1.914 14.315 0.221 1.268 0.458 2.513 0.693 3.74 1.797 9.433 3.385 17.771-4.523 26.54-3.831 4.404-8.936 7.157-14.683 8.808-1.548 0.502-3.095 0.901-4.607 1.291-3.478 0.898-6.767 1.747-9.437 3.665-7.661 4.954-10.215 14.865-2.554 20.92 3.549 2.55 8.194 3.683 12.411 4.712 0.335 0.082 0.668 0.162 0.996 0.244l9.939 2.142c-1.134 0.091-2.303 0.135-3.453 0.166-0.584 0.016-1.165 0.027-1.733 0.037-2.376 0.046-4.55 0.087-6.030 0.406-5.745 1.102-10.853 3.854-14.046 7.708-5.991 7.047-6.406 15.695-4.812 23.896 0.016 0.085 0.032 0.169 0.050 0.253 0.264 1.325 0.581 2.637 0.933 3.93 1.277 4.404 7.66 5.505 11.49 2.751 3.831-3.302 6.384 3.854 6.384 5.506 0.319 1.651 0.319 3.441 0.319 5.23s0 3.578 0.319 5.23l0.039 0.303c0.627 4.876 1.316 10.236 5.068 14.010 0.483 0.833 3.521 2.924 4.974 3.895 0.468 0.313 0.771 0.511 0.771 0.511l-5.745 4.954c-4.328 4.798-5.661 11.145-6.901 17.041-0.041 0.192-0.080 0.385-0.121 0.577-0.639 6.055-1.277 12.112-3.191 17.616-3.193 7.708-8.938 9.36-17.876 9.36-3.204 0-6.39-0.016-9.563-0.032-15.8-0.077-31.306-0.151-47.254 1.683-5.747 1.653-7.661 7.157-2.554 7.708 12.767 1.653 24.897 2.203 37.665 2.203 3.017 0 6.229 0.169 9.531 0.344 8.577 0.454 17.745 0.94 25.58-1.446zM1739.276 563.802c-0.889 3.337-1.394 6.954-1.914 10.683l-0.078 0.563c-0.549 3.916-1.134 7.936-2.231 11.722-1.101 3.795-2.725 7.398-5.376 10.482-2.659 3.093-6.311 5.62-11.396 7.319l-0.023 0.007c-5.565 1.694-11.745 1.966-17.835 1.827-2.709-0.062-5.416-0.205-8.051-0.344-0.333-0.018-0.662-0.036-0.994-0.053-2.953-0.155-5.804-0.29-8.491-0.29-12.792 0-24.959-0.552-37.77-2.208-1.419-0.155-2.532-0.675-3.179-1.567-0.661-0.908-0.7-2.018-0.353-3.044 0.679-2.009 2.883-3.957 5.945-4.837l0.069-0.021 0.075-0.009c16.005-1.84 31.573-1.765 47.375-1.688 3.17 0.016 6.349 0.032 9.544 0.032 4.438 0 7.946-0.415 10.715-1.706 2.718-1.266 4.805-3.416 6.327-7.081 1.868-5.385 2.5-11.326 3.14-17.394l0.004-0.045 0.011-0.046c0.045-0.215 0.091-0.431 0.135-0.648 1.227-5.839 2.605-12.4 7.097-17.381l0.037-0.041 4.897-4.224c-0.472-0.317-1.065-0.723-1.678-1.156-0.684-0.488-1.402-1.017-1.993-1.499-0.296-0.24-0.568-0.479-0.794-0.7-0.182-0.176-0.369-0.376-0.509-0.584-3.909-3.989-4.627-9.585-5.238-14.352-0.016-0.126-0.032-0.253-0.050-0.379-0.329-1.727-0.329-3.578-0.329-5.327v-0.045c0-1.808-0.004-3.508-0.303-5.061l-0.016-0.084v-0.085c0-0.262-0.119-0.905-0.408-1.726-0.281-0.8-0.687-1.665-1.184-2.372-0.511-0.723-1.044-1.172-1.542-1.32-0.424-0.126-0.996-0.089-1.777 0.586l-0.030 0.027-0.032 0.021c-2.142 1.54-4.958 1.984-7.41 1.455-2.456-0.529-4.701-2.078-5.457-4.682l-0.004-0.014c-2.575-9.442-3.304-20.282 4.009-28.886 3.348-4.039 8.651-6.874 14.55-8.007 1.131-0.242 2.605-0.331 4.192-0.378l-2.953-0.638c-0.335-0.082-0.675-0.166-1.020-0.249-4.183-1.019-8.995-2.19-12.692-4.848l-0.016-0.011-0.016-0.012c-4.085-3.23-5.487-7.544-4.796-11.718 0.684-4.13 3.4-8.044 7.4-10.637 2.037-1.46 4.383-2.317 6.799-3.011 0.996-0.285 1.98-0.54 2.967-0.794 1.483-0.381 2.97-0.764 4.506-1.261l0.014-0.005 0.014-0.004c5.629-1.619 10.569-4.297 14.258-8.537l0.011-0.012c4.315-4.783 5.679-9.389 5.756-14.144 0.061-3.715-0.659-7.489-1.437-11.57-0.235-1.241-0.477-2.511-0.705-3.816l-0.002-0.020-0.004-0.020c-0.659-5.12 0.007-9.674 1.968-14.749l0.025-0.064 0.036-0.061c0.098-0.169 0.196-0.338 0.297-0.509 0.402-0.691 0.821-1.405 1.177-2.1 0.454-0.889 0.746-1.624 0.805-2.141 0.028-0.248-0.007-0.353-0.021-0.379-0.005-0.011-0.009-0.016-0.018-0.023-0.005-0.004-0.018-0.012-0.039-0.023-0.018-0.009-0.045-0.021-0.082-0.032-0.162-0.052-0.467-0.087-0.983-0.027-0.508 0.061-1.168 0.208-2.014 0.474l-0.034 0.011-0.034 0.007c-2.329 0.536-4.477 1.309-6.568 2.13-0.575 0.226-1.152 0.456-1.727 0.687-1.491 0.6-2.979 1.197-4.466 1.701-4.173 1.41-8.523 2.144-13.864 0.424-4.361-1.163-7.366-3.629-9.969-6.365-0.924-0.972-1.815-1.996-2.691-3.006-0.349-0.401-0.696-0.8-1.042-1.191-1.231-1.394-2.475-2.734-3.864-3.932-5.574-4.807-12.667-5.239-20.268-5.704-0.727-0.045-1.457-0.089-2.192-0.137h-0.004c-7.7-0.554-15.666-2.221-21.018-7.991l-0.011-0.011-0.009-0.011c-1.838-2.114-3.688-5.209-4.493-8.422-0.597 0.324-1.266 0.622-1.923 0.887-1.232 0.495-2.54 0.919-3.519 1.2l-0.034 0.009-0.036 0.007c-5.685 1.154-11.152-0.301-16.245-2.461-2.548-1.081-5.029-2.353-7.412-3.581l-0.338-0.175c-2.271-1.172-4.441-2.294-6.538-3.197-11.469-4.945-22.932-9.339-35.030-13.182l-0.021-0.007c-0.819-0.283-1.715-0.634-2.629-0.994l-0.11-0.045c-0.885-0.347-1.792-0.705-2.698-1.031-1.907-0.686-3.697-1.186-5.125-1.186-0.789 0-1.268 0.036-1.581 0.102-0.285 0.061-0.367 0.132-0.411 0.178-0.082 0.084-0.166 0.224-0.342 0.602-0.021 0.043-0.041 0.087-0.064 0.135-0.151 0.328-0.351 0.753-0.639 1.257-0.087 0.187-0.175 0.378-0.264 0.573-1.184 2.6-2.673 5.864-6.559 7.54-4.721 2.036-9.732 1.724-14.393 0.454-4.652-1.266-9.036-3.51-12.555-5.441-17.999-9.426-32.8-22.742-43.102-38.844l-0.011-0.016-0.009-0.018c-0.516-0.889-1.008-1.827-1.496-2.753-0.125-0.24-0.251-0.479-0.378-0.718-0.616-1.166-1.238-2.306-1.932-3.371-1.387-2.126-3.024-3.893-5.353-4.897l-0.021-0.011-0.020-0.009c-2.043-1.006-4.584-1.284-7.325-1.216-2.105 0.052-4.244 0.301-6.299 0.541-0.622 0.073-1.234 0.144-1.838 0.21-12.658 1.638-24.674 5.458-35.416 11.451-0.338 0.194-0.679 0.392-1.022 0.589-7.382 4.262-16.281 9.399-26.417 7.214-3.767-0.812-7.398-2.648-10.121-5.229-3.049 0.778-6.238 0.853-9.44 0.424-7.362-0.988-14.826-4.637-20.932-8.516-0.531-0.306-1.056-0.618-1.58-0.928-3.327-1.973-6.546-3.882-10.673-3.898-2.094 0.265-4.212 1.044-6.449 1.872l-0.052 0.018c-2.198 0.812-4.511 1.669-6.847 1.955-8.407 1.117-16.851 0.563-24.667-2.244-16.277-5.617-26.807-20.266-25.49-35.601l0.004-0.036 0.005-0.034c0.326-1.973 0.816-3.868 1.293-5.69 0.025-0.094 0.050-0.187 0.075-0.281 0.456-1.733 0.892-3.394 1.188-5.051 0.618-3.464 0.604-6.831-1.199-10.457l-0.007-0.018-0.009-0.016c-1.049-2.354-2.294-4.621-3.56-6.924-0.643-1.17-1.291-2.351-1.922-3.556-1.847-3.533-3.498-7.213-4.158-11.209l-0.002-0.009c-0.743-4.798 3.175-7.975 7.068-8.851 1.98-0.445 4.105-0.349 5.861 0.475 1.793 0.844 3.147 2.431 3.514 4.799v0.004c0.807 5.332 3.239 10.158 5.715 15.066 0.383 0.76 0.766 1.523 1.145 2.288 2.796 5.649 5.303 11.496 4.637 18.103v0.004c-0.24 2.265-0.832 4.488-1.405 6.636-0.214 0.798-0.422 1.585-0.611 2.36-0.707 2.914-1.15 5.791-0.55 8.904 1.227 5.809 4.905 11.095 10.423 14.268l0.016 0.009c6.181 3.731 13.602 4.799 20.403 3.2 1.72-0.406 3.368-0.912 5.026-1.43 0.087-0.027 0.175-0.053 0.26-0.080 1.564-0.488 3.141-0.979 4.76-1.378 3.434-0.846 7.084-1.28 11.399-0.422l0.014 0.004 0.016 0.004c7.179 1.688 13.040 5.619 18.745 9.448l0.053 0.034c1.252 0.81 4.214 2.554 7.229 3.621 1.514 0.536 2.979 0.878 4.222 0.878 1.229 0 2.119-0.329 2.687-1.008 2.173-2.8 6.21-3.8 9.547-3.211 1.692 0.301 3.298 1.022 4.449 2.223 1.168 1.223 1.811 2.89 1.629 4.928l-0.002 0.014c-0.066 0.632 0.037 0.996 0.164 1.206 0.121 0.199 0.324 0.363 0.68 0.474 0.78 0.242 2.028 0.144 3.567-0.23 2.605-0.634 5.51-1.918 7.106-2.625 0.235-0.103 0.442-0.196 0.616-0.271 5.090-2.743 10.235-5.515 16.030-7.736 11.57-4.436 23.78-7.205 35.988-8.315l0.018-0.002h0.018c10.888-0.552 21.488 0.52 28.8 9.106 3.745 4.041 6.586 8.466 9.346 12.767 0.105 0.164 0.21 0.326 0.313 0.488 2.874 4.477 5.699 8.799 9.449 12.575 6.97 6.557 14.559 12.553 23.394 17.456 0.652 0.285 1.649 0.812 2.778 1.409l0.157 0.084c1.238 0.654 2.659 1.403 4.078 2.084 1.423 0.682 2.812 1.279 3.986 1.637 0.586 0.18 1.092 0.292 1.505 0.331 0.388 0.037 0.629 0.004 0.76-0.043 0.016-0.016 0.061-0.062 0.128-0.164 0.118-0.173 0.253-0.427 0.402-0.764 0.301-0.671 0.607-1.544 0.928-2.481l0.093-0.267c0.287-0.837 0.584-1.704 0.883-2.436 0.166-0.408 0.342-0.796 0.525-1.126 0.164-0.297 0.367-0.607 0.622-0.842 3.134-3.571 7.606-4.399 12.103-4.117 4.304 0.271 8.812 1.569 12.523 2.637 0.167 0.050 0.335 0.098 0.5 0.144 10.895 2.766 21.784 6.632 32.024 11.047l0.012 0.005c5.725 2.194 11.515 4.413 16.673 7.193 0.417 0.224 0.83 0.449 1.238 0.673 2.153 1.179 4.222 2.31 6.347 2.976 2.472 0.776 4.937 0.889 7.547-0.354 3.599-1.971 7.296-3.013 10.735-2.568 3.489 0.451 6.582 2.415 8.94 6.192l0.030 0.046 0.023 0.050c0.499 1.077 0.91 2.41 1.311 3.702 0.135 0.436 0.269 0.867 0.404 1.284 0.561 1.727 1.154 3.214 1.979 4.164 0.785 0.903 1.857 1.391 3.207 1.713 0.675 0.162 1.4 0.278 2.173 0.39 0.187 0.027 0.378 0.053 0.57 0.080 0.591 0.082 1.206 0.169 1.816 0.274 2.52 0.362 5.013 0.54 7.542 0.721 1.286 0.093 2.579 0.185 3.889 0.303 3.859 0.347 7.777 0.906 11.713 2.32 7.109 2.556 11.567 7.424 16.063 12.338 0.504 0.55 1.010 1.102 1.519 1.651 1.603 1.658 2.93 2.91 4.429 3.587 1.441 0.65 3.122 0.803 5.503 0.034l0.030-0.011 0.032-0.007c2.121-0.524 3.952-1.441 5.877-2.41l0.036-0.016c1.888-0.951 3.872-1.948 6.194-2.523 7.213-2.251 16.603-1.19 21.381 5.284l0.014 0.021c3.145 4.52 2.034 8.901 0.417 13.015-0.313 0.798-0.639 1.573-0.963 2.34-0.531 1.259-1.052 2.499-1.496 3.791-0.7 2.036-1.14 4.039-0.992 6.073v0.004c0.157 2.288 0.508 4.488 0.905 6.662 0.116 0.627 0.233 1.256 0.353 1.884 0.29 1.533 0.581 3.068 0.81 4.595 0.648 4.336 0.825 8.764-0.837 13.633-2.616 7.889-7.834 14.635-14.977 19.684-3.316 2.849-7.266 4.539-11.731 6.189l-0.018 0.007c-0.848 0.292-2.011 0.577-3.255 0.876-0.139 0.032-0.28 0.066-0.42 0.1-1.145 0.274-2.369 0.566-3.558 0.898-1.339 0.374-2.602 0.789-3.637 1.268s-1.727 0.971-2.075 1.451c-0.219 0.388-0.235 0.655-0.196 0.842 0.043 0.207 0.18 0.454 0.502 0.737 0.67 0.591 1.881 1.117 3.417 1.558 2.297 0.661 4.965 1.047 6.863 1.321 0.623 0.089 1.163 0.167 1.58 0.24l0.048 0.007 0.046 0.014c5.695 1.637 11.394 2.73 17.139 3.831 2.167 0.317 3.686 1.435 4.543 2.995 0.841 1.532 0.999 3.403 0.654 5.204-1.029 5.613-4.819 8.977-9.545 10.979-4.694 1.987-10.402 2.682-15.529 2.96-3.539 0.276-6.26 0.549-8.416 1.446-2.080 0.867-3.674 2.337-4.869 5.168l-0.004 0.009c-0.866 1.989-1.179 4.246-1.129 6.536 3.642 0.107 7.296 1.256 10.375 3.375 9.342 5.768 9.342 15.584 9.341 23.723v0.146c0 2.173 0.16 3.97 0.743 5.539 0.572 1.539 1.571 2.914 3.352 4.194 0.089 0.062 0.18 0.125 0.269 0.187 1.469 1.012 2.896 1.993 4.027 3.247 1.236 1.371 2.11 3.049 2.454 5.425l0.005 0.028 0.002 0.030c0.351 4.534-2.296 8.090-5.088 11.255-0.52 0.589-1.040 1.159-1.555 1.724-0.906 0.996-1.795 1.968-2.623 2.981-1.272 1.558-2.31 3.108-2.901 4.744z"></path>
    <path
        d="M1290.894 199.621c2.554-4.404 3.831-8.808 2.554-13.764-0.639-2.201-1.916-4.404-3.831-6.605-1.916-2.203-5.108-3.304-7.022-4.955-1.916-1.652-1.277-4.955-1.916-7.157s-1.914-4.404-3.831-6.056c-4.468-3.854-10.853-4.955-16.598-4.404-7.022 0.55-12.769 3.303-19.791 4.955-7.661 1.652-13.406-4.955-20.428-7.157-14.046-4.404-30.006-1.652-44.050 1.101 3.191 2.753 6.384 5.505 8.938 7.708 6.383-21.471 3.191-44.044-8.301-63.313-1.275 3.303-3.191 6.056-4.468 9.359 16.599-4.404 36.389-12.112 35.751-29.729-0.639-7.157-5.745-12.112-12.13-15.966-8.299-4.955-14.683-9.91-19.153-18.168-7.66-13.764-12.13-31.932-29.365-40.19-13.406-6.607-32.56-3.854-39.582 8.258 4.468 0 8.299 0 12.769 0-7.661-13.764-28.729-13.213-42.773-7.708-10.215 3.854-20.43 11.011-31.92 8.809-9.576-1.652-17.876-6.607-27.452-6.607-22.345 0-21.068 23.123-36.389 31.381-7.661 3.854-16.598 4.955-24.898 2.202-8.936-3.303-16.598-7.708-26.813-8.258-9.576 0-19.151 3.303-28.090 6.056-8.299 2.753-18.512 7.157-26.813 3.303-3.191-1.652-6.383-1.101-9.576 1.101-29.367 20.37-39.58 53.403-42.134 84.784-0.639 9.359-0.639 18.719-0.639 28.078 0 4.404 0 9.359-0.638 13.764 0-1.652-0.639 2.202-0.639 1.652-0.638 0 3.831-1.652 3.831-1.101 0 0-2.554-4.404-2.554-4.955-0.638-3.303-1.277-7.157-1.914-11.011-1.916-8.809-5.745-17.617-11.492-25.325-10.853-13.764-28.727-21.471-47.241-13.764-3.191 1.101-7.661 3.854-10.853 4.404-3.831 0-6.384-3.303-10.215-4.404-5.745-2.202-11.49 0-15.96 3.854-1.914 1.652-6.384 9.91-10.213 9.91-1.916 0 1.277 0.55 0 0-0.639-0.551-1.277-3.303-1.277-4.404-0.639-3.303-1.277-6.606-2.554-9.91-5.747-13.213-24.259-17.617-38.305-12.663-9.576 3.303-15.96 9.91-21.068 17.067-1.277 1.652-2.552 3.854-3.191 5.505-0.638 1.101-1.277 2.202-1.914 3.303 3.829 2.753 5.745 3.303 4.468 0.55 0.638-2.753-1.277-7.157-2.554-9.359-7.661-12.663-29.367-15.966-40.858-5.506-7.022 6.056 3.831 15.966 11.492 9.91 3.831-3.303 10.853-2.753 14.046 0.551 4.468 4.955 1.914 12.112 8.299 15.966s14.044 1.101 18.514-3.854c5.106-7.157 7.022-15.415 15.321-20.37 5.108-3.303 14.683-4.404 19.791 0.551 4.468 4.955 3.191 12.663 6.384 18.168 8.299 12.112 22.343 6.056 30.643-2.202 1.914-1.652 3.191-4.404 5.745-5.506 1.277-0.55-2.554-0.55-1.277 0.551s2.554 1.652 3.831 2.753c7.66 4.404 15.96 1.652 23.62-1.101 8.938-3.303 15.96-5.506 24.259 0 8.938 5.505 13.406 14.865 15.96 23.673 3.193 9.91 1.916 26.427 16.599 29.73 16.598 3.854 17.237-15.966 17.237-24.775 0-35.786 0.638-80.93 37.026-104.604-2.554 0-5.106 0-7.66 0 21.705 9.359 38.942-5.505 60.008-7.708 12.131-1.101 21.707 8.258 33.837 9.359 10.853 1.101 21.705-1.652 30.643-6.607 10.213-6.056 13.406-13.764 18.512-23.123 6.384-12.112 21.068-1.652 31.92 0.551 13.406 2.753 24.898-2.202 36.39-7.708 8.299-3.303 24.259-9.359 30.004 0 2.554 3.854 10.215 4.404 12.767 0 5.747-9.91 20.43-4.404 26.813 1.652 8.938 8.809 11.492 21.471 17.876 31.932 2.554 4.955 6.384 9.359 10.853 13.213 4.468 3.303 10.215 5.505 14.044 8.809 5.108 3.854 3.193 9.91-1.277 13.764-5.106 4.404-13.406 6.056-20.428 7.708-5.108 1.101-6.384 6.056-4.468 9.359 9.576 17.067 11.49 35.235 7.022 53.403-1.277 4.955 3.831 9.359 8.938 7.708 11.49-2.202 23.62-4.955 35.112-1.652 4.468 1.652 8.299 4.404 12.769 6.056 5.106 1.652 10.213 1.652 15.321 1.101 5.108-1.101 9.576-3.303 14.683-4.404 5.745-1.101 7.661 0 8.938 4.404 0.638 4.404 2.554 7.708 6.383 10.46 4.47 2.753 11.492 4.406 7.661 11.011-4.468 7.157 5.108 12.113 8.938 6.607z"></path>
    <path
        d="M1291.645 200.1l-0.021 0.030c-2.239 3.218-6.149 3.336-8.783 1.692-1.329-0.83-2.388-2.133-2.778-3.775-0.392-1.651-0.085-3.539 1.129-5.49 0.889-1.535 1.077-2.662 0.933-3.515-0.142-0.851-0.645-1.592-1.469-2.303-0.833-0.719-1.93-1.35-3.154-1.995-0.296-0.155-0.602-0.312-0.91-0.472-0.931-0.479-1.898-0.978-2.764-1.51l-0.027-0.016-0.025-0.020c-4.012-2.883-6.055-6.384-6.737-10.993-0.618-2.104-1.32-3.153-2.324-3.663-1.067-0.541-2.712-0.605-5.563-0.059-2.49 0.537-4.831 1.344-7.229 2.171l-0.023 0.008c-2.379 0.821-4.815 1.661-7.423 2.223l-0.045 0.010-0.046 0.005c-5.166 0.557-10.415 0.567-15.691-1.139l-0.036-0.012c-2.29-0.847-4.409-1.971-6.468-3.064l-0.025-0.013c-2.073-1.1-4.085-2.167-6.244-2.968-10.496-3.006-21.556-0.862-32.389 1.24-0.743 0.144-1.485 0.288-2.226 0.43-5.652 1.786-11.49-3.072-10.021-8.789 4.417-17.959 2.523-35.891-6.933-52.746-1.090-1.885-1.272-4.233-0.451-6.276 0.832-2.072 2.67-3.779 5.498-4.391 0.552-0.13 1.109-0.259 1.672-0.389 3.035-0.704 6.192-1.436 9.18-2.41 3.546-1.155 6.767-2.624 9.191-4.714 2.125-1.831 3.574-4.134 3.932-6.349 0.347-2.153-0.321-4.302-2.611-6.029l-0.023-0.018-0.021-0.019c-1.836-1.584-4.153-2.92-6.634-4.301-0.223-0.123-0.445-0.247-0.67-0.371-2.253-1.25-4.605-2.554-6.689-4.095l-0.027-0.020-0.027-0.022c-4.52-3.898-8.427-8.379-11.047-13.451-2.406-3.946-4.283-8.219-6.128-12.42-0.627-1.423-1.248-2.839-1.886-4.23-2.541-5.548-5.359-10.792-9.704-15.077-3.074-2.913-8.18-5.713-13.178-6.575-4.985-0.86-9.631 0.221-12.245 4.73-1.494 2.576-4.42 3.615-7.179 3.54-2.748-0.074-5.619-1.256-7.102-3.495l-0.009-0.013-0.007-0.013c-2.582-4.207-7.512-5.077-13.17-4.331-5.608 0.739-11.563 3.028-15.72 4.682-11.472 5.496-23.207 10.581-36.925 7.764-2.791-0.566-5.807-1.658-8.796-2.754l-0.333-0.122c-2.905-1.066-5.788-2.124-8.534-2.773-2.853-0.674-5.451-0.879-7.683-0.25-2.185 0.615-4.114 2.057-5.608 4.892l-0.007 0.011c-0.586 1.076-1.149 2.133-1.703 3.173-4.226 7.936-7.882 14.801-17.137 20.289l-0.012 0.007-0.011 0.006c-9.074 5.030-20.104 7.835-31.16 6.714-5.579-0.507-10.63-2.714-15.474-4.83-0.573-0.25-1.143-0.5-1.711-0.744-5.423-2.339-10.662-4.311-16.478-3.785-5.177 0.542-10.137 1.863-15.029 3.412-1.963 0.621-3.932 1.286-5.902 1.95-2.899 0.978-5.799 1.956-8.671 2.795-8.087 2.363-16.334 3.752-25.269 1.412-16.040 11.576-24.45 27.694-28.861 45.229-4.677 18.596-4.84 38.721-4.84 56.627 0 4.391-0.151 11.713-2.458 17.467-1.159 2.891-2.896 5.474-5.512 7.062-2.636 1.599-6.035 2.116-10.358 1.113-3.84-0.864-6.675-2.605-8.796-4.91-2.11-2.293-3.478-5.105-4.459-8.065-0.979-2.956-1.587-6.109-2.144-9.097-0.030-0.157-0.059-0.314-0.087-0.471-0.529-2.838-1.024-5.496-1.759-7.781l-0.005-0.012-0.004-0.013c-2.531-8.729-6.913-17.83-15.572-23.163l-0.024-0.016c-3.986-2.644-7.62-3.419-11.335-3.157-3.765 0.265-7.642 1.594-12.122 3.25l-0.009 0.003c-7.594 2.729-16.295 5.674-24.364 1.035l-0.075-0.042-0.064-0.055c-0.586-0.505-1.174-0.887-1.816-1.303l-0.018-0.011c-0.411-0.266-0.846-0.547-1.288-0.874-0.445 0.387-0.864 0.839-1.284 1.334-0.201 0.238-0.408 0.491-0.622 0.752-0.636 0.78-1.321 1.621-2.084 2.284-4.228 4.2-9.959 7.889-15.766 8.963-2.922 0.54-5.886 0.421-8.682-0.656-2.8-1.078-5.371-3.096-7.537-6.255l-0.018-0.028-0.018-0.029c-1.48-2.553-2.050-5.552-2.588-8.376-0.077-0.4-0.151-0.797-0.228-1.188-0.638-3.224-1.4-6.156-3.439-8.432-2.328-2.242-5.722-3.166-9.237-3.1-3.524 0.066-7.029 1.127-9.428 2.679l-0.014 0.009-0.014 0.008c-3.973 2.372-6.434 5.539-8.55 9.054-0.78 1.295-1.503 2.62-2.242 3.974-0.272 0.497-0.545 0.998-0.825 1.503-1.031 1.866-2.128 3.76-3.435 5.592l-0.030 0.041-0.034 0.038c-4.645 5.15-12.762 8.169-19.636 4.020-3.507-2.117-4.539-5.172-5.271-8.118-0.094-0.378-0.183-0.752-0.271-1.122-0.607-2.555-1.166-4.899-2.947-6.88-1.4-1.442-3.711-2.343-6.178-2.471-2.47-0.129-4.937 0.523-6.634 1.987l-0.014 0.012-0.016 0.012c-4.237 3.349-9.348 2.257-12.395-0.445-1.526-1.354-2.605-3.168-2.78-5.129-0.176-1.995 0.597-4.019 2.541-5.7 5.986-5.444 14.568-7.262 22.58-6.134s15.627 5.227 19.631 11.845l0.009 0.014c0.221 0.383 0.461 0.829 0.705 1.32 0.326-0.493 0.664-0.967 1.001-1.404 5.156-7.223 11.672-13.989 21.488-17.376 7.204-2.541 15.536-2.68 22.815-0.494s13.595 6.733 16.599 13.642l0.014 0.034c1.305 3.378 1.957 6.746 2.591 10.029l0.023 0.116v0.085c0 0.438 0.137 1.315 0.369 2.179 0.112 0.422 0.24 0.81 0.369 1.113 0.028 0.067 0.055 0.125 0.078 0.175 0.563-0.121 1.215-0.472 1.952-1.069 0.915-0.741 1.847-1.769 2.751-2.887 0.725-0.898 1.41-1.825 2.044-2.684 0.157-0.21 0.308-0.416 0.458-0.617 0.727-0.978 1.428-1.897 1.998-2.388 4.595-3.963 10.667-6.366 16.824-4.025 1.731 0.504 3.227 1.43 4.57 2.259 0.242 0.15 0.481 0.298 0.714 0.439 1.558 0.94 2.953 1.639 4.571 1.661 1.448-0.265 3.23-1.026 5.125-1.912 0.385-0.179 0.773-0.364 1.163-0.549 1.501-0.712 3.015-1.431 4.324-1.886 18.957-7.879 37.224 0.052 48.258 14.045l0.014 0.019c5.825 7.815 9.708 16.742 11.647 25.668l0.005 0.022 0.004 0.022c0.048 0.294 0.098 0.589 0.146 0.883 0.002-9.052 0.021-18.135 0.641-27.224v-0.012c2.564-31.495 12.829-64.852 42.515-85.443l0.002-0.001c3.38-2.331 6.919-2.999 10.473-1.168 3.895 1.803 8.295 1.699 12.835 0.754 3.499-0.729 6.985-1.933 10.318-3.084 1.012-0.349 2.009-0.694 2.988-1.018l0.018-0.006c0.86-0.265 1.727-0.535 2.602-0.808 8.164-2.546 16.95-5.287 25.75-5.287h0.025l0.023 0.001c5.227 0.282 9.788 1.55 14.145 3.15 2.174 0.799 4.306 1.683 6.438 2.568l0.012 0.005c2.128 0.883 4.258 1.768 6.465 2.584 8.037 2.661 16.721 1.604 24.191-2.152 3.661-1.976 6.358-4.851 8.694-8.116 1.464-2.044 2.746-4.172 4.041-6.323 0.809-1.343 1.622-2.695 2.49-4.041 2.214-3.437 4.701-6.701 8.105-9.098 3.425-2.411 7.717-3.904 13.47-3.904 4.937 0 9.519 1.278 13.999 2.727 0.825 0.267 1.646 0.539 2.463 0.81 3.663 1.215 7.293 2.419 11.141 3.082l0.016 0.003c5.512 1.057 10.756-0.121 15.955-2.091 2.602-0.985 5.168-2.16 7.745-3.34l0.036-0.016c2.556-1.17 5.124-2.346 7.697-3.317 7.134-2.796 16.056-4.339 24.2-3.426 4.555 0.511 8.911 1.798 12.569 4.098 3.181-2.045 6.888-3.426 10.787-4.157 7.517-1.409 15.852-0.427 22.738 2.964 8.837 4.235 14.377 11.005 18.656 18.385 2.135 3.685 3.966 7.537 5.731 11.303l0.383 0.816c1.635 3.492 3.225 6.892 4.985 10.054l0.005 0.009c4.358 8.051 10.58 12.904 18.826 17.827l0.004 0.002c6.459 3.899 11.88 9.059 12.557 16.649l0.002 0.023 0.002 0.024c0.333 9.221-4.709 15.807-11.804 20.59-4.529 3.052-9.937 5.404-15.424 7.28 6.546 14.182 8.913 29.714 6.65 45.071 10.671-1.564 21.86-2.091 32.084 1.115 1.838 0.577 3.574 1.436 5.239 2.349 0.721 0.396 1.412 0.792 2.093 1.182 0.93 0.533 1.841 1.055 2.791 1.555 3.216 1.691 6.331 2.808 9.845 2.053 2.531-0.596 4.881-1.332 7.221-2.066 0.869-0.272 1.736-0.544 2.611-0.808 3.209-0.969 6.472-1.816 10.074-2.099 5.884-0.562 12.543 0.55 17.258 4.617 2.060 1.777 3.423 4.135 4.103 6.482 0.185 0.636 0.271 1.325 0.331 1.981 0.023 0.248 0.043 0.486 0.061 0.719 0.034 0.415 0.066 0.815 0.116 1.225 0.157 1.273 0.447 2.212 1.134 2.806 0.723 0.623 1.642 1.159 2.684 1.768 0.228 0.133 0.461 0.27 0.7 0.411 1.282 0.76 2.67 1.647 3.729 2.866 1.979 2.272 3.332 4.588 4.014 6.942l0.004 0.012 0.004 0.014c1.355 5.261-0.025 9.911-2.646 14.432l-0.018 0.032zM1260.25 156.679c-4.454 0.349-8.393 1.584-12.471 2.862-2.353 0.737-4.75 1.489-7.319 2.093-4.945 1.066-9.093-1.309-13.301-3.72-2.31-1.323-4.639-2.657-7.127-3.437-10.135-3.178-21.267-2.63-31.958-1.043-0.31 0.046-0.618 0.092-0.926 0.14 0.052-0.308 0.1-0.616 0.146-0.924 2.308-15.3-0.032-30.788-6.579-44.923-0.125-0.271-0.253-0.542-0.381-0.812 0.283-0.094 0.568-0.189 0.851-0.286 13.962-4.759 27.242-12.545 26.717-27.026-0.639-7.157-5.745-12.112-12.13-15.966-8.299-4.955-14.683-9.91-19.151-18.168-1.777-3.191-3.382-6.619-5.013-10.105-5.407-11.55-11.114-23.741-24.353-30.085-10.057-4.955-23.344-4.645-32.321 0.929-0.274 0.17-0.545 0.346-0.81 0.526-0.269-0.179-0.541-0.352-0.817-0.519-9.814-5.93-24.813-4.63-35.637-0.386-2.548 0.961-5.095 2.127-7.661 3.303-7.727 3.538-15.634 7.159-24.259 5.506-3.92-0.676-7.626-1.905-11.292-3.122-5.291-1.756-10.504-3.485-16.16-3.485-13.296 0-18.227 8.188-23.271 16.559-3.432 5.697-6.913 11.478-13.118 14.822-7.661 3.854-16.598 4.955-24.898 2.202-2.226-0.823-4.376-1.715-6.502-2.598-6.411-2.661-12.641-5.247-20.311-5.66-8.655 0-17.31 2.699-25.493 5.25-0.871 0.271-1.736 0.541-2.597 0.806-0.956 0.318-1.939 0.657-2.94 1.003-7.688 2.656-16.53 5.71-23.873 2.3-3.191-1.652-6.383-1.101-9.576 1.101-29.367 20.37-39.58 53.403-42.134 84.784-0.639 9.359-0.639 18.719-0.639 28.078 0 1.377 0 2.809-0.020 4.261-0.018 1.425-0.057 2.87-0.132 4.302-0.253-1.343-0.506-2.765-0.759-4.232-0.335-1.938-0.67-3.956-1.003-5.973l-0.002-0.009c-1.916-8.809-5.745-17.617-11.492-25.325-10.853-13.764-28.727-21.471-47.241-13.764-1.263 0.436-2.727 1.13-4.231 1.845-2.299 1.090-4.693 2.227-6.621 2.56-2.214 0-4-1.103-5.854-2.246-1.353-0.836-2.744-1.693-4.361-2.158-5.745-2.202-11.49 0-15.96 3.854-0.572 0.493-1.371 1.576-2.315 2.853-1.913 2.59-4.415 5.977-6.792 6.846-0.285 0.104-0.568 0.172-0.849 0.199-0.085 0.008-0.171 0.012-0.256 0.012-0.105-0.090-0.21-0.239-0.312-0.43-0.068-0.13-0.135-0.279-0.201-0.442-0.429-1.066-0.764-2.734-0.764-3.533-0.639-3.303-1.277-6.606-2.554-9.91-5.745-13.213-24.259-17.617-38.305-12.663-9.576 3.303-15.96 9.91-21.068 17.067-0.431 0.558-0.862 1.18-1.27 1.821-0.196 0.308-0.385 0.621-0.566 0.934-0.144-0.345-0.292-0.679-0.442-0.998-0.313-0.667-0.629-1.267-0.914-1.757-7.661-12.663-29.367-15.966-40.857-5.506-7.024 6.056 3.829 15.966 11.49 9.91 3.831-3.303 10.853-2.753 14.046 0.551 1.952 2.165 2.564 4.751 3.166 7.298 0.776 3.281 1.539 6.498 5.132 8.668 6.384 3.854 14.044 1.101 18.514-3.854 1.617-2.266 2.914-4.642 4.194-6.989 2.766-5.066 5.455-9.995 11.127-13.381 5.108-3.303 14.683-4.404 19.791 0.55 2.511 2.784 3.207 6.438 3.904 10.081 0.541 2.84 1.081 5.675 2.481 8.087 8.299 12.112 22.343 6.056 30.643-2.202 0.707-0.61 1.327-1.37 1.957-2.142 0.605-0.743 1.22-1.497 1.93-2.138 0.224-0.202 0.458-0.394 0.705-0.57 0.248 0.207 0.495 0.394 0.743 0.571 0.349 0.248 0.698 0.474 1.047 0.7 0.639 0.413 1.277 0.826 1.916 1.376 7.66 4.404 15.96 1.652 23.62-1.101 8.938-3.303 15.96-5.506 24.261 0 8.936 5.505 13.406 14.865 15.958 23.673 0.755 2.341 1.259 5.052 1.784 7.87 1.695 9.108 3.601 19.337 14.815 21.86 16.598 3.854 17.237-15.966 17.237-24.775 0-34.59 0.597-77.924 33.498-102.16 0.303-0.223 0.609-0.445 0.917-0.665 0.379 0.104 0.757 0.201 1.133 0.291 11.54 2.768 21.963-0.75 32.665-4.361 6.821-2.302 13.755-4.642 21.164-5.416 6.701-0.609 12.625 1.977 18.63 4.598 4.862 2.123 9.777 4.269 15.205 4.761 10.853 1.101 21.705-1.652 30.643-6.606 9.031-5.355 12.573-12.001 16.803-19.938 0.554-1.040 1.118-2.101 1.711-3.185 4.725-8.966 13.998-5.563 22.898-2.297 3.124 1.146 6.201 2.275 9.020 2.848 13.406 2.753 24.898-2.202 36.39-7.708 8.299-3.303 24.259-9.359 30.004 0 2.554 3.854 10.215 4.404 12.767 0 5.747-9.91 20.43-4.404 26.813 1.652 5.608 5.526 8.703 12.569 11.805 19.633 1.845 4.196 3.692 8.4 6.071 12.298 2.554 4.955 6.384 9.359 10.853 13.213 2.036 1.504 4.335 2.78 6.598 4.036 2.707 1.501 5.36 2.974 7.446 4.773 5.108 3.854 3.193 9.91-1.275 13.764-4.709 4.060-12.13 5.781-18.761 7.319-0.563 0.13-1.12 0.259-1.669 0.389-5.108 1.101-6.384 6.056-4.468 9.359 9.576 17.067 11.492 35.235 7.022 53.403-1.277 4.955 3.831 9.359 8.938 7.708 0.771-0.148 1.544-0.298 2.32-0.449 10.796-2.096 22.070-4.285 32.791-1.203 2.235 0.826 4.31 1.927 6.384 3.028s4.149 2.202 6.384 3.028c5.106 1.652 10.213 1.652 15.321 1.101 2.554-0.551 4.947-1.376 7.343-2.202 2.393-0.826 4.787-1.652 7.341-2.202 5.745-1.101 7.661 0 8.938 4.404 0.638 4.404 2.554 7.708 6.384 10.46 0.832 0.515 1.754 0.988 2.678 1.464 4.030 2.078 8.098 4.173 4.981 9.547-4.468 7.157 5.108 12.113 8.938 6.607 2.554-4.404 3.831-8.808 2.554-13.764-0.639-2.201-1.916-4.404-3.831-6.605-1.126-1.295-2.693-2.208-4.181-3.077-1.044-0.61-2.052-1.197-2.84-1.878-1.27-1.095-1.418-2.916-1.558-4.661-0.073-0.887-0.142-1.754-0.358-2.496-0.638-2.202-1.914-4.404-3.831-6.056-4.468-3.854-10.853-4.955-16.598-4.404zM821.736 171.971c-0.027 0.014-0.048 0.028-0.068 0.040-0.078 0.052-0.087 0.083 0 0.083 0 0.077 0.012 0.068 0.034 0 0.011-0.030 0.021-0.072 0.034-0.123zM825.499 170.993c0 0-0.014-0.026-0.043-0.074 0.028 0.018 0.043 0.042 0.043 0.074z"></path>
    <path
        d="M608.445 114.286c3.831-0.55 5.108-1.652 3.831-3.854 0-1.101-0.639-2.753-1.277-3.854-1.277-2.202-2.554-3.854-4.468-4.955-3.193-2.202-7.024-2.753-10.853-2.202-7.024 1.652-19.153 14.314-24.261 6.056-2.552-4.404-12.767-3.854-13.406 1.652-1.277 6.056-4.468 10.46-11.49 13.213 3.191 2.753 7.022 6.056 10.213 8.809 3.831-6.056 2.554-12.663-3.829-17.067-7.661-6.056-16.599-6.056-26.175-4.955-4.468 0.551-8.938 0.551-12.13-1.652s-5.108-6.056-7.661-8.809c-6.383-7.708-15.321-9.91-24.897-12.663-46.604-12.112-94.484-19.269-143.002-22.022-23.621-1.101-47.88-1.652-71.502-1.101-17.235 0.55-35.749 3.303-50.432 11.561-7.024 3.854-12.769 9.359-16.599 15.415-3.191 4.404-5.745 14.314-11.49 16.516-3.831 1.652-7.024-0.551-10.215-2.202-3.83-1.652-8.299-2.753-12.768-2.753-7.661 0.55-14.045 4.955-17.237 10.46-8.938 15.415-2.554 36.887 3.192 52.302 7.661 19.27 20.429 36.886 37.665 51.201 1.277-3.854 2.554-7.708 3.831-11.561-8.299 1.651-14.044 8.808-14.044 15.965 0 9.911 8.936 17.068 10.853 26.426 1.277 4.954 0.638 10.461-3.193 14.315-4.468 4.404-8.936 3.304-14.683 3.854-12.768 0-19.152 9.358-26.813 17.066-17.875 18.168-35.75 36.887-53.626 55.056-14.683 15.415-34.474 31.381-39.581 51.752-6.384 23.673 5.107 47.346 16.598 68.818 0.638-3.304 1.915-6.057 2.554-9.36-1.915 0.55-7.661-2.201-9.576-2.753-4.469 0-8.299-1.101-12.768-0.55-10.853 2.203-14.045 13.764-17.875 21.472-5.746 11.561-12.13 22.573-17.875 34.134-4.469 8.258-13.406 19.269-11.491 29.18 1.915 9.909 16.598 17.066 24.898 23.123 10.853 7.708 21.706 15.965 32.558 23.673 7.661 5.505 16.598 12.112 27.451 12.662 9.576 0.55 18.514-2.753 23.621-9.909 4.469-7.157-8.299-13.764-12.768-6.607-8.299 14.315-36.389-11.561-43.411-16.516-8.299-6.057-15.96-11.563-24.259-17.618-3.83-2.753-8.938-4.954-11.491-8.258-3.83-4.956 1.277-10.461 3.192-14.865 8.937-15.965 17.237-31.933 26.174-48.449 1.277-2.203 3.192-8.258 5.746-8.808 1.915-0.55 6.384 2.201 7.661 2.751 6.384 2.203 11.491 2.753 17.875 0 3.83-1.651 4.469-6.055 2.554-9.358-12.13-22.573-24.259-49.549-7.022-73.222 7.661-10.461 17.875-19.819 27.451-29.18 10.214-10.461 20.429-20.92 30.005-31.381 10.214-10.461 20.429-20.922 30.005-31.381 1.915-2.203 4.469-6.057 7.661-6.607 3.192-1.101 7.661 0 11.491 0 5.108-0.55 9.576-2.203 13.406-4.954 9.576-6.607 12.769-16.518 11.492-26.978-0.639-6.055-3.193-11.561-6.384-16.516-1.277-2.201-7.661-11.011-1.916-12.112 5.747-1.101 7.661-8.258 3.831-11.561-12.767-11.011-23.62-24.223-30.004-39.089-5.746-12.663-12.13-29.729-8.938-43.493 1.277-6.056 3.83-9.359 10.853-6.607s14.045 5.506 21.706 2.753c14.044-4.955 15.958-18.719 24.259-27.527 8.936-9.91 25.536-13.213 39.58-14.865 19.153-1.652 38.305-1.652 56.819-1.101 42.773 1.101 85.546 6.056 127.679 14.314 11.492 2.202 22.982 4.404 33.835 7.157 4.47 1.101 10.215 1.652 14.046 3.854s5.745 5.505 8.299 8.809c5.108 6.056 11.492 10.46 20.428 11.011 5.108 0.55 10.215-0.551 15.323-0.551 1.277 0 10.213 1.101 8.936 3.303-3.829 6.056 3.831 11.562 10.215 8.809 10.853-4.404 16.598-13.213 18.514-23.123-4.468 1.101-8.938 2.202-14.046 3.303 3.831 6.056 10.853 9.359 19.153 9.359 3.831 0 7.66-1.652 10.853-3.303 3.191-1.652 6.384-5.505 9.576-6.056 1.914-0.55 0-1.101 1.277 1.652 0.638 1.652 1.277 3.854 1.914 4.955 1.916 2.202 4.47 3.854 7.661 4.955 6.384 1.652 12.13-1.652 12.769-7.708-0.639-6.056-12.769-7.708-14.046-1.652z"></path>
    <path
        d="M612.224 109.828c0.034 0.214 0.052 0.417 0.052 0.604 0.052 0.090 0.1 0.178 0.144 0.265 0.296-0.067 0.602-0.118 0.912-0.152 3.913-0.439 8.76 1.624 9.159 5.393-0.639 6.056-6.384 9.359-12.769 7.708-3.191-1.101-5.745-2.753-7.661-4.955-0.426-0.734-0.851-1.958-1.277-3.181-0.212-0.612-0.426-1.223-0.638-1.774-0.192-0.414-0.312-0.753-0.383-1.029-0.018-0.065-0.032-0.126-0.043-0.184-0.1-0.486-0.032-0.736 0.018-0.835-0.078 0.074-0.283 0.214-0.75 0.36-0.037 0.012-0.078 0.024-0.119 0.036-0.030 0.005-0.061 0.011-0.091 0.017-1.884 0.362-3.77 1.857-5.654 3.353-1.277 1.013-2.554 2.026-3.831 2.687-3.193 1.652-7.022 3.303-10.853 3.303-3.008 0-5.848-0.434-8.429-1.275-0.29-0.095-0.575-0.194-0.858-0.299-0.158 0.259-0.319 0.515-0.484 0.77-3.104 4.784-7.642 8.745-13.85 11.265-6.384 2.753-14.044-2.753-10.215-8.809 1.277-2.202-7.66-3.303-8.936-3.303-2.043 0-4.087 0.176-6.13 0.352-3.063 0.264-6.128 0.529-9.193 0.198-8.936-0.551-15.321-4.955-20.428-11.011-0.484-0.627-0.946-1.254-1.402-1.873-1.948-2.644-3.793-5.152-6.897-6.936-2.746-1.579-6.477-2.309-10.014-3.001-1.398-0.274-2.766-0.541-4.032-0.853-10.853-2.753-22.343-4.955-33.835-7.157v0c-42.134-8.258-84.907-13.213-127.679-14.314-18.514-0.55-37.665-0.55-56.819 1.101-14.044 1.652-30.643 4.955-39.58 14.865-2.901 3.078-5.020 6.76-7.15 10.46-3.968 6.891-7.971 13.843-17.109 17.067-7.661 2.753-14.683 0-21.706-2.753s-9.576 0.551-10.853 6.607c-3.192 13.764 3.192 30.831 8.938 43.493 6.385 14.866 17.237 28.078 30.004 39.089 3.831 3.304 1.916 10.461-3.831 11.561-5.083 0.974-0.671 7.98 1.296 11.109 0.256 0.408 0.472 0.75 0.62 1.003 3.191 4.954 5.745 10.461 6.384 16.516 1.277 10.461-1.916 20.371-11.492 26.978-3.831 2.751-8.299 4.404-13.406 4.954-1.277 0-2.625-0.123-3.972-0.246-2.696-0.244-5.391-0.488-7.519 0.246-2.633 0.454-4.832 3.156-6.597 5.325-0.374 0.459-0.729 0.896-1.064 1.282-9.575 10.459-19.789 20.918-30.003 31.379h-0.001c-9.576 10.461-19.791 20.922-30.005 31.382-1.412 1.38-2.837 2.76-4.267 4.144h-0.001c-8.265 8-16.653 16.117-23.184 25.035-17.237 23.673-5.107 50.65 7.022 73.222 1.915 3.304 1.277 7.708-2.554 9.358-6.384 2.753-11.491 2.203-17.875 0-0.274-0.118-0.694-0.337-1.204-0.602-1.871-0.976-4.952-2.582-6.457-2.15-1.889 0.406-3.429 3.827-4.619 6.472-0.419 0.93-0.794 1.763-1.127 2.337-3.132 5.788-6.185 11.508-9.216 17.184l-0.002 0.004c-5.616 10.521-11.152 20.891-16.957 31.261-0.439 1.010-1.046 2.078-1.675 3.182-2.113 3.717-4.469 7.863-1.517 11.683 1.702 2.201 4.539 3.914 7.377 5.628v0c1.419 0.857 2.837 1.713 4.114 2.63 4.15 3.027 8.14 5.918 12.13 8.808s7.98 5.781 12.13 8.81c1.029 0.725 2.512 1.902 4.318 3.334 10.515 8.343 32.011 25.397 39.094 13.182 4.469-7.157 17.237-0.55 12.768 6.607-5.107 7.156-14.045 10.459-23.621 9.909-10.592-0.538-19.36-6.844-26.898-12.265l-0.554-0.397c-5.427-3.854-10.853-7.847-16.28-11.837s-10.852-7.982-16.278-11.836c-1.794-1.311-3.887-2.671-6.085-4.1l-0.001-0.002c-7.967-5.179-17.311-11.255-18.812-19.021-1.504-7.784 3.687-16.247 8.149-23.522 1.219-1.987 2.384-3.886 3.342-5.658 2.873-5.781 5.905-11.424 8.938-17.068 3.032-5.642 6.065-11.285 8.938-17.066 0.636-1.28 1.255-2.668 1.894-4.1 3.208-7.191 6.931-15.536 15.981-17.372 2.66-0.328 5.095-0.069 7.572 0.192h0.001c1.613 0.171 3.245 0.344 4.969 0.358 0.075 0 0.151 0 0.227 0 0.248 0.071 0.56 0.18 0.92 0.313-0.185-0.378-0.37-0.755-0.553-1.133-8.67-17.869-15.068-36.878-9.942-55.885 4.126-16.455 17.832-30.036 30.688-42.775v0c3.059-3.031 6.070-6.014 8.892-8.977 8.938-9.084 17.875-18.306 26.813-27.529l0.005-0.005c8.936-9.22 17.872-18.439 26.807-27.522 1.203-1.209 2.375-2.461 3.545-3.711h0.001c6.278-6.705 12.505-13.355 23.267-13.355 1.3-0.125 2.535-0.164 3.719-0.203v0c4.048-0.132 7.507-0.244 10.963-3.651 3.831-3.854 4.47-9.36 3.193-14.315-0.844-4.124-3.052-7.822-5.259-11.515-2.798-4.687-5.594-9.367-5.594-14.911 0-3.28 1.206-6.561 3.312-9.31 0.18-0.235 0.369-0.467 0.561-0.695-0.217-0.203-0.433-0.408-0.648-0.613-13.73-13.075-24.091-28.421-30.677-44.987-5.746-15.415-12.13-36.887-3.192-52.302 3.192-5.505 9.576-9.91 17.237-10.46 4.469 0 8.937 1.101 12.768 2.753 0.37 0.192 0.741 0.391 1.111 0.59 2.83 1.521 5.717 3.072 9.104 1.612 3.889-1.491 6.317-6.516 8.47-10.973 1.026-2.125 1.991-4.121 3.020-5.543 3.831-6.056 9.576-11.562 16.599-15.415 14.683-8.258 33.197-11.011 50.432-11.561 23.621-0.551 47.88 0 71.502 1.101 48.518 2.753 96.398 9.91 143.002 22.022 0.531 0.153 1.061 0.304 1.589 0.454l0.007 0.002c8.968 2.559 17.274 4.928 23.301 12.206 0.939 1.012 1.792 2.172 2.653 3.345 1.482 2.018 2.988 4.071 5.008 5.464 3.191 2.202 7.661 2.202 12.13 1.652 9.576-1.101 18.514-1.101 26.175 4.955 0.586 0.405 1.129 0.828 1.629 1.267 0.228 0.201 0.447 0.405 0.659 0.613 0.173-0.248 0.338-0.501 0.497-0.758 1.106-1.797 1.847-3.822 2.32-6.077 0.639-5.505 10.854-6.056 13.406-1.652 0.684 1.105 1.492 1.835 2.399 2.267 0.189 0.090 0.381 0.168 0.579 0.233 3.644 1.2 8.634-1.794 13.307-4.596 2.919-1.751 5.713-3.427 7.977-3.96 3.829-0.551 7.66 0 10.853 2.202 1.914 1.101 3.191 2.753 4.468 4.955 0.531 0.914 1.060 2.207 1.225 3.25z"></path>
    <path
        d="M104.743 573.989c0-0.55-0.638-0.55-1.277-0.55 0.638 0.55 1.915 0.55 2.554 0.55h0.638c-1.277 0-2.554-0.55-3.192-0.55 0.638 0.55 1.277 1.102 1.915 1.102s0.638 0 1.277 0h0.638c0.638 0 0.638 0 1.277 0h0.638c0.638 0 0.638 0 1.277-0.552-0.638 0-0.638 0-1.277 0.552h0.638c0.638 0 0.638 0 1.277-0.552 0.638 0 0.638-0.55 1.277-1.101s1.277-1.651 0.638-2.203c0-0.55 0-1.101-0.638-1.651 0-0.55-0.638-0.55-1.277-1.101s-0.638-0.55-1.277-0.55-1.277 0-1.915 0-1.915 0-2.554 0.55c0 0-0.638 0-0.638 0.55-0.638 0-0.638 0.55-1.277 0.55-0.638 0.55-1.277 1.651-1.277 2.753 0.638-0.55 0.638-1.653 1.277-2.203-0.638 0.55-0.638 0.55-1.277 1.101s-0.638 1.653-0.638 2.203c0-0.55 0-1.101 0-1.651-0.638 0.55-0.638 1.101-0.638 1.651s0 1.651 0.638 2.203c0.638 0 0.638 0 1.277 0 0.638-0.552 1.277-0.55 1.915-1.102z"></path>
    <path
        d="M102.845 573.444c7.022 0 12.768 2.203 17.875 6.057 3.83 2.753 8.299 6.055 13.406 7.157 5.107 1.651 10.214 1.101 15.322-1.102 4.469-1.651 7.661-3.854 12.768-2.201 10.214 2.753 17.237 8.808 28.089 8.258 2.554 0 5.108-1.101 7.661-1.101 4.468 0 6.384 2.201 10.215 3.854 4.468 1.651 8.936 2.201 13.406 1.651 8.936-1.101 18.512-6.055 24.897 1.653 5.108 6.055 7.661 12.662 14.046 17.616 7.66 6.057 18.514 6.607 27.45 3.304 5.747-1.651 10.853-4.954 15.323-7.708 4.468-2.753 8.936-4.954 10.853-9.911 1.277-3.302-1.916-6.055-5.745-6.055-12.131-1.101-19.153 14.315-32.56 13.212-8.936-0.55-12.13-9.909-15.96-15.415-4.468-6.055-10.213-11.011-19.151-12.112-4.468-0.55-9.576 0.55-14.046 1.101-6.383 1.102-9.576 2.203-15.321-1.101-5.108-2.753-8.938-3.854-15.321-3.304-5.747 0.55-9.578 1.653-15.323 0-8.937-3.304-16.598-9.358-26.813-7.708-4.469 0.55-8.299 3.854-12.768 4.956-6.384 1.101-12.13-3.304-17.237-5.506-7.661-3.304-17.875-6.055-22.982 1.653-0.638 1.101 0 2.751 1.915 2.751z"></path>
    <path
        d="M120.184 580.211v0c-4.966-3.747-10.526-5.877-17.339-5.877-1.235 0-2.188-0.549-2.686-1.407-0.479-0.826-0.479-1.856 0-2.682l0.013-0.023 0.015-0.023c2.773-4.185 6.946-5.498 11.305-5.352 4.319 0.142 8.912 1.711 12.772 3.375 1.27 0.547 2.572 1.225 3.876 1.904l0.132 0.068c1.36 0.707 2.729 1.416 4.131 2.020 2.797 1.206 5.629 1.957 8.562 1.46 1.901-0.474 3.685-1.366 5.562-2.306 0.201-0.1 0.404-0.201 0.607-0.303 2.065-1.028 4.258-2.057 6.655-2.356 5.322-0.857 9.959 0.301 14.341 2.052 1.979 0.789 3.923 1.708 5.85 2.618 0.201 0.094 0.402 0.191 0.603 0.285 2.125 1.001 4.238 1.98 6.422 2.789 4.342 1.241 7.478 0.853 11.479 0.356 1.083-0.134 2.23-0.276 3.48-0.395l0.009-0.002c3.261-0.281 5.911-0.144 8.415 0.433 2.502 0.575 4.814 1.578 7.405 2.974l0.021 0.012c2.757 1.583 4.84 2.084 6.977 2.084 1.733 0 3.499-0.322 5.752-0.732 0.625-0.114 1.288-0.235 1.996-0.356l0.043-0.007c1.004-0.123 2.039-0.274 3.106-0.431l0.326-0.048c1.177-0.171 2.386-0.345 3.599-0.484 2.418-0.278 4.894-0.426 7.232-0.137 9.266 1.142 15.205 6.295 19.761 12.466l0.014 0.021c0.825 1.186 1.621 2.547 2.427 3.923 0.153 0.262 0.306 0.525 0.461 0.787 0.976 1.658 1.989 3.318 3.149 4.819 2.312 2.99 5.134 5.252 9.246 5.505l0.018 0.002c6.331 0.52 11.184-2.839 16.163-6.44 0.144-0.105 0.289-0.208 0.433-0.313 4.734-3.428 9.683-7.013 15.93-6.463 2.098 0.009 4.073 0.764 5.373 2.046 1.337 1.318 1.945 3.198 1.163 5.222-1.815 4.694-5.802 7.088-9.709 9.433-0.504 0.305-1.008 0.607-1.507 0.914-0.321 0.196-0.645 0.397-0.972 0.6-4.212 2.605-9.088 5.622-14.539 7.196-9.145 3.369-20.325 2.835-28.277-3.45-3.3-2.561-5.595-5.54-7.688-8.594-0.547-0.796-1.076-1.594-1.605-2.39-1.514-2.281-3.020-4.55-4.885-6.76l-0.005-0.005c-2.933-3.542-6.575-4.208-10.721-3.811-2.091 0.199-4.274 0.67-6.536 1.17-0.121 0.027-0.242 0.053-0.365 0.080-2.126 0.472-4.319 0.958-6.481 1.223-4.618 0.57-9.23-0.002-13.825-1.699l-0.043-0.018c-0.999-0.431-1.868-0.896-2.664-1.339-0.196-0.109-0.385-0.214-0.57-0.319-0.581-0.328-1.122-0.63-1.679-0.91-1.428-0.712-2.887-1.213-4.949-1.213-1.165 0-2.349 0.251-3.644 0.531l-0.043 0.009c-1.239 0.267-2.588 0.557-3.952 0.561-5.606 0.28-10.21-1.149-14.643-2.956-1.252-0.509-2.48-1.045-3.712-1.583-3.173-1.382-6.361-2.771-9.989-3.749l-0.021-0.007-0.021-0.005c-3.808-1.232-6.352-0.182-9.64 1.177-0.789 0.326-1.621 0.67-2.523 1.004-5.244 2.256-10.554 2.846-15.884 1.134-5.106-1.113-9.567-4.324-13.265-6.986-0.144-0.103-0.287-0.207-0.429-0.308l-0.017-0.012zM134.127 586.658c5.107 1.651 10.214 1.101 15.322-1.102 0.843-0.31 1.64-0.641 2.414-0.963 3.327-1.38 6.21-2.579 10.354-1.238 3.697 0.996 6.976 2.426 10.169 3.816 5.63 2.454 10.996 4.792 17.92 4.441 1.277 0 2.554-0.276 3.831-0.55 1.277-0.276 2.554-0.55 3.831-0.55 3.088 0 4.956 1.051 7.079 2.246 0.951 0.534 1.952 1.097 3.136 1.608 4.468 1.651 8.936 2.201 13.406 1.651 2.117-0.26 4.271-0.737 6.409-1.211 6.887-1.526 13.617-3.019 18.487 2.864 1.9 2.253 3.448 4.582 4.969 6.874 2.57 3.868 5.068 7.631 9.077 10.742 7.66 6.057 18.514 6.607 27.45 3.304 5.339-1.535 10.128-4.495 14.364-7.116 0.322-0.199 0.641-0.397 0.958-0.591 0.508-0.313 1.017-0.62 1.521-0.922 3.93-2.367 7.635-4.596 9.332-8.986 1.277-3.304-1.916-6.057-5.745-6.057-5.93-0.538-10.639 2.871-15.47 6.367-5.051 3.656-10.236 7.408-17.089 6.846-7.063-0.435-10.537-6.37-13.574-11.558-0.807-1.377-1.583-2.702-2.386-3.857-4.468-6.055-10.213-11.011-19.151-12.112-3.455-0.426-7.293 0.137-10.92 0.668-1.065 0.155-2.11 0.308-3.125 0.433-0.68 0.118-1.325 0.235-1.941 0.347-5.152 0.94-8.247 1.503-13.38-1.448-5.108-2.753-8.938-3.854-15.321-3.304-1.2 0.116-2.315 0.255-3.384 0.386-4.044 0.504-7.392 0.921-11.939-0.386-2.445-0.903-4.793-2.012-7.125-3.113-6.194-2.926-12.267-5.795-19.688-4.595-2.454 0.303-4.716 1.435-6.997 2.577-1.872 0.939-3.757 1.882-5.771 2.379-4.835 0.833-9.304-1.491-13.406-3.624-1.314-0.684-2.591-1.348-3.83-1.882-7.661-3.304-17.875-6.055-22.982 1.653-0.638 1.101 0 2.751 1.915 2.751 7.022 0 12.768 2.203 17.875 6.057 0.127 0.091 0.255 0.183 0.383 0.276 3.744 2.693 8.085 5.816 13.023 6.881z"></path>
    <path
        d="M309.025 602.069c10.853-3.854 20.43-6.607 32.56-7.708 10.853-1.101 21.066-1.101 31.92-2.753 18.512-2.751 37.026-8.808 45.325-23.673 1.916-3.854 3.193-8.258 6.384-11.011 3.831-3.854 9.576-2.201 14.683-2.751 4.47 0 8.938-1.102 12.769-3.304 4.468-2.753 6.383-7.708 10.853-9.911 4.468-2.203 10.213-2.203 15.321-2.753 6.384-0.55 12.13-1.651 18.514-3.304 12.13-2.751 23.621-6.605 36.389-5.505 28.090 1.651 49.157 19.819 72.139 30.83 5.108 2.203 9.576-3.304 5.745-6.607-15.958-15.415-38.942-28.627-62.562-33.582-11.492-2.753-22.982-3.304-34.474-1.653-14.046 2.203-26.175 7.157-40.858 7.708-12.13 0.55-18.512 3.854-26.173 11.561-5.108 4.956-8.938 3.854-15.96 4.404-5.108 0-9.576 1.102-13.406 3.854-8.299 5.506-9.576 15.415-16.598 22.022-7.024 7.157-17.237 9.911-27.452 12.112-22.345 3.854-53.626 0-69.586 18.168-2.554 2.203 1.914 4.404 4.468 3.854z"></path>
    <path
        d="M309.271 602.928l-0.057 0.012c-0.796 0.171-1.688 0.121-2.515-0.061-0.828-0.185-1.654-0.516-2.322-0.967-0.645-0.438-1.266-1.076-1.432-1.916-0.176-0.899 0.219-1.735 0.983-2.413 8.196-9.298 20.259-12.906 32.903-14.701 5.946-0.844 12.067-1.291 18.013-1.726 0.394-0.030 0.787-0.059 1.179-0.087 6.322-0.465 12.418-0.944 17.949-1.897 10.226-2.205 20.175-4.921 26.986-11.861l0.025-0.025c3.015-2.835 4.933-6.299 6.913-9.878 0.246-0.442 0.492-0.887 0.741-1.332 2.239-3.998 4.716-8.016 9.049-10.895 4.009-2.876 8.659-4.007 13.878-4.012 1.443-0.112 2.757-0.155 3.955-0.196 0.267-0.009 0.529-0.018 0.785-0.027 1.425-0.052 2.671-0.119 3.845-0.315 2.292-0.383 4.361-1.261 6.783-3.61 3.87-3.893 7.467-6.723 11.666-8.641 4.205-1.92 8.954-2.897 15.093-3.175h0.007c7.252-0.272 13.887-1.633 20.494-3.211 1.439-0.344 2.876-0.698 4.32-1.054 5.172-1.275 10.413-2.566 15.939-3.434l0.011-0.002c11.601-1.667 23.201-1.111 34.796 1.665 23.787 4.992 46.905 18.284 62.968 33.794 1.113 0.967 1.674 2.148 1.726 3.355 0.050 1.2-0.406 2.342-1.166 3.245-1.526 1.809-4.338 2.741-7.257 1.482l-0.032-0.014c-5.781-2.769-11.433-5.986-17.080-9.262-0.825-0.479-1.651-0.96-2.475-1.441-4.831-2.812-9.672-5.631-14.63-8.237-11.601-6.099-23.759-10.99-37.623-11.805l-0.023-0.002c-10.146-0.874-19.445 1.419-29.082 3.799-2.315 0.572-4.65 1.147-7.020 1.685-6.413 1.66-12.203 2.769-18.639 3.325-1.108 0.119-2.205 0.21-3.298 0.301-1.519 0.126-3.035 0.251-4.573 0.452-2.595 0.34-5.036 0.874-7.143 1.913-2.050 1.010-3.54 2.661-5.145 4.529-0.085 0.102-0.173 0.203-0.26 0.306-1.501 1.749-3.131 3.651-5.375 5.033l-0.011 0.007-0.012 0.007c-3.962 2.28-8.568 3.414-13.164 3.423-1.32 0.137-2.666 0.137-3.97 0.119-0.192-0.002-0.383-0.005-0.573-0.007-1.127-0.018-2.215-0.034-3.277 0.023-2.463 0.134-4.591 0.655-6.279 2.354l-0.023 0.023-0.027 0.023c-1.464 1.263-2.518 2.93-3.455 4.814-0.468 0.942-0.898 1.922-1.339 2.922l-0.004 0.009c-0.436 0.992-0.882 2.005-1.369 2.988l-0.011 0.018-0.011 0.020c-8.523 15.266-27.443 21.365-45.971 24.12-5.465 0.832-10.762 1.247-16.033 1.59-1.090 0.071-2.18 0.139-3.268 0.208-4.185 0.262-8.372 0.524-12.66 0.96h-0.011c-12.026 1.092-21.524 3.818-32.341 7.66l-0.053 0.020zM373.505 591.608c18.514-2.751 37.028-8.808 45.327-23.673 0.479-0.963 0.917-1.961 1.357-2.958 1.316-2.994 2.632-5.987 5.027-8.053 2.735-2.751 6.447-2.696 10.206-2.639 1.505 0.021 3.017 0.045 4.477-0.112 4.468 0 8.936-1.102 12.767-3.304 2.121-1.307 3.669-3.111 5.184-4.88 1.679-1.959 3.321-3.873 5.669-5.031 3.542-1.745 7.887-2.107 12.081-2.456 1.095-0.093 2.182-0.183 3.241-0.297 6.383-0.55 12.13-1.651 18.514-3.304 2.338-0.531 4.652-1.102 6.958-1.67 9.649-2.383 19.123-4.723 29.431-3.834 20.042 1.179 36.51 10.765 52.65 20.163 6.479 3.772 12.906 7.513 19.49 10.667 5.106 2.203 9.576-3.304 5.745-6.607-15.96-15.415-38.942-28.627-62.564-33.582-11.49-2.753-22.982-3.304-34.474-1.653-5.483 0.86-10.676 2.141-15.843 3.412-8.064 1.987-16.065 3.961-25.014 4.295-12.13 0.55-18.514 3.854-26.175 11.561-4.062 3.943-7.318 4.051-12.016 4.208-1.206 0.041-2.509 0.084-3.945 0.196-5.106 0-9.576 1.102-13.406 3.854-4.609 3.058-7.052 7.474-9.515 11.928-1.973 3.567-3.961 7.157-7.083 10.094-7.022 7.157-17.237 9.911-27.452 12.112-5.93 1.024-12.489 1.503-19.224 1.996-18.644 1.364-38.636 2.826-50.361 16.172-2.552 2.203 1.916 4.404 4.47 3.854 10.853-3.854 20.428-6.607 32.558-7.708 4.31-0.436 8.516-0.7 12.705-0.963 6.359-0.397 12.671-0.792 19.216-1.79z"></path>
</svg>